<?xml version="1.0" encoding="UTF-8" standalone="no" ?>
<COLLADA version="1.4.1" xmlns="http://www.collada.org/2005/11/COLLADASchema">
  <asset>
    <created>2024-01-01T00:00:00</created><modified>2024-01-01T00:00:00</modified>
    <unit meter="1" name="meters"/><up_axis>Z_UP</up_axis>
  </asset>
  <library_materials>
    <material id="Mat" name="Mat"><instance_effect url="#Mat-fx"/></material>
  </library_materials>
  <library_effects>
    <effect id="Mat-fx"><profile_COMMON><technique sid="COMMON"><phong>
      <emission><color>0 0 0 1</color></emission>
      <ambient><color>0.0324 0.0324 0.0396 1</color></ambient>
      <diffuse><color>0.1800 0.1800 0.2200 1.0000</color></diffuse>
      <specular><color>0.35 0.35 0.35 1</color></specular>
      <shininess><float>65</float></shininess>
      <transparent opaque="A_ONE"><color>1 1 1 1</color></transparent>
      <transparency><float>1</float></transparency>
    </phong></technique></profile_COMMON></effect>
  </library_effects>
  <library_geometries>
    <geometry id="Geom"><mesh>
      <source id="Pos">
        <float_array count="1152" id="Pos-arr">0.0250000 -0.0400000 -0.0150000 0.0250000 0.0400000 -0.0150000 0.0250000 0.0400000 0.0150000 0.0250000 -0.0400000 0.0150000 -0.0250000 0.0400000 -0.0150000 -0.0250000 -0.0400000 -0.0150000 -0.0250000 -0.0400000 0.0150000 -0.0250000 0.0400000 0.0150000 0.0250000 0.0400000 -0.0150000 -0.0250000 0.0400000 -0.0150000 -0.0250000 0.0400000 0.0150000 0.0250000 0.0400000 0.0150000 -0.0250000 -0.0400000 -0.0150000 0.0250000 -0.0400000 -0.0150000 0.0250000 -0.0400000 0.0150000 -0.0250000 -0.0400000 0.0150000 -0.0250000 -0.0400000 0.0150000 0.0250000 -0.0400000 0.0150000 0.0250000 0.0400000 0.0150000 -0.0250000 0.0400000 0.0150000 0.0250000 -0.0400000 -0.0150000 -0.0250000 -0.0400000 -0.0150000 -0.0250000 0.0400000 -0.0150000 0.0250000 0.0400000 -0.0150000 0.0380000 0.0000000 -0.0030000 0.0373969 0.0034202 -0.0030000 0.0373969 0.0034202 0.0070000 0.0380000 0.0000000 0.0070000 0.0373969 0.0034202 -0.0030000 0.0356604 0.0064279 -0.0030000 0.0356604 0.0064279 0.0070000 0.0373969 0.0034202 0.0070000 0.0356604 0.0064279 -0.0030000 0.0330000 0.0086603 -0.0030000 0.0330000 0.0086603 0.0070000 0.0356604 0.0064279 0.0070000 0.0330000 0.0086603 -0.0030000 0.0297365 0.0098481 -0.0030000 0.0297365 0.0098481 0.0070000 0.0330000 0.0086603 0.0070000 0.0297365 0.0098481 -0.0030000 0.0262635 0.0098481 -0.0030000 0.0262635 0.0098481 0.0070000 0.0297365 0.0098481 0.0070000 0.0262635 0.0098481 -0.0030000 0.0230000 0.0086603 -0.0030000 0.0230000 0.0086603 0.0070000 0.0262635 0.0098481 0.0070000 0.0230000 0.0086603 -0.0030000 0.0203396 0.0064279 -0.0030000 0.0203396 0.0064279 0.0070000 0.0230000 0.0086603 0.0070000 0.0203396 0.0064279 -0.0030000 0.0186031 0.0034202 -0.0030000 0.0186031 0.0034202 0.0070000 0.0203396 0.0064279 0.0070000 0.0186031 0.0034202 -0.0030000 0.0180000 0.0000000 -0.0030000 0.0180000 0.0000000 0.0070000 0.0186031 0.0034202 0.0070000 0.0180000 0.0000000 -0.0030000 0.0186031 -0.0034202 -0.0030000 0.0186031 -0.0034202 0.0070000 0.0180000 0.0000000 0.0070000 0.0186031 -0.0034202 -0.0030000 0.0203396 -0.0064279 -0.0030000 0.0203396 -0.0064279 0.0070000 0.0186031 -0.0034202 0.0070000 0.0203396 -0.0064279 -0.0030000 0.0230000 -0.0086603 -0.0030000 0.0230000 -0.0086603 0.0070000 0.0203396 -0.0064279 0.0070000 0.0230000 -0.0086603 -0.0030000 0.0262635 -0.0098481 -0.0030000 0.0262635 -0.0098481 0.0070000 0.0230000 -0.0086603 0.0070000 0.0262635 -0.0098481 -0.0030000 0.0297365 -0.0098481 -0.0030000 0.0297365 -0.0098481 0.0070000 0.0262635 -0.0098481 0.0070000 0.0297365 -0.0098481 -0.0030000 0.0330000 -0.0086603 -0.0030000 0.0330000 -0.0086603 0.0070000 0.0297365 -0.0098481 0.0070000 0.0330000 -0.0086603 -0.0030000 0.0356604 -0.0064279 -0.0030000 0.0356604 -0.0064279 0.0070000 0.0330000 -0.0086603 0.0070000 0.0356604 -0.0064279 -0.0030000 0.0373969 -0.0034202 -0.0030000 0.0373969 -0.0034202 0.0070000 0.0356604 -0.0064279 0.0070000 0.0373969 -0.0034202 -0.0030000 0.0380000 -0.0000000 -0.0030000 0.0380000 -0.0000000 0.0070000 0.0373969 -0.0034202 0.0070000 0.0280000 0.0000000 -0.0030000 0.0380000 0.0000000 -0.0030000 0.0373969 0.0034202 -0.0030000 0.0356604 0.0064279 -0.0030000 0.0330000 0.0086603 -0.0030000 0.0297365 0.0098481 -0.0030000 0.0262635 0.0098481 -0.0030000 0.0230000 0.0086603 -0.0030000 0.0203396 0.0064279 -0.0030000 0.0186031 0.0034202 -0.0030000 0.0180000 0.0000000 -0.0030000 0.0186031 -0.0034202 -0.0030000 0.0203396 -0.0064279 -0.0030000 0.0230000 -0.0086603 -0.0030000 0.0262635 -0.0098481 -0.0030000 0.0297365 -0.0098481 -0.0030000 0.0330000 -0.0086603 -0.0030000 0.0356604 -0.0064279 -0.0030000 0.0373969 -0.0034202 -0.0030000 0.0280000 0.0000000 0.0070000 0.0380000 0.0000000 0.0070000 0.0373969 0.0034202 0.0070000 0.0356604 0.0064279 0.0070000 0.0330000 0.0086603 0.0070000 0.0297365 0.0098481 0.0070000 0.0262635 0.0098481 0.0070000 0.0230000 0.0086603 0.0070000 0.0203396 0.0064279 0.0070000 0.0186031 0.0034202 0.0070000 0.0180000 0.0000000 0.0070000 0.0186031 -0.0034202 0.0070000 0.0203396 -0.0064279 0.0070000 0.0230000 -0.0086603 0.0070000 0.0262635 -0.0098481 0.0070000 0.0297365 -0.0098481 0.0070000 0.0330000 -0.0086603 0.0070000 0.0356604 -0.0064279 0.0070000 0.0373969 -0.0034202 0.0070000 0.0100000 0.0000000 0.0260000 0.0130000 0.0000000 0.0260000 0.0093969 0.0034202 0.0260000 0.0122160 0.0044463 0.0260000 0.0076604 0.0064279 0.0260000 0.0099586 0.0083562 0.0260000 0.0050000 0.0086603 0.0260000 0.0065000 0.0112583 0.0260000 0.0017365 0.0098481 0.0260000 0.0022574 0.0128025 0.0260000 -0.0017365 0.0098481 0.0260000 -0.0022574 0.0128025 0.0260000 -0.0050000 0.0086603 0.0260000 -0.0065000 0.0112583 0.0260000 -0.0076604 0.0064279 0.0260000 -0.0099586 0.0083562 0.0260000 -0.0093969 0.0034202 0.0260000 -0.0122160 0.0044463 0.0260000 -0.0100000 0.0000000 0.0260000 -0.0130000 0.0000000 0.0260000 -0.0093969 -0.0034202 0.0260000 -0.0122160 -0.0044463 0.0260000 -0.0076604 -0.0064279 0.0260000 -0.0099586 -0.0083562 0.0260000 -0.0050000 -0.0086603 0.0260000 -0.0065000 -0.0112583 0.0260000 -0.0017365 -0.0098481 0.0260000 -0.0022574 -0.0128025 0.0260000 0.0017365 -0.0098481 0.0260000 0.0022574 -0.0128025 0.0260000 0.0050000 -0.0086603 0.0260000 0.0065000 -0.0112583 0.0260000 0.0076604 -0.0064279 0.0260000 0.0099586 -0.0083562 0.0260000 0.0093969 -0.0034202 0.0260000 0.0122160 -0.0044463 0.0260000 -0.0235000 -0.0100000 -0.0040000 -0.0235000 0.0100000 -0.0040000 -0.0235000 0.0100000 0.0040000 -0.0235000 -0.0100000 0.0040000 -0.0325000 0.0100000 -0.0040000 -0.0325000 -0.0100000 -0.0040000 -0.0325000 -0.0100000 0.0040000 -0.0325000 0.0100000 0.0040000 -0.0235000 0.0100000 -0.0040000 -0.0325000 0.0100000 -0.0040000 -0.0325000 0.0100000 0.0040000 -0.0235000 0.0100000 0.0040000 -0.0325000 -0.0100000 -0.0040000 -0.0235000 -0.0100000 -0.0040000 -0.0235000 -0.0100000 0.0040000 -0.0325000 -0.0100000 0.0040000 -0.0325000 -0.0100000 0.0040000 -0.0235000 -0.0100000 0.0040000 -0.0235000 0.0100000 0.0040000 -0.0325000 0.0100000 0.0040000 -0.0235000 -0.0100000 -0.0040000 -0.0325000 -0.0100000 -0.0040000 -0.0325000 0.0100000 -0.0040000 -0.0235000 0.0100000 -0.0040000 0.0270000 0.0320000 0.0095000 0.0260000 0.0337321 0.0095000 0.0260000 0.0337321 0.0125000 0.0270000 0.0320000 0.0125000 0.0260000 0.0337321 0.0095000 0.0240000 0.0337321 0.0095000 0.0240000 0.0337321 0.0125000 0.0260000 0.0337321 0.0125000 0.0240000 0.0337321 0.0095000 0.0230000 0.0320000 0.0095000 0.0230000 0.0320000 0.0125000 0.0240000 0.0337321 0.0125000 0.0230000 0.0320000 0.0095000 0.0240000 0.0302679 0.0095000 0.0240000 0.0302679 0.0125000 0.0230000 0.0320000 0.0125000 0.0240000 0.0302679 0.0095000 0.0260000 0.0302679 0.0095000 0.0260000 0.0302679 0.0125000 0.0240000 0.0302679 0.0125000 0.0260000 0.0302679 0.0095000 0.0270000 0.0320000 0.0095000 0.0270000 0.0320000 0.0125000 0.0260000 0.0302679 0.0125000 0.0250000 0.0320000 0.0095000 0.0270000 0.0320000 0.0095000 0.0260000 0.0337321 0.0095000 0.0240000 0.0337321 0.0095000 0.0230000 0.0320000 0.0095000 0.0240000 0.0302679 0.0095000 0.0260000 0.0302679 0.0095000 0.0250000 0.0320000 0.0125000 0.0270000 0.0320000 0.0125000 0.0260000 0.0337321 0.0125000 0.0240000 0.0337321 0.0125000 0.0230000 0.0320000 0.0125000 0.0240000 0.0302679 0.0125000 0.0260000 0.0302679 0.0125000 -0.0190000 -0.0300000 0.0060000 -0.0200000 -0.0282679 0.0060000 -0.0200000 -0.0282679 0.0140000 -0.0190000 -0.0300000 0.0140000 -0.0200000 -0.0282679 0.0060000 -0.0220000 -0.0282679 0.0060000 -0.0220000 -0.0282679 0.0140000 -0.0200000 -0.0282679 0.0140000 -0.0220000 -0.0282679 0.0060000 -0.0230000 -0.0300000 0.0060000 -0.0230000 -0.0300000 0.0140000 -0.0220000 -0.0282679 0.0140000 -0.0230000 -0.0300000 0.0060000 -0.0220000 -0.0317321 0.0060000 -0.0220000 -0.0317321 0.0140000 -0.0230000 -0.0300000 0.0140000 -0.0220000 -0.0317321 0.0060000 -0.0200000 -0.0317321 0.0060000 -0.0200000 -0.0317321 0.0140000 -0.0220000 -0.0317321 0.0140000 -0.0200000 -0.0317321 0.0060000 -0.0190000 -0.0300000 0.0060000 -0.0190000 -0.0300000 0.0140000 -0.0200000 -0.0317321 0.0140000 -0.0210000 -0.0300000 0.0060000 -0.0190000 -0.0300000 0.0060000 -0.0200000 -0.0282679 0.0060000 -0.0220000 -0.0282679 0.0060000 -0.0230000 -0.0300000 0.0060000 -0.0220000 -0.0317321 0.0060000 -0.0200000 -0.0317321 0.0060000 -0.0210000 -0.0300000 0.0140000 -0.0190000 -0.0300000 0.0140000 -0.0200000 -0.0282679 0.0140000 -0.0220000 -0.0282679 0.0140000 -0.0230000 -0.0300000 0.0140000 -0.0220000 -0.0317321 0.0140000 -0.0200000 -0.0317321 0.0140000 -0.0190000 -0.0300000 -0.0140000 -0.0200000 -0.0282679 -0.0140000 -0.0200000 -0.0282679 -0.0060000 -0.0190000 -0.0300000 -0.0060000 -0.0200000 -0.0282679 -0.0140000 -0.0220000 -0.0282679 -0.0140000 -0.0220000 -0.0282679 -0.0060000 -0.0200000 -0.0282679 -0.0060000 -0.0220000 -0.0282679 -0.0140000 -0.0230000 -0.0300000 -0.0140000 -0.0230000 -0.0300000 -0.0060000 -0.0220000 -0.0282679 -0.0060000 -0.0230000 -0.0300000 -0.0140000 -0.0220000 -0.0317321 -0.0140000 -0.0220000 -0.0317321 -0.0060000 -0.0230000 -0.0300000 -0.0060000 -0.0220000 -0.0317321 -0.0140000 -0.0200000 -0.0317321 -0.0140000 -0.0200000 -0.0317321 -0.0060000 -0.0220000 -0.0317321 -0.0060000 -0.0200000 -0.0317321 -0.0140000 -0.0190000 -0.0300000 -0.0140000 -0.0190000 -0.0300000 -0.0060000 -0.0200000 -0.0317321 -0.0060000 -0.0210000 -0.0300000 -0.0140000 -0.0190000 -0.0300000 -0.0140000 -0.0200000 -0.0282679 -0.0140000 -0.0220000 -0.0282679 -0.0140000 -0.0230000 -0.0300000 -0.0140000 -0.0220000 -0.0317321 -0.0140000 -0.0200000 -0.0317321 -0.0140000 -0.0210000 -0.0300000 -0.0060000 -0.0190000 -0.0300000 -0.0060000 -0.0200000 -0.0282679 -0.0060000 -0.0220000 -0.0282679 -0.0060000 -0.0230000 -0.0300000 -0.0060000 -0.0220000 -0.0317321 -0.0060000 -0.0200000 -0.0317321 -0.0060000 -0.0190000 0.0300000 0.0060000 -0.0200000 0.0317321 0.0060000 -0.0200000 0.0317321 0.0140000 -0.0190000 0.0300000 0.0140000 -0.0200000 0.0317321 0.0060000 -0.0220000 0.0317321 0.0060000 -0.0220000 0.0317321 0.0140000 -0.0200000 0.0317321 0.0140000 -0.0220000 0.0317321 0.0060000 -0.0230000 0.0300000 0.0060000 -0.0230000 0.0300000 0.0140000 -0.0220000 0.0317321 0.0140000 -0.0230000 0.0300000 0.0060000 -0.0220000 0.0282679 0.0060000 -0.0220000 0.0282679 0.0140000 -0.0230000 0.0300000 0.0140000 -0.0220000 0.0282679 0.0060000 -0.0200000 0.0282679 0.0060000 -0.0200000 0.0282679 0.0140000 -0.0220000 0.0282679 0.0140000 -0.0200000 0.0282679 0.0060000 -0.0190000 0.0300000 0.0060000 -0.0190000 0.0300000 0.0140000 -0.0200000 0.0282679 0.0140000 -0.0210000 0.0300000 0.0060000 -0.0190000 0.0300000 0.0060000 -0.0200000 0.0317321 0.0060000 -0.0220000 0.0317321 0.0060000 -0.0230000 0.0300000 0.0060000 -0.0220000 0.0282679 0.0060000 -0.0200000 0.0282679 0.0060000 -0.0210000 0.0300000 0.0140000 -0.0190000 0.0300000 0.0140000 -0.0200000 0.0317321 0.0140000 -0.0220000 0.0317321 0.0140000 -0.0230000 0.0300000 0.0140000 -0.0220000 0.0282679 0.0140000 -0.0200000 0.0282679 0.0140000 -0.0190000 0.0300000 -0.0140000 -0.0200000 0.0317321 -0.0140000 -0.0200000 0.0317321 -0.0060000 -0.0190000 0.0300000 -0.0060000 -0.0200000 0.0317321 -0.0140000 -0.0220000 0.0317321 -0.0140000 -0.0220000 0.0317321 -0.0060000 -0.0200000 0.0317321 -0.0060000 -0.0220000 0.0317321 -0.0140000 -0.0230000 0.0300000 -0.0140000 -0.0230000 0.0300000 -0.0060000 -0.0220000 0.0317321 -0.0060000 -0.0230000 0.0300000 -0.0140000 -0.0220000 0.0282679 -0.0140000 -0.0220000 0.0282679 -0.0060000 -0.0230000 0.0300000 -0.0060000 -0.0220000 0.0282679 -0.0140000 -0.0200000 0.0282679 -0.0140000 -0.0200000 0.0282679 -0.0060000 -0.0220000 0.0282679 -0.0060000 -0.0200000 0.0282679 -0.0140000 -0.0190000 0.0300000 -0.0140000 -0.0190000 0.0300000 -0.0060000 -0.0200000 0.0282679 -0.0060000 -0.0210000 0.0300000 -0.0140000 -0.0190000 0.0300000 -0.0140000 -0.0200000 0.0317321 -0.0140000 -0.0220000 0.0317321 -0.0140000 -0.0230000 0.0300000 -0.0140000 -0.0220000 0.0282679 -0.0140000 -0.0200000 0.0282679 -0.0140000 -0.0210000 0.0300000 -0.0060000 -0.0190000 0.0300000 -0.0060000 -0.0200000 0.0317321 -0.0060000 -0.0220000 0.0317321 -0.0060000 -0.0230000 0.0300000 -0.0060000 -0.0220000 0.0282679 -0.0060000 -0.0200000 0.0282679 -0.0060000</float_array>
        <technique_common><accessor count="384" source="#Pos-arr" stride="3">
          <param name="X" type="float"/><param name="Y" type="float"/><param name="Z" type="float"/>
        </accessor></technique_common>
      </source>
      <source id="Nor">
        <float_array count="1152" id="Nor-arr">1.0000000 0.0000000 0.0000000 1.0000000 0.0000000 0.0000000 1.0000000 0.0000000 0.0000000 1.0000000 0.0000000 0.0000000 -1.0000000 0.0000000 0.0000000 -1.0000000 0.0000000 0.0000000 -1.0000000 0.0000000 0.0000000 -1.0000000 0.0000000 0.0000000 0.0000000 1.0000000 0.0000000 0.0000000 1.0000000 0.0000000 0.0000000 1.0000000 0.0000000 0.0000000 1.0000000 0.0000000 0.0000000 -1.0000000 0.0000000 0.0000000 -1.0000000 0.0000000 0.0000000 -1.0000000 0.0000000 0.0000000 -1.0000000 0.0000000 0.0000000 0.0000000 1.0000000 0.0000000 0.0000000 1.0000000 0.0000000 0.0000000 1.0000000 0.0000000 0.0000000 1.0000000 0.0000000 0.0000000 -1.0000000 0.0000000 0.0000000 -1.0000000 0.0000000 0.0000000 -1.0000000 0.0000000 0.0000000 -1.0000000 1.0000000 0.0000000 0.0000000 0.9396926 0.3420201 0.0000000 0.9396926 0.3420201 0.0000000 1.0000000 0.0000000 0.0000000 0.9396926 0.3420201 0.0000000 0.7660444 0.6427876 0.0000000 0.7660444 0.6427876 0.0000000 0.9396926 0.3420201 0.0000000 0.7660444 0.6427876 0.0000000 0.5000000 0.8660254 0.0000000 0.5000000 0.8660254 0.0000000 0.7660444 0.6427876 0.0000000 0.5000000 0.8660254 0.0000000 0.1736482 0.9848078 0.0000000 0.1736482 0.9848078 0.0000000 0.5000000 0.8660254 0.0000000 0.1736482 0.9848078 0.0000000 -0.1736482 0.9848078 0.0000000 -0.1736482 0.9848078 0.0000000 0.1736482 0.9848078 0.0000000 -0.1736482 0.9848078 0.0000000 -0.5000000 0.8660254 0.0000000 -0.5000000 0.8660254 0.0000000 -0.1736482 0.9848078 0.0000000 -0.5000000 0.8660254 0.0000000 -0.7660444 0.6427876 0.0000000 -0.7660444 0.6427876 0.0000000 -0.5000000 0.8660254 0.0000000 -0.7660444 0.6427876 0.0000000 -0.9396926 0.3420201 0.0000000 -0.9396926 0.3420201 0.0000000 -0.7660444 0.6427876 0.0000000 -0.9396926 0.3420201 0.0000000 -1.0000000 0.0000000 0.0000000 -1.0000000 0.0000000 0.0000000 -0.9396926 0.3420201 0.0000000 -1.0000000 0.0000000 0.0000000 -0.9396926 -0.3420201 0.0000000 -0.9396926 -0.3420201 0.0000000 -1.0000000 0.0000000 0.0000000 -0.9396926 -0.3420201 0.0000000 -0.7660444 -0.6427876 0.0000000 -0.7660444 -0.6427876 0.0000000 -0.9396926 -0.3420201 0.0000000 -0.7660444 -0.6427876 0.0000000 -0.5000000 -0.8660254 0.0000000 -0.5000000 -0.8660254 0.0000000 -0.7660444 -0.6427876 0.0000000 -0.5000000 -0.8660254 0.0000000 -0.1736482 -0.9848078 0.0000000 -0.1736482 -0.9848078 0.0000000 -0.5000000 -0.8660254 0.0000000 -0.1736482 -0.9848078 0.0000000 0.1736482 -0.9848078 0.0000000 0.1736482 -0.9848078 0.0000000 -0.1736482 -0.9848078 0.0000000 0.1736482 -0.9848078 0.0000000 0.5000000 -0.8660254 0.0000000 0.5000000 -0.8660254 0.0000000 0.1736482 -0.9848078 0.0000000 0.5000000 -0.8660254 0.0000000 0.7660444 -0.6427876 0.0000000 0.7660444 -0.6427876 0.0000000 0.5000000 -0.8660254 0.0000000 0.7660444 -0.6427876 0.0000000 0.9396926 -0.3420201 0.0000000 0.9396926 -0.3420201 0.0000000 0.7660444 -0.6427876 0.0000000 0.9396926 -0.3420201 0.0000000 1.0000000 -0.0000000 0.0000000 1.0000000 -0.0000000 0.0000000 0.9396926 -0.3420201 0.0000000 0.0000000 0.0000000 -1.0000000 0.0000000 0.0000000 -1.0000000 0.0000000 0.0000000 -1.0000000 0.0000000 0.0000000 -1.0000000 0.0000000 0.0000000 -1.0000000 0.0000000 0.0000000 -1.0000000 0.0000000 0.0000000 -1.0000000 0.0000000 0.0000000 -1.0000000 0.0000000 0.0000000 -1.0000000 0.0000000 0.0000000 -1.0000000 0.0000000 0.0000000 -1.0000000 0.0000000 0.0000000 -1.0000000 0.0000000 0.0000000 -1.0000000 0.0000000 0.0000000 -1.0000000 0.0000000 0.0000000 -1.0000000 0.0000000 0.0000000 -1.0000000 0.0000000 0.0000000 -1.0000000 0.0000000 0.0000000 -1.0000000 0.0000000 0.0000000 -1.0000000 0.0000000 0.0000000 1.0000000 0.0000000 0.0000000 1.0000000 0.0000000 0.0000000 1.0000000 0.0000000 0.0000000 1.0000000 0.0000000 0.0000000 1.0000000 0.0000000 0.0000000 1.0000000 0.0000000 0.0000000 1.0000000 0.0000000 0.0000000 1.0000000 0.0000000 0.0000000 1.0000000 0.0000000 0.0000000 1.0000000 0.0000000 0.0000000 1.0000000 0.0000000 0.0000000 1.0000000 0.0000000 0.0000000 1.0000000 0.0000000 0.0000000 1.0000000 0.0000000 0.0000000 1.0000000 0.0000000 0.0000000 1.0000000 0.0000000 0.0000000 1.0000000 0.0000000 0.0000000 1.0000000 0.0000000 0.0000000 1.0000000 0.0000000 0.0000000 1.0000000 0.0000000 0.0000000 1.0000000 0.0000000 0.0000000 1.0000000 0.0000000 0.0000000 1.0000000 0.0000000 0.0000000 1.0000000 0.0000000 0.0000000 1.0000000 0.0000000 0.0000000 1.0000000 0.0000000 0.0000000 1.0000000 0.0000000 0.0000000 1.0000000 0.0000000 0.0000000 1.0000000 0.0000000 0.0000000 1.0000000 0.0000000 0.0000000 1.0000000 0.0000000 0.0000000 1.0000000 0.0000000 0.0000000 1.0000000 0.0000000 0.0000000 1.0000000 0.0000000 0.0000000 1.0000000 0.0000000 0.0000000 1.0000000 0.0000000 0.0000000 1.0000000 0.0000000 0.0000000 1.0000000 0.0000000 0.0000000 1.0000000 0.0000000 0.0000000 1.0000000 0.0000000 0.0000000 1.0000000 0.0000000 0.0000000 1.0000000 0.0000000 0.0000000 1.0000000 0.0000000 0.0000000 1.0000000 0.0000000 0.0000000 1.0000000 0.0000000 0.0000000 1.0000000 0.0000000 0.0000000 1.0000000 0.0000000 0.0000000 1.0000000 0.0000000 0.0000000 1.0000000 0.0000000 0.0000000 1.0000000 0.0000000 0.0000000 1.0000000 0.0000000 0.0000000 1.0000000 0.0000000 0.0000000 1.0000000 0.0000000 0.0000000 1.0000000 0.0000000 0.0000000 1.0000000 1.0000000 0.0000000 0.0000000 1.0000000 0.0000000 0.0000000 1.0000000 0.0000000 0.0000000 1.0000000 0.0000000 0.0000000 -1.0000000 0.0000000 0.0000000 -1.0000000 0.0000000 0.0000000 -1.0000000 0.0000000 0.0000000 -1.0000000 0.0000000 0.0000000 0.0000000 1.0000000 0.0000000 0.0000000 1.0000000 0.0000000 0.0000000 1.0000000 0.0000000 0.0000000 1.0000000 0.0000000 0.0000000 -1.0000000 0.0000000 0.0000000 -1.0000000 0.0000000 0.0000000 -1.0000000 0.0000000 0.0000000 -1.0000000 0.0000000 0.0000000 0.0000000 1.0000000 0.0000000 0.0000000 1.0000000 0.0000000 0.0000000 1.0000000 0.0000000 0.0000000 1.0000000 0.0000000 0.0000000 -1.0000000 0.0000000 0.0000000 -1.0000000 0.0000000 0.0000000 -1.0000000 0.0000000 0.0000000 -1.0000000 1.0000000 0.0000000 0.0000000 0.5000000 0.8660254 0.0000000 0.5000000 0.8660254 0.0000000 1.0000000 0.0000000 0.0000000 0.5000000 0.8660254 0.0000000 -0.5000000 0.8660254 0.0000000 -0.5000000 0.8660254 0.0000000 0.5000000 0.8660254 0.0000000 -0.5000000 0.8660254 0.0000000 -1.0000000 0.0000000 0.0000000 -1.0000000 0.0000000 0.0000000 -0.5000000 0.8660254 0.0000000 -1.0000000 0.0000000 0.0000000 -0.5000000 -0.8660254 0.0000000 -0.5000000 -0.8660254 0.0000000 -1.0000000 0.0000000 0.0000000 -0.5000000 -0.8660254 0.0000000 0.5000000 -0.8660254 0.0000000 0.5000000 -0.8660254 0.0000000 -0.5000000 -0.8660254 0.0000000 0.5000000 -0.8660254 0.0000000 1.0000000 -0.0000000 0.0000000 1.0000000 -0.0000000 0.0000000 0.5000000 -0.8660254 0.0000000 0.0000000 0.0000000 -1.0000000 0.0000000 0.0000000 -1.0000000 0.0000000 0.0000000 -1.0000000 0.0000000 0.0000000 -1.0000000 0.0000000 0.0000000 -1.0000000 0.0000000 0.0000000 -1.0000000 0.0000000 0.0000000 -1.0000000 0.0000000 0.0000000 1.0000000 0.0000000 0.0000000 1.0000000 0.0000000 0.0000000 1.0000000 0.0000000 0.0000000 1.0000000 0.0000000 0.0000000 1.0000000 0.0000000 0.0000000 1.0000000 0.0000000 0.0000000 1.0000000 1.0000000 0.0000000 0.0000000 0.5000000 0.8660254 0.0000000 0.5000000 0.8660254 0.0000000 1.0000000 0.0000000 0.0000000 0.5000000 0.8660254 0.0000000 -0.5000000 0.8660254 0.0000000 -0.5000000 0.8660254 0.0000000 0.5000000 0.8660254 0.0000000 -0.5000000 0.8660254 0.0000000 -1.0000000 0.0000000 0.0000000 -1.0000000 0.0000000 0.0000000 -0.5000000 0.8660254 0.0000000 -1.0000000 0.0000000 0.0000000 -0.5000000 -0.8660254 0.0000000 -0.5000000 -0.8660254 0.0000000 -1.0000000 0.0000000 0.0000000 -0.5000000 -0.8660254 0.0000000 0.5000000 -0.8660254 0.0000000 0.5000000 -0.8660254 0.0000000 -0.5000000 -0.8660254 0.0000000 0.5000000 -0.8660254 0.0000000 1.0000000 -0.0000000 0.0000000 1.0000000 -0.0000000 0.0000000 0.5000000 -0.8660254 0.0000000 0.0000000 0.0000000 -1.0000000 0.0000000 0.0000000 -1.0000000 0.0000000 0.0000000 -1.0000000 0.0000000 0.0000000 -1.0000000 0.0000000 0.0000000 -1.0000000 0.0000000 0.0000000 -1.0000000 0.0000000 0.0000000 -1.0000000 0.0000000 0.0000000 1.0000000 0.0000000 0.0000000 1.0000000 0.0000000 0.0000000 1.0000000 0.0000000 0.0000000 1.0000000 0.0000000 0.0000000 1.0000000 0.0000000 0.0000000 1.0000000 0.0000000 0.0000000 1.0000000 1.0000000 0.0000000 0.0000000 0.5000000 0.8660254 0.0000000 0.5000000 0.8660254 0.0000000 1.0000000 0.0000000 0.0000000 0.5000000 0.8660254 0.0000000 -0.5000000 0.8660254 0.0000000 -0.5000000 0.8660254 0.0000000 0.5000000 0.8660254 0.0000000 -0.5000000 0.8660254 0.0000000 -1.0000000 0.0000000 0.0000000 -1.0000000 0.0000000 0.0000000 -0.5000000 0.8660254 0.0000000 -1.0000000 0.0000000 0.0000000 -0.5000000 -0.8660254 0.0000000 -0.5000000 -0.8660254 0.0000000 -1.0000000 0.0000000 0.0000000 -0.5000000 -0.8660254 0.0000000 0.5000000 -0.8660254 0.0000000 0.5000000 -0.8660254 0.0000000 -0.5000000 -0.8660254 0.0000000 0.5000000 -0.8660254 0.0000000 1.0000000 -0.0000000 0.0000000 1.0000000 -0.0000000 0.0000000 0.5000000 -0.8660254 0.0000000 0.0000000 0.0000000 -1.0000000 0.0000000 0.0000000 -1.0000000 0.0000000 0.0000000 -1.0000000 0.0000000 0.0000000 -1.0000000 0.0000000 0.0000000 -1.0000000 0.0000000 0.0000000 -1.0000000 0.0000000 0.0000000 -1.0000000 0.0000000 0.0000000 1.0000000 0.0000000 0.0000000 1.0000000 0.0000000 0.0000000 1.0000000 0.0000000 0.0000000 1.0000000 0.0000000 0.0000000 1.0000000 0.0000000 0.0000000 1.0000000 0.0000000 0.0000000 1.0000000 1.0000000 0.0000000 0.0000000 0.5000000 0.8660254 0.0000000 0.5000000 0.8660254 0.0000000 1.0000000 0.0000000 0.0000000 0.5000000 0.8660254 0.0000000 -0.5000000 0.8660254 0.0000000 -0.5000000 0.8660254 0.0000000 0.5000000 0.8660254 0.0000000 -0.5000000 0.8660254 0.0000000 -1.0000000 0.0000000 0.0000000 -1.0000000 0.0000000 0.0000000 -0.5000000 0.8660254 0.0000000 -1.0000000 0.0000000 0.0000000 -0.5000000 -0.8660254 0.0000000 -0.5000000 -0.8660254 0.0000000 -1.0000000 0.0000000 0.0000000 -0.5000000 -0.8660254 0.0000000 0.5000000 -0.8660254 0.0000000 0.5000000 -0.8660254 0.0000000 -0.5000000 -0.8660254 0.0000000 0.5000000 -0.8660254 0.0000000 1.0000000 -0.0000000 0.0000000 1.0000000 -0.0000000 0.0000000 0.5000000 -0.8660254 0.0000000 0.0000000 0.0000000 -1.0000000 0.0000000 0.0000000 -1.0000000 0.0000000 0.0000000 -1.0000000 0.0000000 0.0000000 -1.0000000 0.0000000 0.0000000 -1.0000000 0.0000000 0.0000000 -1.0000000 0.0000000 0.0000000 -1.0000000 0.0000000 0.0000000 1.0000000 0.0000000 0.0000000 1.0000000 0.0000000 0.0000000 1.0000000 0.0000000 0.0000000 1.0000000 0.0000000 0.0000000 1.0000000 0.0000000 0.0000000 1.0000000 0.0000000 0.0000000 1.0000000 1.0000000 0.0000000 0.0000000 0.5000000 0.8660254 0.0000000 0.5000000 0.8660254 0.0000000 1.0000000 0.0000000 0.0000000 0.5000000 0.8660254 0.0000000 -0.5000000 0.8660254 0.0000000 -0.5000000 0.8660254 0.0000000 0.5000000 0.8660254 0.0000000 -0.5000000 0.8660254 0.0000000 -1.0000000 0.0000000 0.0000000 -1.0000000 0.0000000 0.0000000 -0.5000000 0.8660254 0.0000000 -1.0000000 0.0000000 0.0000000 -0.5000000 -0.8660254 0.0000000 -0.5000000 -0.8660254 0.0000000 -1.0000000 0.0000000 0.0000000 -0.5000000 -0.8660254 0.0000000 0.5000000 -0.8660254 0.0000000 0.5000000 -0.8660254 0.0000000 -0.5000000 -0.8660254 0.0000000 0.5000000 -0.8660254 0.0000000 1.0000000 -0.0000000 0.0000000 1.0000000 -0.0000000 0.0000000 0.5000000 -0.8660254 0.0000000 0.0000000 0.0000000 -1.0000000 0.0000000 0.0000000 -1.0000000 0.0000000 0.0000000 -1.0000000 0.0000000 0.0000000 -1.0000000 0.0000000 0.0000000 -1.0000000 0.0000000 0.0000000 -1.0000000 0.0000000 0.0000000 -1.0000000 0.0000000 0.0000000 1.0000000 0.0000000 0.0000000 1.0000000 0.0000000 0.0000000 1.0000000 0.0000000 0.0000000 1.0000000 0.0000000 0.0000000 1.0000000 0.0000000 0.0000000 1.0000000 0.0000000 0.0000000 1.0000000</float_array>
        <technique_common><accessor count="384" source="#Nor-arr" stride="3">
          <param name="X" type="float"/><param name="Y" type="float"/><param name="Z" type="float"/>
        </accessor></technique_common>
      </source>
      <vertices id="Vert">
        <input semantic="POSITION" source="#Pos"/>
        <input semantic="NORMAL" source="#Nor"/>
      </vertices>
      <triangles count="252" material="Mat">
        <input offset="0" semantic="VERTEX" source="#Vert"/>
        <p>0 1 2 0 2 3 4 5 6 4 6 7 8 9 10 8 10 11 12 13 14 12 14 15 16 17 18 16 18 19 20 21 22 20 22 23 24 25 26 24 26 27 28 29 30 28 30 31 32 33 34 32 34 35 36 37 38 36 38 39 40 41 42 40 42 43 44 45 46 44 46 47 48 49 50 48 50 51 52 53 54 52 54 55 56 57 58 56 58 59 60 61 62 60 62 63 64 65 66 64 66 67 68 69 70 68 70 71 72 73 74 72 74 75 76 77 78 76 78 79 80 81 82 80 82 83 84 85 86 84 86 87 88 89 90 88 90 91 92 93 94 92 94 95 96 98 97 96 99 98 96 100 99 96 101 100 96 102 101 96 103 102 96 104 103 96 105 104 96 106 105 96 107 106 96 108 107 96 109 108 96 110 109 96 111 110 96 112 111 96 113 112 96 114 113 96 97 114 115 116 117 115 117 118 115 118 119 115 119 120 115 120 121 115 121 122 115 122 123 115 123 124 115 124 125 115 125 126 115 126 127 115 127 128 115 128 129 115 129 130 115 130 131 115 131 132 115 132 133 115 133 116 134 135 137 134 137 136 136 137 139 136 139 138 138 139 141 138 141 140 140 141 143 140 143 142 142 143 145 142 145 144 144 145 147 144 147 146 146 147 149 146 149 148 148 149 151 148 151 150 150 151 153 150 153 152 152 153 155 152 155 154 154 155 157 154 157 156 156 157 159 156 159 158 158 159 161 158 161 160 160 161 163 160 163 162 162 163 165 162 165 164 164 165 167 164 167 166 166 167 169 166 169 168 168 169 135 168 135 134 170 171 172 170 172 173 174 175 176 174 176 177 178 179 180 178 180 181 182 183 184 182 184 185 186 187 188 186 188 189 190 191 192 190 192 193 194 195 196 194 196 197 198 199 200 198 200 201 202 203 204 202 204 205 206 207 208 206 208 209 210 211 212 210 212 213 214 215 216 214 216 217 218 220 219 218 221 220 218 222 221 218 223 222 218 224 223 218 219 224 225 226 227 225 227 228 225 228 229 225 229 230 225 230 231 225 231 226 232 233 234 232 234 235 236 237 238 236 238 239 240 241 242 240 242 243 244 245 246 244 246 247 248 249 250 248 250 251 252 253 254 252 254 255 256 258 257 256 259 258 256 260 259 256 261 260 256 262 261 256 257 262 263 264 265 263 265 266 263 266 267 263 267 268 263 268 269 263 269 264 270 271 272 270 272 273 274 275 276 274 276 277 278 279 280 278 280 281 282 283 284 282 284 285 286 287 288 286 288 289 290 291 292 290 292 293 294 296 295 294 297 296 294 298 297 294 299 298 294 300 299 294 295 300 301 302 303 301 303 304 301 304 305 301 305 306 301 306 307 301 307 302 308 309 310 308 310 311 312 313 314 312 314 315 316 317 318 316 318 319 320 321 322 320 322 323 324 325 326 324 326 327 328 329 330 328 330 331 332 334 333 332 335 334 332 336 335 332 337 336 332 338 337 332 333 338 339 340 341 339 341 342 339 342 343 339 343 344 339 344 345 339 345 340 346 347 348 346 348 349 350 351 352 350 352 353 354 355 356 354 356 357 358 359 360 358 360 361 362 363 364 362 364 365 366 367 368 366 368 369 370 372 371 370 373 372 370 374 373 370 375 374 370 376 375 370 371 376 377 378 379 377 379 380 377 380 381 377 381 382 377 382 383 377 383 378</p>
      </triangles>
    </mesh></geometry>
  </library_geometries>
  <library_visual_scenes>
    <visual_scene id="Scene">
      <node id="Node" type="NODE">
        <instance_geometry url="#Geom">
          <bind_material><technique_common>
            <instance_material symbol="Mat" target="#Mat"/>
          </technique_common></bind_material>
        </instance_geometry>
      </node>
    </visual_scene>
  </library_visual_scenes>
  <scene><instance_visual_scene url="#Scene"/></scene>
</COLLADA>