<?xml version="1.0" encoding="UTF-8" standalone="no" ?>
<COLLADA version="1.4.1" xmlns="http://www.collada.org/2005/11/COLLADASchema">
  <asset>
    <created>2024-01-01T00:00:00</created><modified>2024-01-01T00:00:00</modified>
    <unit meter="1" name="meters"/><up_axis>Z_UP</up_axis>
  </asset>
  <library_materials>
    <material id="Mat" name="Mat"><instance_effect url="#Mat-fx"/></material>
  </library_materials>
  <library_effects>
    <effect id="Mat-fx"><profile_COMMON><technique sid="COMMON"><phong>
      <emission><color>0 0 0 1</color></emission>
      <ambient><color>0.0144 0.0756 0.0216 1</color></ambient>
      <diffuse><color>0.0800 0.4200 0.1200 1.0000</color></diffuse>
      <specular><color>0.35 0.35 0.35 1</color></specular>
      <shininess><float>65</float></shininess>
      <transparent opaque="A_ONE"><color>1 1 1 1</color></transparent>
      <transparency><float>1</float></transparency>
    </phong></technique></profile_COMMON></effect>
  </library_effects>
  <library_geometries>
    <geometry id="Geom"><mesh>
      <source id="Pos">
        <float_array count="360" id="Pos-arr">0.0100000 -0.0100000 -0.0049500 0.0100000 0.0100000 -0.0049500 0.0100000 0.0100000 -0.0004500 0.0100000 -0.0100000 -0.0004500 -0.0100000 0.0100000 -0.0049500 -0.0100000 -0.0100000 -0.0049500 -0.0100000 -0.0100000 -0.0004500 -0.0100000 0.0100000 -0.0004500 0.0100000 0.0100000 -0.0049500 -0.0100000 0.0100000 -0.0049500 -0.0100000 0.0100000 -0.0004500 0.0100000 0.0100000 -0.0004500 -0.0100000 -0.0100000 -0.0049500 0.0100000 -0.0100000 -0.0049500 0.0100000 -0.0100000 -0.0004500 -0.0100000 -0.0100000 -0.0004500 -0.0100000 -0.0100000 -0.0004500 0.0100000 -0.0100000 -0.0004500 0.0100000 0.0100000 -0.0004500 -0.0100000 0.0100000 -0.0004500 0.0100000 -0.0100000 -0.0049500 -0.0100000 -0.0100000 -0.0049500 -0.0100000 0.0100000 -0.0049500 0.0100000 0.0100000 -0.0049500 0.0040000 -0.0040000 -0.0011000 0.0040000 0.0040000 -0.0011000 0.0040000 0.0040000 0.0029000 0.0040000 -0.0040000 0.0029000 -0.0040000 0.0040000 -0.0011000 -0.0040000 -0.0040000 -0.0011000 -0.0040000 -0.0040000 0.0029000 -0.0040000 0.0040000 0.0029000 0.0040000 0.0040000 -0.0011000 -0.0040000 0.0040000 -0.0011000 -0.0040000 0.0040000 0.0029000 0.0040000 0.0040000 0.0029000 -0.0040000 -0.0040000 -0.0011000 0.0040000 -0.0040000 -0.0011000 0.0040000 -0.0040000 0.0029000 -0.0040000 -0.0040000 0.0029000 -0.0040000 -0.0040000 0.0029000 0.0040000 -0.0040000 0.0029000 0.0040000 0.0040000 0.0029000 -0.0040000 0.0040000 0.0029000 0.0040000 -0.0040000 -0.0011000 -0.0040000 -0.0040000 -0.0011000 -0.0040000 0.0040000 -0.0011000 0.0040000 0.0040000 -0.0011000 0.0085000 0.0025000 -0.0003000 0.0085000 0.0055000 -0.0003000 0.0085000 0.0055000 0.0027000 0.0085000 0.0025000 0.0027000 0.0055000 0.0055000 -0.0003000 0.0055000 0.0025000 -0.0003000 0.0055000 0.0025000 0.0027000 0.0055000 0.0055000 0.0027000 0.0085000 0.0055000 -0.0003000 0.0055000 0.0055000 -0.0003000 0.0055000 0.0055000 0.0027000 0.0085000 0.0055000 0.0027000 0.0055000 0.0025000 -0.0003000 0.0085000 0.0025000 -0.0003000 0.0085000 0.0025000 0.0027000 0.0055000 0.0025000 0.0027000 0.0055000 0.0025000 0.0027000 0.0085000 0.0025000 0.0027000 0.0085000 0.0055000 0.0027000 0.0055000 0.0055000 0.0027000 0.0085000 0.0025000 -0.0003000 0.0055000 0.0025000 -0.0003000 0.0055000 0.0055000 -0.0003000 0.0085000 0.0055000 -0.0003000 0.0085000 -0.0055000 -0.0003000 0.0085000 -0.0025000 -0.0003000 0.0085000 -0.0025000 0.0027000 0.0085000 -0.0055000 0.0027000 0.0055000 -0.0025000 -0.0003000 0.0055000 -0.0055000 -0.0003000 0.0055000 -0.0055000 0.0027000 0.0055000 -0.0025000 0.0027000 0.0085000 -0.0025000 -0.0003000 0.0055000 -0.0025000 -0.0003000 0.0055000 -0.0025000 0.0027000 0.0085000 -0.0025000 0.0027000 0.0055000 -0.0055000 -0.0003000 0.0085000 -0.0055000 -0.0003000 0.0085000 -0.0055000 0.0027000 0.0055000 -0.0055000 0.0027000 0.0055000 -0.0055000 0.0027000 0.0085000 -0.0055000 0.0027000 0.0085000 -0.0025000 0.0027000 0.0055000 -0.0025000 0.0027000 0.0085000 -0.0055000 -0.0003000 0.0055000 -0.0055000 -0.0003000 0.0055000 -0.0025000 -0.0003000 0.0085000 -0.0025000 -0.0003000 0.0120000 -0.0100000 -0.0035000 0.0120000 0.0100000 -0.0035000 0.0120000 0.0100000 -0.0005000 0.0120000 -0.0100000 -0.0005000 0.0100000 0.0100000 -0.0035000 0.0100000 -0.0100000 -0.0035000 0.0100000 -0.0100000 -0.0005000 0.0100000 0.0100000 -0.0005000 0.0120000 0.0100000 -0.0035000 0.0100000 0.0100000 -0.0035000 0.0100000 0.0100000 -0.0005000 0.0120000 0.0100000 -0.0005000 0.0100000 -0.0100000 -0.0035000 0.0120000 -0.0100000 -0.0035000 0.0120000 -0.0100000 -0.0005000 0.0100000 -0.0100000 -0.0005000 0.0100000 -0.0100000 -0.0005000 0.0120000 -0.0100000 -0.0005000 0.0120000 0.0100000 -0.0005000 0.0100000 0.0100000 -0.0005000 0.0120000 -0.0100000 -0.0035000 0.0100000 -0.0100000 -0.0035000 0.0100000 0.0100000 -0.0035000 0.0120000 0.0100000 -0.0035000</float_array>
        <technique_common><accessor count="120" source="#Pos-arr" stride="3">
          <param name="X" type="float"/><param name="Y" type="float"/><param name="Z" type="float"/>
        </accessor></technique_common>
      </source>
      <source id="Nor">
        <float_array count="360" id="Nor-arr">1.0000000 0.0000000 0.0000000 1.0000000 0.0000000 0.0000000 1.0000000 0.0000000 0.0000000 1.0000000 0.0000000 0.0000000 -1.0000000 0.0000000 0.0000000 -1.0000000 0.0000000 0.0000000 -1.0000000 0.0000000 0.0000000 -1.0000000 0.0000000 0.0000000 0.0000000 1.0000000 0.0000000 0.0000000 1.0000000 0.0000000 0.0000000 1.0000000 0.0000000 0.0000000 1.0000000 0.0000000 0.0000000 -1.0000000 0.0000000 0.0000000 -1.0000000 0.0000000 0.0000000 -1.0000000 0.0000000 0.0000000 -1.0000000 0.0000000 0.0000000 0.0000000 1.0000000 0.0000000 0.0000000 1.0000000 0.0000000 0.0000000 1.0000000 0.0000000 0.0000000 1.0000000 0.0000000 0.0000000 -1.0000000 0.0000000 0.0000000 -1.0000000 0.0000000 0.0000000 -1.0000000 0.0000000 0.0000000 -1.0000000 1.0000000 0.0000000 0.0000000 1.0000000 0.0000000 0.0000000 1.0000000 0.0000000 0.0000000 1.0000000 0.0000000 0.0000000 -1.0000000 0.0000000 0.0000000 -1.0000000 0.0000000 0.0000000 -1.0000000 0.0000000 0.0000000 -1.0000000 0.0000000 0.0000000 0.0000000 1.0000000 0.0000000 0.0000000 1.0000000 0.0000000 0.0000000 1.0000000 0.0000000 0.0000000 1.0000000 0.0000000 0.0000000 -1.0000000 0.0000000 0.0000000 -1.0000000 0.0000000 0.0000000 -1.0000000 0.0000000 0.0000000 -1.0000000 0.0000000 0.0000000 0.0000000 1.0000000 0.0000000 0.0000000 1.0000000 0.0000000 0.0000000 1.0000000 0.0000000 0.0000000 1.0000000 0.0000000 0.0000000 -1.0000000 0.0000000 0.0000000 -1.0000000 0.0000000 0.0000000 -1.0000000 0.0000000 0.0000000 -1.0000000 1.0000000 0.0000000 0.0000000 1.0000000 0.0000000 0.0000000 1.0000000 0.0000000 0.0000000 1.0000000 0.0000000 0.0000000 -1.0000000 0.0000000 0.0000000 -1.0000000 0.0000000 0.0000000 -1.0000000 0.0000000 0.0000000 -1.0000000 0.0000000 0.0000000 0.0000000 1.0000000 0.0000000 0.0000000 1.0000000 0.0000000 0.0000000 1.0000000 0.0000000 0.0000000 1.0000000 0.0000000 0.0000000 -1.0000000 0.0000000 0.0000000 -1.0000000 0.0000000 0.0000000 -1.0000000 0.0000000 0.0000000 -1.0000000 0.0000000 0.0000000 0.0000000 1.0000000 0.0000000 0.0000000 1.0000000 0.0000000 0.0000000 1.0000000 0.0000000 0.0000000 1.0000000 0.0000000 0.0000000 -1.0000000 0.0000000 0.0000000 -1.0000000 0.0000000 0.0000000 -1.0000000 0.0000000 0.0000000 -1.0000000 1.0000000 0.0000000 0.0000000 1.0000000 0.0000000 0.0000000 1.0000000 0.0000000 0.0000000 1.0000000 0.0000000 0.0000000 -1.0000000 0.0000000 0.0000000 -1.0000000 0.0000000 0.0000000 -1.0000000 0.0000000 0.0000000 -1.0000000 0.0000000 0.0000000 0.0000000 1.0000000 0.0000000 0.0000000 1.0000000 0.0000000 0.0000000 1.0000000 0.0000000 0.0000000 1.0000000 0.0000000 0.0000000 -1.0000000 0.0000000 0.0000000 -1.0000000 0.0000000 0.0000000 -1.0000000 0.0000000 0.0000000 -1.0000000 0.0000000 0.0000000 0.0000000 1.0000000 0.0000000 0.0000000 1.0000000 0.0000000 0.0000000 1.0000000 0.0000000 0.0000000 1.0000000 0.0000000 0.0000000 -1.0000000 0.0000000 0.0000000 -1.0000000 0.0000000 0.0000000 -1.0000000 0.0000000 0.0000000 -1.0000000 1.0000000 0.0000000 0.0000000 1.0000000 0.0000000 0.0000000 1.0000000 0.0000000 0.0000000 1.0000000 0.0000000 0.0000000 -1.0000000 0.0000000 0.0000000 -1.0000000 0.0000000 0.0000000 -1.0000000 0.0000000 0.0000000 -1.0000000 0.0000000 0.0000000 0.0000000 1.0000000 0.0000000 0.0000000 1.0000000 0.0000000 0.0000000 1.0000000 0.0000000 0.0000000 1.0000000 0.0000000 0.0000000 -1.0000000 0.0000000 0.0000000 -1.0000000 0.0000000 0.0000000 -1.0000000 0.0000000 0.0000000 -1.0000000 0.0000000 0.0000000 0.0000000 1.0000000 0.0000000 0.0000000 1.0000000 0.0000000 0.0000000 1.0000000 0.0000000 0.0000000 1.0000000 0.0000000 0.0000000 -1.0000000 0.0000000 0.0000000 -1.0000000 0.0000000 0.0000000 -1.0000000 0.0000000 0.0000000 -1.0000000</float_array>
        <technique_common><accessor count="120" source="#Nor-arr" stride="3">
          <param name="X" type="float"/><param name="Y" type="float"/><param name="Z" type="float"/>
        </accessor></technique_common>
      </source>
      <vertices id="Vert">
        <input semantic="POSITION" source="#Pos"/>
        <input semantic="NORMAL" source="#Nor"/>
      </vertices>
      <triangles count="60" material="Mat">
        <input offset="0" semantic="VERTEX" source="#Vert"/>
        <p>0 1 2 0 2 3 4 5 6 4 6 7 8 9 10 8 10 11 12 13 14 12 14 15 16 17 18 16 18 19 20 21 22 20 22 23 24 25 26 24 26 27 28 29 30 28 30 31 32 33 34 32 34 35 36 37 38 36 38 39 40 41 42 40 42 43 44 45 46 44 46 47 48 49 50 48 50 51 52 53 54 52 54 55 56 57 58 56 58 59 60 61 62 60 62 63 64 65 66 64 66 67 68 69 70 68 70 71 72 73 74 72 74 75 76 77 78 76 78 79 80 81 82 80 82 83 84 85 86 84 86 87 88 89 90 88 90 91 92 93 94 92 94 95 96 97 98 96 98 99 100 101 102 100 102 103 104 105 106 104 106 107 108 109 110 108 110 111 112 113 114 112 114 115 116 117 118 116 118 119</p>
      </triangles>
    </mesh></geometry>
  </library_geometries>
  <library_visual_scenes>
    <visual_scene id="Scene">
      <node id="Node" type="NODE">
        <instance_geometry url="#Geom">
          <bind_material><technique_common>
            <instance_material symbol="Mat" target="#Mat"/>
          </technique_common></bind_material>
        </instance_geometry>
      </node>
    </visual_scene>
  </library_visual_scenes>
  <scene><instance_visual_scene url="#Scene"/></scene>
</COLLADA>