<?xml version="1.0" encoding="UTF-8" standalone="no" ?>
<COLLADA version="1.4.1" xmlns="http://www.collada.org/2005/11/COLLADASchema">
  <asset>
    <created>2024-01-01T00:00:00</created><modified>2024-01-01T00:00:00</modified>
    <unit meter="1" name="meters"/><up_axis>Z_UP</up_axis>
  </asset>
  <library_materials>
    <material id="Mat" name="Mat"><instance_effect url="#Mat-fx"/></material>
  </library_materials>
  <library_effects>
    <effect id="Mat-fx"><profile_COMMON><technique sid="COMMON"><phong>
      <emission><color>0 0 0 1</color></emission>
      <ambient><color>0.0252 0.0252 0.0252 1</color></ambient>
      <diffuse><color>0.1400 0.1400 0.1400 1.0000</color></diffuse>
      <specular><color>0.35 0.35 0.35 1</color></specular>
      <shininess><float>65</float></shininess>
      <transparent opaque="A_ONE"><color>1 1 1 1</color></transparent>
      <transparency><float>1</float></transparency>
    </phong></technique></profile_COMMON></effect>
  </library_effects>
  <library_geometries>
    <geometry id="Geom"><mesh>
      <source id="Pos">
        <float_array count="2268" id="Pos-arr">0.0580000 0.0000000 -0.0300000 0.0571188 0.0100716 -0.0300000 0.0571188 0.0100716 0.0300000 0.0580000 0.0000000 0.0300000 0.0571188 0.0100716 -0.0300000 0.0545022 0.0198372 -0.0300000 0.0545022 0.0198372 0.0300000 0.0571188 0.0100716 0.0300000 0.0545022 0.0198372 -0.0300000 0.0502295 0.0290000 -0.0300000 0.0502295 0.0290000 0.0300000 0.0545022 0.0198372 0.0300000 0.0502295 0.0290000 -0.0300000 0.0444306 0.0372817 -0.0300000 0.0444306 0.0372817 0.0300000 0.0502295 0.0290000 0.0300000 0.0444306 0.0372817 -0.0300000 0.0372817 0.0444306 -0.0300000 0.0372817 0.0444306 0.0300000 0.0444306 0.0372817 0.0300000 0.0372817 0.0444306 -0.0300000 0.0290000 0.0502295 -0.0300000 0.0290000 0.0502295 0.0300000 0.0372817 0.0444306 0.0300000 0.0290000 0.0502295 -0.0300000 0.0198372 0.0545022 -0.0300000 0.0198372 0.0545022 0.0300000 0.0290000 0.0502295 0.0300000 0.0198372 0.0545022 -0.0300000 0.0100716 0.0571188 -0.0300000 0.0100716 0.0571188 0.0300000 0.0198372 0.0545022 0.0300000 0.0100716 0.0571188 -0.0300000 0.0000000 0.0580000 -0.0300000 0.0000000 0.0580000 0.0300000 0.0100716 0.0571188 0.0300000 0.0000000 0.0580000 -0.0300000 -0.0100716 0.0571188 -0.0300000 -0.0100716 0.0571188 0.0300000 0.0000000 0.0580000 0.0300000 -0.0100716 0.0571188 -0.0300000 -0.0198372 0.0545022 -0.0300000 -0.0198372 0.0545022 0.0300000 -0.0100716 0.0571188 0.0300000 -0.0198372 0.0545022 -0.0300000 -0.0290000 0.0502295 -0.0300000 -0.0290000 0.0502295 0.0300000 -0.0198372 0.0545022 0.0300000 -0.0290000 0.0502295 -0.0300000 -0.0372817 0.0444306 -0.0300000 -0.0372817 0.0444306 0.0300000 -0.0290000 0.0502295 0.0300000 -0.0372817 0.0444306 -0.0300000 -0.0444306 0.0372817 -0.0300000 -0.0444306 0.0372817 0.0300000 -0.0372817 0.0444306 0.0300000 -0.0444306 0.0372817 -0.0300000 -0.0502295 0.0290000 -0.0300000 -0.0502295 0.0290000 0.0300000 -0.0444306 0.0372817 0.0300000 -0.0502295 0.0290000 -0.0300000 -0.0545022 0.0198372 -0.0300000 -0.0545022 0.0198372 0.0300000 -0.0502295 0.0290000 0.0300000 -0.0545022 0.0198372 -0.0300000 -0.0571188 0.0100716 -0.0300000 -0.0571188 0.0100716 0.0300000 -0.0545022 0.0198372 0.0300000 -0.0571188 0.0100716 -0.0300000 -0.0580000 0.0000000 -0.0300000 -0.0580000 0.0000000 0.0300000 -0.0571188 0.0100716 0.0300000 -0.0580000 0.0000000 -0.0300000 -0.0571188 -0.0100716 -0.0300000 -0.0571188 -0.0100716 0.0300000 -0.0580000 0.0000000 0.0300000 -0.0571188 -0.0100716 -0.0300000 -0.0545022 -0.0198372 -0.0300000 -0.0545022 -0.0198372 0.0300000 -0.0571188 -0.0100716 0.0300000 -0.0545022 -0.0198372 -0.0300000 -0.0502295 -0.0290000 -0.0300000 -0.0502295 -0.0290000 0.0300000 -0.0545022 -0.0198372 0.0300000 -0.0502295 -0.0290000 -0.0300000 -0.0444306 -0.0372817 -0.0300000 -0.0444306 -0.0372817 0.0300000 -0.0502295 -0.0290000 0.0300000 -0.0444306 -0.0372817 -0.0300000 -0.0372817 -0.0444306 -0.0300000 -0.0372817 -0.0444306 0.0300000 -0.0444306 -0.0372817 0.0300000 -0.0372817 -0.0444306 -0.0300000 -0.0290000 -0.0502295 -0.0300000 -0.0290000 -0.0502295 0.0300000 -0.0372817 -0.0444306 0.0300000 -0.0290000 -0.0502295 -0.0300000 -0.0198372 -0.0545022 -0.0300000 -0.0198372 -0.0545022 0.0300000 -0.0290000 -0.0502295 0.0300000 -0.0198372 -0.0545022 -0.0300000 -0.0100716 -0.0571188 -0.0300000 -0.0100716 -0.0571188 0.0300000 -0.0198372 -0.0545022 0.0300000 -0.0100716 -0.0571188 -0.0300000 -0.0000000 -0.0580000 -0.0300000 -0.0000000 -0.0580000 0.0300000 -0.0100716 -0.0571188 0.0300000 -0.0000000 -0.0580000 -0.0300000 0.0100716 -0.0571188 -0.0300000 0.0100716 -0.0571188 0.0300000 -0.0000000 -0.0580000 0.0300000 0.0100716 -0.0571188 -0.0300000 0.0198372 -0.0545022 -0.0300000 0.0198372 -0.0545022 0.0300000 0.0100716 -0.0571188 0.0300000 0.0198372 -0.0545022 -0.0300000 0.0290000 -0.0502295 -0.0300000 0.0290000 -0.0502295 0.0300000 0.0198372 -0.0545022 0.0300000 0.0290000 -0.0502295 -0.0300000 0.0372817 -0.0444306 -0.0300000 0.0372817 -0.0444306 0.0300000 0.0290000 -0.0502295 0.0300000 0.0372817 -0.0444306 -0.0300000 0.0444306 -0.0372817 -0.0300000 0.0444306 -0.0372817 0.0300000 0.0372817 -0.0444306 0.0300000 0.0444306 -0.0372817 -0.0300000 0.0502295 -0.0290000 -0.0300000 0.0502295 -0.0290000 0.0300000 0.0444306 -0.0372817 0.0300000 0.0502295 -0.0290000 -0.0300000 0.0545022 -0.0198372 -0.0300000 0.0545022 -0.0198372 0.0300000 0.0502295 -0.0290000 0.0300000 0.0545022 -0.0198372 -0.0300000 0.0571188 -0.0100716 -0.0300000 0.0571188 -0.0100716 0.0300000 0.0545022 -0.0198372 0.0300000 0.0571188 -0.0100716 -0.0300000 0.0580000 -0.0000000 -0.0300000 0.0580000 -0.0000000 0.0300000 0.0571188 -0.0100716 0.0300000 0.0000000 0.0000000 -0.0300000 0.0580000 0.0000000 -0.0300000 0.0571188 0.0100716 -0.0300000 0.0545022 0.0198372 -0.0300000 0.0502295 0.0290000 -0.0300000 0.0444306 0.0372817 -0.0300000 0.0372817 0.0444306 -0.0300000 0.0290000 0.0502295 -0.0300000 0.0198372 0.0545022 -0.0300000 0.0100716 0.0571188 -0.0300000 0.0000000 0.0580000 -0.0300000 -0.0100716 0.0571188 -0.0300000 -0.0198372 0.0545022 -0.0300000 -0.0290000 0.0502295 -0.0300000 -0.0372817 0.0444306 -0.0300000 -0.0444306 0.0372817 -0.0300000 -0.0502295 0.0290000 -0.0300000 -0.0545022 0.0198372 -0.0300000 -0.0571188 0.0100716 -0.0300000 -0.0580000 0.0000000 -0.0300000 -0.0571188 -0.0100716 -0.0300000 -0.0545022 -0.0198372 -0.0300000 -0.0502295 -0.0290000 -0.0300000 -0.0444306 -0.0372817 -0.0300000 -0.0372817 -0.0444306 -0.0300000 -0.0290000 -0.0502295 -0.0300000 -0.0198372 -0.0545022 -0.0300000 -0.0100716 -0.0571188 -0.0300000 -0.0000000 -0.0580000 -0.0300000 0.0100716 -0.0571188 -0.0300000 0.0198372 -0.0545022 -0.0300000 0.0290000 -0.0502295 -0.0300000 0.0372817 -0.0444306 -0.0300000 0.0444306 -0.0372817 -0.0300000 0.0502295 -0.0290000 -0.0300000 0.0545022 -0.0198372 -0.0300000 0.0571188 -0.0100716 -0.0300000 0.0000000 0.0000000 0.0300000 0.0580000 0.0000000 0.0300000 0.0571188 0.0100716 0.0300000 0.0545022 0.0198372 0.0300000 0.0502295 0.0290000 0.0300000 0.0444306 0.0372817 0.0300000 0.0372817 0.0444306 0.0300000 0.0290000 0.0502295 0.0300000 0.0198372 0.0545022 0.0300000 0.0100716 0.0571188 0.0300000 0.0000000 0.0580000 0.0300000 -0.0100716 0.0571188 0.0300000 -0.0198372 0.0545022 0.0300000 -0.0290000 0.0502295 0.0300000 -0.0372817 0.0444306 0.0300000 -0.0444306 0.0372817 0.0300000 -0.0502295 0.0290000 0.0300000 -0.0545022 0.0198372 0.0300000 -0.0571188 0.0100716 0.0300000 -0.0580000 0.0000000 0.0300000 -0.0571188 -0.0100716 0.0300000 -0.0545022 -0.0198372 0.0300000 -0.0502295 -0.0290000 0.0300000 -0.0444306 -0.0372817 0.0300000 -0.0372817 -0.0444306 0.0300000 -0.0290000 -0.0502295 0.0300000 -0.0198372 -0.0545022 0.0300000 -0.0100716 -0.0571188 0.0300000 -0.0000000 -0.0580000 0.0300000 0.0100716 -0.0571188 0.0300000 0.0198372 -0.0545022 0.0300000 0.0290000 -0.0502295 0.0300000 0.0372817 -0.0444306 0.0300000 0.0444306 -0.0372817 0.0300000 0.0502295 -0.0290000 0.0300000 0.0545022 -0.0198372 0.0300000 0.0571188 -0.0100716 0.0300000 0.0500000 0.0000000 0.0300000 0.0490393 0.0097545 0.0300000 0.0490393 0.0097545 0.0520000 0.0500000 0.0000000 0.0520000 0.0490393 0.0097545 0.0300000 0.0461940 0.0191342 0.0300000 0.0461940 0.0191342 0.0520000 0.0490393 0.0097545 0.0520000 0.0461940 0.0191342 0.0300000 0.0415735 0.0277785 0.0300000 0.0415735 0.0277785 0.0520000 0.0461940 0.0191342 0.0520000 0.0415735 0.0277785 0.0300000 0.0353553 0.0353553 0.0300000 0.0353553 0.0353553 0.0520000 0.0415735 0.0277785 0.0520000 0.0353553 0.0353553 0.0300000 0.0277785 0.0415735 0.0300000 0.0277785 0.0415735 0.0520000 0.0353553 0.0353553 0.0520000 0.0277785 0.0415735 0.0300000 0.0191342 0.0461940 0.0300000 0.0191342 0.0461940 0.0520000 0.0277785 0.0415735 0.0520000 0.0191342 0.0461940 0.0300000 0.0097545 0.0490393 0.0300000 0.0097545 0.0490393 0.0520000 0.0191342 0.0461940 0.0520000 0.0097545 0.0490393 0.0300000 0.0000000 0.0500000 0.0300000 0.0000000 0.0500000 0.0520000 0.0097545 0.0490393 0.0520000 0.0000000 0.0500000 0.0300000 -0.0097545 0.0490393 0.0300000 -0.0097545 0.0490393 0.0520000 0.0000000 0.0500000 0.0520000 -0.0097545 0.0490393 0.0300000 -0.0191342 0.0461940 0.0300000 -0.0191342 0.0461940 0.0520000 -0.0097545 0.0490393 0.0520000 -0.0191342 0.0461940 0.0300000 -0.0277785 0.0415735 0.0300000 -0.0277785 0.0415735 0.0520000 -0.0191342 0.0461940 0.0520000 -0.0277785 0.0415735 0.0300000 -0.0353553 0.0353553 0.0300000 -0.0353553 0.0353553 0.0520000 -0.0277785 0.0415735 0.0520000 -0.0353553 0.0353553 0.0300000 -0.0415735 0.0277785 0.0300000 -0.0415735 0.0277785 0.0520000 -0.0353553 0.0353553 0.0520000 -0.0415735 0.0277785 0.0300000 -0.0461940 0.0191342 0.0300000 -0.0461940 0.0191342 0.0520000 -0.0415735 0.0277785 0.0520000 -0.0461940 0.0191342 0.0300000 -0.0490393 0.0097545 0.0300000 -0.0490393 0.0097545 0.0520000 -0.0461940 0.0191342 0.0520000 -0.0490393 0.0097545 0.0300000 -0.0500000 0.0000000 0.0300000 -0.0500000 0.0000000 0.0520000 -0.0490393 0.0097545 0.0520000 -0.0500000 0.0000000 0.0300000 -0.0490393 -0.0097545 0.0300000 -0.0490393 -0.0097545 0.0520000 -0.0500000 0.0000000 0.0520000 -0.0490393 -0.0097545 0.0300000 -0.0461940 -0.0191342 0.0300000 -0.0461940 -0.0191342 0.0520000 -0.0490393 -0.0097545 0.0520000 -0.0461940 -0.0191342 0.0300000 -0.0415735 -0.0277785 0.0300000 -0.0415735 -0.0277785 0.0520000 -0.0461940 -0.0191342 0.0520000 -0.0415735 -0.0277785 0.0300000 -0.0353553 -0.0353553 0.0300000 -0.0353553 -0.0353553 0.0520000 -0.0415735 -0.0277785 0.0520000 -0.0353553 -0.0353553 0.0300000 -0.0277785 -0.0415735 0.0300000 -0.0277785 -0.0415735 0.0520000 -0.0353553 -0.0353553 0.0520000 -0.0277785 -0.0415735 0.0300000 -0.0191342 -0.0461940 0.0300000 -0.0191342 -0.0461940 0.0520000 -0.0277785 -0.0415735 0.0520000 -0.0191342 -0.0461940 0.0300000 -0.0097545 -0.0490393 0.0300000 -0.0097545 -0.0490393 0.0520000 -0.0191342 -0.0461940 0.0520000 -0.0097545 -0.0490393 0.0300000 -0.0000000 -0.0500000 0.0300000 -0.0000000 -0.0500000 0.0520000 -0.0097545 -0.0490393 0.0520000 -0.0000000 -0.0500000 0.0300000 0.0097545 -0.0490393 0.0300000 0.0097545 -0.0490393 0.0520000 -0.0000000 -0.0500000 0.0520000 0.0097545 -0.0490393 0.0300000 0.0191342 -0.0461940 0.0300000 0.0191342 -0.0461940 0.0520000 0.0097545 -0.0490393 0.0520000 0.0191342 -0.0461940 0.0300000 0.0277785 -0.0415735 0.0300000 0.0277785 -0.0415735 0.0520000 0.0191342 -0.0461940 0.0520000 0.0277785 -0.0415735 0.0300000 0.0353553 -0.0353553 0.0300000 0.0353553 -0.0353553 0.0520000 0.0277785 -0.0415735 0.0520000 0.0353553 -0.0353553 0.0300000 0.0415735 -0.0277785 0.0300000 0.0415735 -0.0277785 0.0520000 0.0353553 -0.0353553 0.0520000 0.0415735 -0.0277785 0.0300000 0.0461940 -0.0191342 0.0300000 0.0461940 -0.0191342 0.0520000 0.0415735 -0.0277785 0.0520000 0.0461940 -0.0191342 0.0300000 0.0490393 -0.0097545 0.0300000 0.0490393 -0.0097545 0.0520000 0.0461940 -0.0191342 0.0520000 0.0490393 -0.0097545 0.0300000 0.0500000 -0.0000000 0.0300000 0.0500000 -0.0000000 0.0520000 0.0490393 -0.0097545 0.0520000 0.0000000 0.0000000 0.0300000 0.0500000 0.0000000 0.0300000 0.0490393 0.0097545 0.0300000 0.0461940 0.0191342 0.0300000 0.0415735 0.0277785 0.0300000 0.0353553 0.0353553 0.0300000 0.0277785 0.0415735 0.0300000 0.0191342 0.0461940 0.0300000 0.0097545 0.0490393 0.0300000 0.0000000 0.0500000 0.0300000 -0.0097545 0.0490393 0.0300000 -0.0191342 0.0461940 0.0300000 -0.0277785 0.0415735 0.0300000 -0.0353553 0.0353553 0.0300000 -0.0415735 0.0277785 0.0300000 -0.0461940 0.0191342 0.0300000 -0.0490393 0.0097545 0.0300000 -0.0500000 0.0000000 0.0300000 -0.0490393 -0.0097545 0.0300000 -0.0461940 -0.0191342 0.0300000 -0.0415735 -0.0277785 0.0300000 -0.0353553 -0.0353553 0.0300000 -0.0277785 -0.0415735 0.0300000 -0.0191342 -0.0461940 0.0300000 -0.0097545 -0.0490393 0.0300000 -0.0000000 -0.0500000 0.0300000 0.0097545 -0.0490393 0.0300000 0.0191342 -0.0461940 0.0300000 0.0277785 -0.0415735 0.0300000 0.0353553 -0.0353553 0.0300000 0.0415735 -0.0277785 0.0300000 0.0461940 -0.0191342 0.0300000 0.0490393 -0.0097545 0.0300000 0.0000000 0.0000000 0.0520000 0.0500000 0.0000000 0.0520000 0.0490393 0.0097545 0.0520000 0.0461940 0.0191342 0.0520000 0.0415735 0.0277785 0.0520000 0.0353553 0.0353553 0.0520000 0.0277785 0.0415735 0.0520000 0.0191342 0.0461940 0.0520000 0.0097545 0.0490393 0.0520000 0.0000000 0.0500000 0.0520000 -0.0097545 0.0490393 0.0520000 -0.0191342 0.0461940 0.0520000 -0.0277785 0.0415735 0.0520000 -0.0353553 0.0353553 0.0520000 -0.0415735 0.0277785 0.0520000 -0.0461940 0.0191342 0.0520000 -0.0490393 0.0097545 0.0520000 -0.0500000 0.0000000 0.0520000 -0.0490393 -0.0097545 0.0520000 -0.0461940 -0.0191342 0.0520000 -0.0415735 -0.0277785 0.0520000 -0.0353553 -0.0353553 0.0520000 -0.0277785 -0.0415735 0.0520000 -0.0191342 -0.0461940 0.0520000 -0.0097545 -0.0490393 0.0520000 -0.0000000 -0.0500000 0.0520000 0.0097545 -0.0490393 0.0520000 0.0191342 -0.0461940 0.0520000 0.0277785 -0.0415735 0.0520000 0.0353553 -0.0353553 0.0520000 0.0415735 -0.0277785 0.0520000 0.0461940 -0.0191342 0.0520000 0.0490393 -0.0097545 0.0520000 0.0500000 0.0000000 0.0300000 0.0580000 0.0000000 0.0300000 0.0492404 0.0086824 0.0300000 0.0571188 0.0100716 0.0300000 0.0469846 0.0171010 0.0300000 0.0545022 0.0198372 0.0300000 0.0433013 0.0250000 0.0300000 0.0502295 0.0290000 0.0300000 0.0383022 0.0321394 0.0300000 0.0444306 0.0372817 0.0300000 0.0321394 0.0383022 0.0300000 0.0372817 0.0444306 0.0300000 0.0250000 0.0433013 0.0300000 0.0290000 0.0502295 0.0300000 0.0171010 0.0469846 0.0300000 0.0198372 0.0545022 0.0300000 0.0086824 0.0492404 0.0300000 0.0100716 0.0571188 0.0300000 0.0000000 0.0500000 0.0300000 0.0000000 0.0580000 0.0300000 -0.0086824 0.0492404 0.0300000 -0.0100716 0.0571188 0.0300000 -0.0171010 0.0469846 0.0300000 -0.0198372 0.0545022 0.0300000 -0.0250000 0.0433013 0.0300000 -0.0290000 0.0502295 0.0300000 -0.0321394 0.0383022 0.0300000 -0.0372817 0.0444306 0.0300000 -0.0383022 0.0321394 0.0300000 -0.0444306 0.0372817 0.0300000 -0.0433013 0.0250000 0.0300000 -0.0502295 0.0290000 0.0300000 -0.0469846 0.0171010 0.0300000 -0.0545022 0.0198372 0.0300000 -0.0492404 0.0086824 0.0300000 -0.0571188 0.0100716 0.0300000 -0.0500000 0.0000000 0.0300000 -0.0580000 0.0000000 0.0300000 -0.0492404 -0.0086824 0.0300000 -0.0571188 -0.0100716 0.0300000 -0.0469846 -0.0171010 0.0300000 -0.0545022 -0.0198372 0.0300000 -0.0433013 -0.0250000 0.0300000 -0.0502295 -0.0290000 0.0300000 -0.0383022 -0.0321394 0.0300000 -0.0444306 -0.0372817 0.0300000 -0.0321394 -0.0383022 0.0300000 -0.0372817 -0.0444306 0.0300000 -0.0250000 -0.0433013 0.0300000 -0.0290000 -0.0502295 0.0300000 -0.0171010 -0.0469846 0.0300000 -0.0198372 -0.0545022 0.0300000 -0.0086824 -0.0492404 0.0300000 -0.0100716 -0.0571188 0.0300000 -0.0000000 -0.0500000 0.0300000 -0.0000000 -0.0580000 0.0300000 0.0086824 -0.0492404 0.0300000 0.0100716 -0.0571188 0.0300000 0.0171010 -0.0469846 0.0300000 0.0198372 -0.0545022 0.0300000 0.0250000 -0.0433013 0.0300000 0.0290000 -0.0502295 0.0300000 0.0321394 -0.0383022 0.0300000 0.0372817 -0.0444306 0.0300000 0.0383022 -0.0321394 0.0300000 0.0444306 -0.0372817 0.0300000 0.0433013 -0.0250000 0.0300000 0.0502295 -0.0290000 0.0300000 0.0469846 -0.0171010 0.0300000 0.0545022 -0.0198372 0.0300000 0.0492404 -0.0086824 0.0300000 0.0571188 -0.0100716 0.0300000 0.0580000 0.0000000 -0.0300000 0.0610000 0.0000000 -0.0300000 0.0571188 0.0100716 -0.0300000 0.0600733 0.0105925 -0.0300000 0.0545022 0.0198372 -0.0300000 0.0573212 0.0208632 -0.0300000 0.0502295 0.0290000 -0.0300000 0.0528275 0.0305000 -0.0300000 0.0444306 0.0372817 -0.0300000 0.0467287 0.0392100 -0.0300000 0.0372817 0.0444306 -0.0300000 0.0392100 0.0467287 -0.0300000 0.0290000 0.0502295 -0.0300000 0.0305000 0.0528275 -0.0300000 0.0198372 0.0545022 -0.0300000 0.0208632 0.0573212 -0.0300000 0.0100716 0.0571188 -0.0300000 0.0105925 0.0600733 -0.0300000 0.0000000 0.0580000 -0.0300000 0.0000000 0.0610000 -0.0300000 -0.0100716 0.0571188 -0.0300000 -0.0105925 0.0600733 -0.0300000 -0.0198372 0.0545022 -0.0300000 -0.0208632 0.0573212 -0.0300000 -0.0290000 0.0502295 -0.0300000 -0.0305000 0.0528275 -0.0300000 -0.0372817 0.0444306 -0.0300000 -0.0392100 0.0467287 -0.0300000 -0.0444306 0.0372817 -0.0300000 -0.0467287 0.0392100 -0.0300000 -0.0502295 0.0290000 -0.0300000 -0.0528275 0.0305000 -0.0300000 -0.0545022 0.0198372 -0.0300000 -0.0573212 0.0208632 -0.0300000 -0.0571188 0.0100716 -0.0300000 -0.0600733 0.0105925 -0.0300000 -0.0580000 0.0000000 -0.0300000 -0.0610000 0.0000000 -0.0300000 -0.0571188 -0.0100716 -0.0300000 -0.0600733 -0.0105925 -0.0300000 -0.0545022 -0.0198372 -0.0300000 -0.0573212 -0.0208632 -0.0300000 -0.0502295 -0.0290000 -0.0300000 -0.0528275 -0.0305000 -0.0300000 -0.0444306 -0.0372817 -0.0300000 -0.0467287 -0.0392100 -0.0300000 -0.0372817 -0.0444306 -0.0300000 -0.0392100 -0.0467287 -0.0300000 -0.0290000 -0.0502295 -0.0300000 -0.0305000 -0.0528275 -0.0300000 -0.0198372 -0.0545022 -0.0300000 -0.0208632 -0.0573212 -0.0300000 -0.0100716 -0.0571188 -0.0300000 -0.0105925 -0.0600733 -0.0300000 -0.0000000 -0.0580000 -0.0300000 -0.0000000 -0.0610000 -0.0300000 0.0100716 -0.0571188 -0.0300000 0.0105925 -0.0600733 -0.0300000 0.0198372 -0.0545022 -0.0300000 0.0208632 -0.0573212 -0.0300000 0.0290000 -0.0502295 -0.0300000 0.0305000 -0.0528275 -0.0300000 0.0372817 -0.0444306 -0.0300000 0.0392100 -0.0467287 -0.0300000 0.0444306 -0.0372817 -0.0300000 0.0467287 -0.0392100 -0.0300000 0.0502295 -0.0290000 -0.0300000 0.0528275 -0.0305000 -0.0300000 0.0545022 -0.0198372 -0.0300000 0.0573212 -0.0208632 -0.0300000 0.0571188 -0.0100716 -0.0300000 0.0600733 -0.0105925 -0.0300000 0.0710000 -0.0050000 -0.0225000 0.0710000 0.0050000 -0.0225000 0.0710000 0.0050000 -0.0135000 0.0710000 -0.0050000 -0.0135000 0.0550000 0.0050000 -0.0225000 0.0550000 -0.0050000 -0.0225000 0.0550000 -0.0050000 -0.0135000 0.0550000 0.0050000 -0.0135000 0.0710000 0.0050000 -0.0225000 0.0550000 0.0050000 -0.0225000 0.0550000 0.0050000 -0.0135000 0.0710000 0.0050000 -0.0135000 0.0550000 -0.0050000 -0.0225000 0.0710000 -0.0050000 -0.0225000 0.0710000 -0.0050000 -0.0135000 0.0550000 -0.0050000 -0.0135000 0.0550000 -0.0050000 -0.0135000 0.0710000 -0.0050000 -0.0135000 0.0710000 0.0050000 -0.0135000 0.0550000 0.0050000 -0.0135000 0.0710000 -0.0050000 -0.0225000 0.0550000 -0.0050000 -0.0225000 0.0550000 0.0050000 -0.0225000 0.0710000 0.0050000 -0.0225000 0.0720000 -0.0070000 -0.0130000 0.0720000 0.0070000 -0.0130000 0.0720000 0.0070000 -0.0070000 0.0720000 -0.0070000 -0.0070000 0.0640000 0.0070000 -0.0130000 0.0640000 -0.0070000 -0.0130000 0.0640000 -0.0070000 -0.0070000 0.0640000 0.0070000 -0.0070000 0.0720000 0.0070000 -0.0130000 0.0640000 0.0070000 -0.0130000 0.0640000 0.0070000 -0.0070000 0.0720000 0.0070000 -0.0070000 0.0640000 -0.0070000 -0.0130000 0.0720000 -0.0070000 -0.0130000 0.0720000 -0.0070000 -0.0070000 0.0640000 -0.0070000 -0.0070000 0.0640000 -0.0070000 -0.0070000 0.0720000 -0.0070000 -0.0070000 0.0720000 0.0070000 -0.0070000 0.0640000 0.0070000 -0.0070000 0.0720000 -0.0070000 -0.0130000 0.0640000 -0.0070000 -0.0130000 0.0640000 0.0070000 -0.0130000 0.0720000 0.0070000 -0.0130000 0.0485000 0.0000000 -0.0300000 0.0472500 0.0021651 -0.0300000 0.0472500 0.0021651 -0.0220000 0.0485000 0.0000000 -0.0220000 0.0472500 0.0021651 -0.0300000 0.0447500 0.0021651 -0.0300000 0.0447500 0.0021651 -0.0220000 0.0472500 0.0021651 -0.0220000 0.0447500 0.0021651 -0.0300000 0.0435000 0.0000000 -0.0300000 0.0435000 0.0000000 -0.0220000 0.0447500 0.0021651 -0.0220000 0.0435000 0.0000000 -0.0300000 0.0447500 -0.0021651 -0.0300000 0.0447500 -0.0021651 -0.0220000 0.0435000 0.0000000 -0.0220000 0.0447500 -0.0021651 -0.0300000 0.0472500 -0.0021651 -0.0300000 0.0472500 -0.0021651 -0.0220000 0.0447500 -0.0021651 -0.0220000 0.0472500 -0.0021651 -0.0300000 0.0485000 -0.0000000 -0.0300000 0.0485000 -0.0000000 -0.0220000 0.0472500 -0.0021651 -0.0220000 0.0460000 0.0000000 -0.0300000 0.0485000 0.0000000 -0.0300000 0.0472500 0.0021651 -0.0300000 0.0447500 0.0021651 -0.0300000 0.0435000 0.0000000 -0.0300000 0.0447500 -0.0021651 -0.0300000 0.0472500 -0.0021651 -0.0300000 0.0460000 0.0000000 -0.0220000 0.0485000 0.0000000 -0.0220000 0.0472500 0.0021651 -0.0220000 0.0447500 0.0021651 -0.0220000 0.0435000 0.0000000 -0.0220000 0.0447500 -0.0021651 -0.0220000 0.0472500 -0.0021651 -0.0220000 0.0025000 0.0460000 -0.0300000 0.0012500 0.0481651 -0.0300000 0.0012500 0.0481651 -0.0220000 0.0025000 0.0460000 -0.0220000 0.0012500 0.0481651 -0.0300000 -0.0012500 0.0481651 -0.0300000 -0.0012500 0.0481651 -0.0220000 0.0012500 0.0481651 -0.0220000 -0.0012500 0.0481651 -0.0300000 -0.0025000 0.0460000 -0.0300000 -0.0025000 0.0460000 -0.0220000 -0.0012500 0.0481651 -0.0220000 -0.0025000 0.0460000 -0.0300000 -0.0012500 0.0438349 -0.0300000 -0.0012500 0.0438349 -0.0220000 -0.0025000 0.0460000 -0.0220000 -0.0012500 0.0438349 -0.0300000 0.0012500 0.0438349 -0.0300000 0.0012500 0.0438349 -0.0220000 -0.0012500 0.0438349 -0.0220000 0.0012500 0.0438349 -0.0300000 0.0025000 0.0460000 -0.0300000 0.0025000 0.0460000 -0.0220000 0.0012500 0.0438349 -0.0220000 0.0000000 0.0460000 -0.0300000 0.0025000 0.0460000 -0.0300000 0.0012500 0.0481651 -0.0300000 -0.0012500 0.0481651 -0.0300000 -0.0025000 0.0460000 -0.0300000 -0.0012500 0.0438349 -0.0300000 0.0012500 0.0438349 -0.0300000 0.0000000 0.0460000 -0.0220000 0.0025000 0.0460000 -0.0220000 0.0012500 0.0481651 -0.0220000 -0.0012500 0.0481651 -0.0220000 -0.0025000 0.0460000 -0.0220000 -0.0012500 0.0438349 -0.0220000 0.0012500 0.0438349 -0.0220000 -0.0435000 0.0000000 -0.0300000 -0.0447500 0.0021651 -0.0300000 -0.0447500 0.0021651 -0.0220000 -0.0435000 0.0000000 -0.0220000 -0.0447500 0.0021651 -0.0300000 -0.0472500 0.0021651 -0.0300000 -0.0472500 0.0021651 -0.0220000 -0.0447500 0.0021651 -0.0220000 -0.0472500 0.0021651 -0.0300000 -0.0485000 0.0000000 -0.0300000 -0.0485000 0.0000000 -0.0220000 -0.0472500 0.0021651 -0.0220000 -0.0485000 0.0000000 -0.0300000 -0.0472500 -0.0021651 -0.0300000 -0.0472500 -0.0021651 -0.0220000 -0.0485000 0.0000000 -0.0220000 -0.0472500 -0.0021651 -0.0300000 -0.0447500 -0.0021651 -0.0300000 -0.0447500 -0.0021651 -0.0220000 -0.0472500 -0.0021651 -0.0220000 -0.0447500 -0.0021651 -0.0300000 -0.0435000 0.0000000 -0.0300000 -0.0435000 0.0000000 -0.0220000 -0.0447500 -0.0021651 -0.0220000 -0.0460000 0.0000000 -0.0300000 -0.0435000 0.0000000 -0.0300000 -0.0447500 0.0021651 -0.0300000 -0.0472500 0.0021651 -0.0300000 -0.0485000 0.0000000 -0.0300000 -0.0472500 -0.0021651 -0.0300000 -0.0447500 -0.0021651 -0.0300000 -0.0460000 0.0000000 -0.0220000 -0.0435000 0.0000000 -0.0220000 -0.0447500 0.0021651 -0.0220000 -0.0472500 0.0021651 -0.0220000 -0.0485000 0.0000000 -0.0220000 -0.0472500 -0.0021651 -0.0220000 -0.0447500 -0.0021651 -0.0220000 0.0025000 -0.0460000 -0.0300000 0.0012500 -0.0438349 -0.0300000 0.0012500 -0.0438349 -0.0220000 0.0025000 -0.0460000 -0.0220000 0.0012500 -0.0438349 -0.0300000 -0.0012500 -0.0438349 -0.0300000 -0.0012500 -0.0438349 -0.0220000 0.0012500 -0.0438349 -0.0220000 -0.0012500 -0.0438349 -0.0300000 -0.0025000 -0.0460000 -0.0300000 -0.0025000 -0.0460000 -0.0220000 -0.0012500 -0.0438349 -0.0220000 -0.0025000 -0.0460000 -0.0300000 -0.0012500 -0.0481651 -0.0300000 -0.0012500 -0.0481651 -0.0220000 -0.0025000 -0.0460000 -0.0220000 -0.0012500 -0.0481651 -0.0300000 0.0012500 -0.0481651 -0.0300000 0.0012500 -0.0481651 -0.0220000 -0.0012500 -0.0481651 -0.0220000 0.0012500 -0.0481651 -0.0300000 0.0025000 -0.0460000 -0.0300000 0.0025000 -0.0460000 -0.0220000 0.0012500 -0.0481651 -0.0220000 -0.0000000 -0.0460000 -0.0300000 0.0025000 -0.0460000 -0.0300000 0.0012500 -0.0438349 -0.0300000 -0.0012500 -0.0438349 -0.0300000 -0.0025000 -0.0460000 -0.0300000 -0.0012500 -0.0481651 -0.0300000 0.0012500 -0.0481651 -0.0300000 -0.0000000 -0.0460000 -0.0220000 0.0025000 -0.0460000 -0.0220000 0.0012500 -0.0438349 -0.0220000 -0.0012500 -0.0438349 -0.0220000 -0.0025000 -0.0460000 -0.0220000 -0.0012500 -0.0481651 -0.0220000 0.0012500 -0.0481651 -0.0220000</float_array>
        <technique_common><accessor count="756" source="#Pos-arr" stride="3">
          <param name="X" type="float"/><param name="Y" type="float"/><param name="Z" type="float"/>
        </accessor></technique_common>
      </source>
      <source id="Nor">
        <float_array count="2268" id="Nor-arr">1.0000000 0.0000000 0.0000000 0.9848078 0.1736482 0.0000000 0.9848078 0.1736482 0.0000000 1.0000000 0.0000000 0.0000000 0.9848078 0.1736482 0.0000000 0.9396926 0.3420201 0.0000000 0.9396926 0.3420201 0.0000000 0.9848078 0.1736482 0.0000000 0.9396926 0.3420201 0.0000000 0.8660254 0.5000000 0.0000000 0.8660254 0.5000000 0.0000000 0.9396926 0.3420201 0.0000000 0.8660254 0.5000000 0.0000000 0.7660444 0.6427876 0.0000000 0.7660444 0.6427876 0.0000000 0.8660254 0.5000000 0.0000000 0.7660444 0.6427876 0.0000000 0.6427876 0.7660444 0.0000000 0.6427876 0.7660444 0.0000000 0.7660444 0.6427876 0.0000000 0.6427876 0.7660444 0.0000000 0.5000000 0.8660254 0.0000000 0.5000000 0.8660254 0.0000000 0.6427876 0.7660444 0.0000000 0.5000000 0.8660254 0.0000000 0.3420201 0.9396926 0.0000000 0.3420201 0.9396926 0.0000000 0.5000000 0.8660254 0.0000000 0.3420201 0.9396926 0.0000000 0.1736482 0.9848078 0.0000000 0.1736482 0.9848078 0.0000000 0.3420201 0.9396926 0.0000000 0.1736482 0.9848078 0.0000000 0.0000000 1.0000000 0.0000000 0.0000000 1.0000000 0.0000000 0.1736482 0.9848078 0.0000000 0.0000000 1.0000000 0.0000000 -0.1736482 0.9848078 0.0000000 -0.1736482 0.9848078 0.0000000 0.0000000 1.0000000 0.0000000 -0.1736482 0.9848078 0.0000000 -0.3420201 0.9396926 0.0000000 -0.3420201 0.9396926 0.0000000 -0.1736482 0.9848078 0.0000000 -0.3420201 0.9396926 0.0000000 -0.5000000 0.8660254 0.0000000 -0.5000000 0.8660254 0.0000000 -0.3420201 0.9396926 0.0000000 -0.5000000 0.8660254 0.0000000 -0.6427876 0.7660444 0.0000000 -0.6427876 0.7660444 0.0000000 -0.5000000 0.8660254 0.0000000 -0.6427876 0.7660444 0.0000000 -0.7660444 0.6427876 0.0000000 -0.7660444 0.6427876 0.0000000 -0.6427876 0.7660444 0.0000000 -0.7660444 0.6427876 0.0000000 -0.8660254 0.5000000 0.0000000 -0.8660254 0.5000000 0.0000000 -0.7660444 0.6427876 0.0000000 -0.8660254 0.5000000 0.0000000 -0.9396926 0.3420201 0.0000000 -0.9396926 0.3420201 0.0000000 -0.8660254 0.5000000 0.0000000 -0.9396926 0.3420201 0.0000000 -0.9848078 0.1736482 0.0000000 -0.9848078 0.1736482 0.0000000 -0.9396926 0.3420201 0.0000000 -0.9848078 0.1736482 0.0000000 -1.0000000 0.0000000 0.0000000 -1.0000000 0.0000000 0.0000000 -0.9848078 0.1736482 0.0000000 -1.0000000 0.0000000 0.0000000 -0.9848078 -0.1736482 0.0000000 -0.9848078 -0.1736482 0.0000000 -1.0000000 0.0000000 0.0000000 -0.9848078 -0.1736482 0.0000000 -0.9396926 -0.3420201 0.0000000 -0.9396926 -0.3420201 0.0000000 -0.9848078 -0.1736482 0.0000000 -0.9396926 -0.3420201 0.0000000 -0.8660254 -0.5000000 0.0000000 -0.8660254 -0.5000000 0.0000000 -0.9396926 -0.3420201 0.0000000 -0.8660254 -0.5000000 0.0000000 -0.7660444 -0.6427876 0.0000000 -0.7660444 -0.6427876 0.0000000 -0.8660254 -0.5000000 0.0000000 -0.7660444 -0.6427876 0.0000000 -0.6427876 -0.7660444 0.0000000 -0.6427876 -0.7660444 0.0000000 -0.7660444 -0.6427876 0.0000000 -0.6427876 -0.7660444 0.0000000 -0.5000000 -0.8660254 0.0000000 -0.5000000 -0.8660254 0.0000000 -0.6427876 -0.7660444 0.0000000 -0.5000000 -0.8660254 0.0000000 -0.3420201 -0.9396926 0.0000000 -0.3420201 -0.9396926 0.0000000 -0.5000000 -0.8660254 0.0000000 -0.3420201 -0.9396926 0.0000000 -0.1736482 -0.9848078 0.0000000 -0.1736482 -0.9848078 0.0000000 -0.3420201 -0.9396926 0.0000000 -0.1736482 -0.9848078 0.0000000 -0.0000000 -1.0000000 0.0000000 -0.0000000 -1.0000000 0.0000000 -0.1736482 -0.9848078 0.0000000 -0.0000000 -1.0000000 0.0000000 0.1736482 -0.9848078 0.0000000 0.1736482 -0.9848078 0.0000000 -0.0000000 -1.0000000 0.0000000 0.1736482 -0.9848078 0.0000000 0.3420201 -0.9396926 0.0000000 0.3420201 -0.9396926 0.0000000 0.1736482 -0.9848078 0.0000000 0.3420201 -0.9396926 0.0000000 0.5000000 -0.8660254 0.0000000 0.5000000 -0.8660254 0.0000000 0.3420201 -0.9396926 0.0000000 0.5000000 -0.8660254 0.0000000 0.6427876 -0.7660444 0.0000000 0.6427876 -0.7660444 0.0000000 0.5000000 -0.8660254 0.0000000 0.6427876 -0.7660444 0.0000000 0.7660444 -0.6427876 0.0000000 0.7660444 -0.6427876 0.0000000 0.6427876 -0.7660444 0.0000000 0.7660444 -0.6427876 0.0000000 0.8660254 -0.5000000 0.0000000 0.8660254 -0.5000000 0.0000000 0.7660444 -0.6427876 0.0000000 0.8660254 -0.5000000 0.0000000 0.9396926 -0.3420201 0.0000000 0.9396926 -0.3420201 0.0000000 0.8660254 -0.5000000 0.0000000 0.9396926 -0.3420201 0.0000000 0.9848078 -0.1736482 0.0000000 0.9848078 -0.1736482 0.0000000 0.9396926 -0.3420201 0.0000000 0.9848078 -0.1736482 0.0000000 1.0000000 -0.0000000 0.0000000 1.0000000 -0.0000000 0.0000000 0.9848078 -0.1736482 0.0000000 0.0000000 0.0000000 -1.0000000 0.0000000 0.0000000 -1.0000000 0.0000000 0.0000000 -1.0000000 0.0000000 0.0000000 -1.0000000 0.0000000 0.0000000 -1.0000000 0.0000000 0.0000000 -1.0000000 0.0000000 0.0000000 -1.0000000 0.0000000 0.0000000 -1.0000000 0.0000000 0.0000000 -1.0000000 0.0000000 0.0000000 -1.0000000 0.0000000 0.0000000 -1.0000000 0.0000000 0.0000000 -1.0000000 0.0000000 0.0000000 -1.0000000 0.0000000 0.0000000 -1.0000000 0.0000000 0.0000000 -1.0000000 0.0000000 0.0000000 -1.0000000 0.0000000 0.0000000 -1.0000000 0.0000000 0.0000000 -1.0000000 0.0000000 0.0000000 -1.0000000 0.0000000 0.0000000 -1.0000000 0.0000000 0.0000000 -1.0000000 0.0000000 0.0000000 -1.0000000 0.0000000 0.0000000 -1.0000000 0.0000000 0.0000000 -1.0000000 0.0000000 0.0000000 -1.0000000 0.0000000 0.0000000 -1.0000000 0.0000000 0.0000000 -1.0000000 0.0000000 0.0000000 -1.0000000 0.0000000 0.0000000 -1.0000000 0.0000000 0.0000000 -1.0000000 0.0000000 0.0000000 -1.0000000 0.0000000 0.0000000 -1.0000000 0.0000000 0.0000000 -1.0000000 0.0000000 0.0000000 -1.0000000 0.0000000 0.0000000 -1.0000000 0.0000000 0.0000000 -1.0000000 0.0000000 0.0000000 -1.0000000 0.0000000 0.0000000 1.0000000 0.0000000 0.0000000 1.0000000 0.0000000 0.0000000 1.0000000 0.0000000 0.0000000 1.0000000 0.0000000 0.0000000 1.0000000 0.0000000 0.0000000 1.0000000 0.0000000 0.0000000 1.0000000 0.0000000 0.0000000 1.0000000 0.0000000 0.0000000 1.0000000 0.0000000 0.0000000 1.0000000 0.0000000 0.0000000 1.0000000 0.0000000 0.0000000 1.0000000 0.0000000 0.0000000 1.0000000 0.0000000 0.0000000 1.0000000 0.0000000 0.0000000 1.0000000 0.0000000 0.0000000 1.0000000 0.0000000 0.0000000 1.0000000 0.0000000 0.0000000 1.0000000 0.0000000 0.0000000 1.0000000 0.0000000 0.0000000 1.0000000 0.0000000 0.0000000 1.0000000 0.0000000 0.0000000 1.0000000 0.0000000 0.0000000 1.0000000 0.0000000 0.0000000 1.0000000 0.0000000 0.0000000 1.0000000 0.0000000 0.0000000 1.0000000 0.0000000 0.0000000 1.0000000 0.0000000 0.0000000 1.0000000 0.0000000 0.0000000 1.0000000 0.0000000 0.0000000 1.0000000 0.0000000 0.0000000 1.0000000 0.0000000 0.0000000 1.0000000 0.0000000 0.0000000 1.0000000 0.0000000 0.0000000 1.0000000 0.0000000 0.0000000 1.0000000 0.0000000 0.0000000 1.0000000 0.0000000 0.0000000 1.0000000 1.0000000 0.0000000 0.0000000 0.9807853 0.1950903 0.0000000 0.9807853 0.1950903 0.0000000 1.0000000 0.0000000 0.0000000 0.9807853 0.1950903 0.0000000 0.9238795 0.3826834 0.0000000 0.9238795 0.3826834 0.0000000 0.9807853 0.1950903 0.0000000 0.9238795 0.3826834 0.0000000 0.8314696 0.5555702 0.0000000 0.8314696 0.5555702 0.0000000 0.9238795 0.3826834 0.0000000 0.8314696 0.5555702 0.0000000 0.7071068 0.7071068 0.0000000 0.7071068 0.7071068 0.0000000 0.8314696 0.5555702 0.0000000 0.7071068 0.7071068 0.0000000 0.5555702 0.8314696 0.0000000 0.5555702 0.8314696 0.0000000 0.7071068 0.7071068 0.0000000 0.5555702 0.8314696 0.0000000 0.3826834 0.9238795 0.0000000 0.3826834 0.9238795 0.0000000 0.5555702 0.8314696 0.0000000 0.3826834 0.9238795 0.0000000 0.1950903 0.9807853 0.0000000 0.1950903 0.9807853 0.0000000 0.3826834 0.9238795 0.0000000 0.1950903 0.9807853 0.0000000 0.0000000 1.0000000 0.0000000 0.0000000 1.0000000 0.0000000 0.1950903 0.9807853 0.0000000 0.0000000 1.0000000 0.0000000 -0.1950903 0.9807853 0.0000000 -0.1950903 0.9807853 0.0000000 0.0000000 1.0000000 0.0000000 -0.1950903 0.9807853 0.0000000 -0.3826834 0.9238795 0.0000000 -0.3826834 0.9238795 0.0000000 -0.1950903 0.9807853 0.0000000 -0.3826834 0.9238795 0.0000000 -0.5555702 0.8314696 0.0000000 -0.5555702 0.8314696 0.0000000 -0.3826834 0.9238795 0.0000000 -0.5555702 0.8314696 0.0000000 -0.7071068 0.7071068 0.0000000 -0.7071068 0.7071068 0.0000000 -0.5555702 0.8314696 0.0000000 -0.7071068 0.7071068 0.0000000 -0.8314696 0.5555702 0.0000000 -0.8314696 0.5555702 0.0000000 -0.7071068 0.7071068 0.0000000 -0.8314696 0.5555702 0.0000000 -0.9238795 0.3826834 0.0000000 -0.9238795 0.3826834 0.0000000 -0.8314696 0.5555702 0.0000000 -0.9238795 0.3826834 0.0000000 -0.9807853 0.1950903 0.0000000 -0.9807853 0.1950903 0.0000000 -0.9238795 0.3826834 0.0000000 -0.9807853 0.1950903 0.0000000 -1.0000000 0.0000000 0.0000000 -1.0000000 0.0000000 0.0000000 -0.9807853 0.1950903 0.0000000 -1.0000000 0.0000000 0.0000000 -0.9807853 -0.1950903 0.0000000 -0.9807853 -0.1950903 0.0000000 -1.0000000 0.0000000 0.0000000 -0.9807853 -0.1950903 0.0000000 -0.9238795 -0.3826834 0.0000000 -0.9238795 -0.3826834 0.0000000 -0.9807853 -0.1950903 0.0000000 -0.9238795 -0.3826834 0.0000000 -0.8314696 -0.5555702 0.0000000 -0.8314696 -0.5555702 0.0000000 -0.9238795 -0.3826834 0.0000000 -0.8314696 -0.5555702 0.0000000 -0.7071068 -0.7071068 0.0000000 -0.7071068 -0.7071068 0.0000000 -0.8314696 -0.5555702 0.0000000 -0.7071068 -0.7071068 0.0000000 -0.5555702 -0.8314696 0.0000000 -0.5555702 -0.8314696 0.0000000 -0.7071068 -0.7071068 0.0000000 -0.5555702 -0.8314696 0.0000000 -0.3826834 -0.9238795 0.0000000 -0.3826834 -0.9238795 0.0000000 -0.5555702 -0.8314696 0.0000000 -0.3826834 -0.9238795 0.0000000 -0.1950903 -0.9807853 0.0000000 -0.1950903 -0.9807853 0.0000000 -0.3826834 -0.9238795 0.0000000 -0.1950903 -0.9807853 0.0000000 -0.0000000 -1.0000000 0.0000000 -0.0000000 -1.0000000 0.0000000 -0.1950903 -0.9807853 0.0000000 -0.0000000 -1.0000000 0.0000000 0.1950903 -0.9807853 0.0000000 0.1950903 -0.9807853 0.0000000 -0.0000000 -1.0000000 0.0000000 0.1950903 -0.9807853 0.0000000 0.3826834 -0.9238795 0.0000000 0.3826834 -0.9238795 0.0000000 0.1950903 -0.9807853 0.0000000 0.3826834 -0.9238795 0.0000000 0.5555702 -0.8314696 0.0000000 0.5555702 -0.8314696 0.0000000 0.3826834 -0.9238795 0.0000000 0.5555702 -0.8314696 0.0000000 0.7071068 -0.7071068 0.0000000 0.7071068 -0.7071068 0.0000000 0.5555702 -0.8314696 0.0000000 0.7071068 -0.7071068 0.0000000 0.8314696 -0.5555702 0.0000000 0.8314696 -0.5555702 0.0000000 0.7071068 -0.7071068 0.0000000 0.8314696 -0.5555702 0.0000000 0.9238795 -0.3826834 0.0000000 0.9238795 -0.3826834 0.0000000 0.8314696 -0.5555702 0.0000000 0.9238795 -0.3826834 0.0000000 0.9807853 -0.1950903 0.0000000 0.9807853 -0.1950903 0.0000000 0.9238795 -0.3826834 0.0000000 0.9807853 -0.1950903 0.0000000 1.0000000 -0.0000000 0.0000000 1.0000000 -0.0000000 0.0000000 0.9807853 -0.1950903 0.0000000 0.0000000 0.0000000 -1.0000000 0.0000000 0.0000000 -1.0000000 0.0000000 0.0000000 -1.0000000 0.0000000 0.0000000 -1.0000000 0.0000000 0.0000000 -1.0000000 0.0000000 0.0000000 -1.0000000 0.0000000 0.0000000 -1.0000000 0.0000000 0.0000000 -1.0000000 0.0000000 0.0000000 -1.0000000 0.0000000 0.0000000 -1.0000000 0.0000000 0.0000000 -1.0000000 0.0000000 0.0000000 -1.0000000 0.0000000 0.0000000 -1.0000000 0.0000000 0.0000000 -1.0000000 0.0000000 0.0000000 -1.0000000 0.0000000 0.0000000 -1.0000000 0.0000000 0.0000000 -1.0000000 0.0000000 0.0000000 -1.0000000 0.0000000 0.0000000 -1.0000000 0.0000000 0.0000000 -1.0000000 0.0000000 0.0000000 -1.0000000 0.0000000 0.0000000 -1.0000000 0.0000000 0.0000000 -1.0000000 0.0000000 0.0000000 -1.0000000 0.0000000 0.0000000 -1.0000000 0.0000000 0.0000000 -1.0000000 0.0000000 0.0000000 -1.0000000 0.0000000 0.0000000 -1.0000000 0.0000000 0.0000000 -1.0000000 0.0000000 0.0000000 -1.0000000 0.0000000 0.0000000 -1.0000000 0.0000000 0.0000000 -1.0000000 0.0000000 0.0000000 -1.0000000 0.0000000 0.0000000 1.0000000 0.0000000 0.0000000 1.0000000 0.0000000 0.0000000 1.0000000 0.0000000 0.0000000 1.0000000 0.0000000 0.0000000 1.0000000 0.0000000 0.0000000 1.0000000 0.0000000 0.0000000 1.0000000 0.0000000 0.0000000 1.0000000 0.0000000 0.0000000 1.0000000 0.0000000 0.0000000 1.0000000 0.0000000 0.0000000 1.0000000 0.0000000 0.0000000 1.0000000 0.0000000 0.0000000 1.0000000 0.0000000 0.0000000 1.0000000 0.0000000 0.0000000 1.0000000 0.0000000 0.0000000 1.0000000 0.0000000 0.0000000 1.0000000 0.0000000 0.0000000 1.0000000 0.0000000 0.0000000 1.0000000 0.0000000 0.0000000 1.0000000 0.0000000 0.0000000 1.0000000 0.0000000 0.0000000 1.0000000 0.0000000 0.0000000 1.0000000 0.0000000 0.0000000 1.0000000 0.0000000 0.0000000 1.0000000 0.0000000 0.0000000 1.0000000 0.0000000 0.0000000 1.0000000 0.0000000 0.0000000 1.0000000 0.0000000 0.0000000 1.0000000 0.0000000 0.0000000 1.0000000 0.0000000 0.0000000 1.0000000 0.0000000 0.0000000 1.0000000 0.0000000 0.0000000 1.0000000 0.0000000 0.0000000 1.0000000 0.0000000 0.0000000 1.0000000 0.0000000 0.0000000 1.0000000 0.0000000 0.0000000 1.0000000 0.0000000 0.0000000 1.0000000 0.0000000 0.0000000 1.0000000 0.0000000 0.0000000 1.0000000 0.0000000 0.0000000 1.0000000 0.0000000 0.0000000 1.0000000 0.0000000 0.0000000 1.0000000 0.0000000 0.0000000 1.0000000 0.0000000 0.0000000 1.0000000 0.0000000 0.0000000 1.0000000 0.0000000 0.0000000 1.0000000 0.0000000 0.0000000 1.0000000 0.0000000 0.0000000 1.0000000 0.0000000 0.0000000 1.0000000 0.0000000 0.0000000 1.0000000 0.0000000 0.0000000 1.0000000 0.0000000 0.0000000 1.0000000 0.0000000 0.0000000 1.0000000 0.0000000 0.0000000 1.0000000 0.0000000 0.0000000 1.0000000 0.0000000 0.0000000 1.0000000 0.0000000 0.0000000 1.0000000 0.0000000 0.0000000 1.0000000 0.0000000 0.0000000 1.0000000 0.0000000 0.0000000 1.0000000 0.0000000 0.0000000 1.0000000 0.0000000 0.0000000 1.0000000 0.0000000 0.0000000 1.0000000 0.0000000 0.0000000 1.0000000 0.0000000 0.0000000 1.0000000 0.0000000 0.0000000 1.0000000 0.0000000 0.0000000 1.0000000 0.0000000 0.0000000 1.0000000 0.0000000 0.0000000 1.0000000 0.0000000 0.0000000 1.0000000 0.0000000 0.0000000 1.0000000 0.0000000 0.0000000 1.0000000 0.0000000 0.0000000 1.0000000 0.0000000 0.0000000 1.0000000 0.0000000 0.0000000 1.0000000 0.0000000 0.0000000 1.0000000 0.0000000 0.0000000 1.0000000 0.0000000 0.0000000 1.0000000 0.0000000 0.0000000 1.0000000 0.0000000 0.0000000 1.0000000 0.0000000 0.0000000 1.0000000 0.0000000 0.0000000 1.0000000 0.0000000 0.0000000 1.0000000 0.0000000 0.0000000 1.0000000 0.0000000 0.0000000 1.0000000 0.0000000 0.0000000 1.0000000 0.0000000 0.0000000 1.0000000 0.0000000 0.0000000 1.0000000 0.0000000 0.0000000 1.0000000 0.0000000 0.0000000 1.0000000 0.0000000 0.0000000 1.0000000 0.0000000 0.0000000 1.0000000 0.0000000 0.0000000 1.0000000 0.0000000 0.0000000 1.0000000 0.0000000 0.0000000 1.0000000 0.0000000 0.0000000 1.0000000 0.0000000 0.0000000 1.0000000 0.0000000 0.0000000 1.0000000 0.0000000 0.0000000 1.0000000 0.0000000 0.0000000 1.0000000 0.0000000 0.0000000 1.0000000 0.0000000 0.0000000 1.0000000 0.0000000 0.0000000 1.0000000 0.0000000 0.0000000 1.0000000 0.0000000 0.0000000 -1.0000000 0.0000000 0.0000000 -1.0000000 0.0000000 0.0000000 -1.0000000 0.0000000 0.0000000 -1.0000000 0.0000000 0.0000000 -1.0000000 0.0000000 0.0000000 -1.0000000 0.0000000 0.0000000 -1.0000000 0.0000000 0.0000000 -1.0000000 0.0000000 0.0000000 -1.0000000 0.0000000 0.0000000 -1.0000000 0.0000000 0.0000000 -1.0000000 0.0000000 0.0000000 -1.0000000 0.0000000 0.0000000 -1.0000000 0.0000000 0.0000000 -1.0000000 0.0000000 0.0000000 -1.0000000 0.0000000 0.0000000 -1.0000000 0.0000000 0.0000000 -1.0000000 0.0000000 0.0000000 -1.0000000 0.0000000 0.0000000 -1.0000000 0.0000000 0.0000000 -1.0000000 0.0000000 0.0000000 -1.0000000 0.0000000 0.0000000 -1.0000000 0.0000000 0.0000000 -1.0000000 0.0000000 0.0000000 -1.0000000 0.0000000 0.0000000 -1.0000000 0.0000000 0.0000000 -1.0000000 0.0000000 0.0000000 -1.0000000 0.0000000 0.0000000 -1.0000000 0.0000000 0.0000000 -1.0000000 0.0000000 0.0000000 -1.0000000 0.0000000 0.0000000 -1.0000000 0.0000000 0.0000000 -1.0000000 0.0000000 0.0000000 -1.0000000 0.0000000 0.0000000 -1.0000000 0.0000000 0.0000000 -1.0000000 0.0000000 0.0000000 -1.0000000 0.0000000 0.0000000 -1.0000000 0.0000000 0.0000000 -1.0000000 0.0000000 0.0000000 -1.0000000 0.0000000 0.0000000 -1.0000000 0.0000000 0.0000000 -1.0000000 0.0000000 0.0000000 -1.0000000 0.0000000 0.0000000 -1.0000000 0.0000000 0.0000000 -1.0000000 0.0000000 0.0000000 -1.0000000 0.0000000 0.0000000 -1.0000000 0.0000000 0.0000000 -1.0000000 0.0000000 0.0000000 -1.0000000 0.0000000 0.0000000 -1.0000000 0.0000000 0.0000000 -1.0000000 0.0000000 0.0000000 -1.0000000 0.0000000 0.0000000 -1.0000000 0.0000000 0.0000000 -1.0000000 0.0000000 0.0000000 -1.0000000 0.0000000 0.0000000 -1.0000000 0.0000000 0.0000000 -1.0000000 0.0000000 0.0000000 -1.0000000 0.0000000 0.0000000 -1.0000000 0.0000000 0.0000000 -1.0000000 0.0000000 0.0000000 -1.0000000 0.0000000 0.0000000 -1.0000000 0.0000000 0.0000000 -1.0000000 0.0000000 0.0000000 -1.0000000 0.0000000 0.0000000 -1.0000000 0.0000000 0.0000000 -1.0000000 0.0000000 0.0000000 -1.0000000 0.0000000 0.0000000 -1.0000000 0.0000000 0.0000000 -1.0000000 0.0000000 0.0000000 -1.0000000 0.0000000 0.0000000 -1.0000000 0.0000000 0.0000000 -1.0000000 0.0000000 0.0000000 -1.0000000 1.0000000 0.0000000 0.0000000 1.0000000 0.0000000 0.0000000 1.0000000 0.0000000 0.0000000 1.0000000 0.0000000 0.0000000 -1.0000000 0.0000000 0.0000000 -1.0000000 0.0000000 0.0000000 -1.0000000 0.0000000 0.0000000 -1.0000000 0.0000000 0.0000000 0.0000000 1.0000000 0.0000000 0.0000000 1.0000000 0.0000000 0.0000000 1.0000000 0.0000000 0.0000000 1.0000000 0.0000000 0.0000000 -1.0000000 0.0000000 0.0000000 -1.0000000 0.0000000 0.0000000 -1.0000000 0.0000000 0.0000000 -1.0000000 0.0000000 0.0000000 0.0000000 1.0000000 0.0000000 0.0000000 1.0000000 0.0000000 0.0000000 1.0000000 0.0000000 0.0000000 1.0000000 0.0000000 0.0000000 -1.0000000 0.0000000 0.0000000 -1.0000000 0.0000000 0.0000000 -1.0000000 0.0000000 0.0000000 -1.0000000 1.0000000 0.0000000 0.0000000 1.0000000 0.0000000 0.0000000 1.0000000 0.0000000 0.0000000 1.0000000 0.0000000 0.0000000 -1.0000000 0.0000000 0.0000000 -1.0000000 0.0000000 0.0000000 -1.0000000 0.0000000 0.0000000 -1.0000000 0.0000000 0.0000000 0.0000000 1.0000000 0.0000000 0.0000000 1.0000000 0.0000000 0.0000000 1.0000000 0.0000000 0.0000000 1.0000000 0.0000000 0.0000000 -1.0000000 0.0000000 0.0000000 -1.0000000 0.0000000 0.0000000 -1.0000000 0.0000000 0.0000000 -1.0000000 0.0000000 0.0000000 0.0000000 1.0000000 0.0000000 0.0000000 1.0000000 0.0000000 0.0000000 1.0000000 0.0000000 0.0000000 1.0000000 0.0000000 0.0000000 -1.0000000 0.0000000 0.0000000 -1.0000000 0.0000000 0.0000000 -1.0000000 0.0000000 0.0000000 -1.0000000 1.0000000 0.0000000 0.0000000 0.5000000 0.8660254 0.0000000 0.5000000 0.8660254 0.0000000 1.0000000 0.0000000 0.0000000 0.5000000 0.8660254 0.0000000 -0.5000000 0.8660254 0.0000000 -0.5000000 0.8660254 0.0000000 0.5000000 0.8660254 0.0000000 -0.5000000 0.8660254 0.0000000 -1.0000000 0.0000000 0.0000000 -1.0000000 0.0000000 0.0000000 -0.5000000 0.8660254 0.0000000 -1.0000000 0.0000000 0.0000000 -0.5000000 -0.8660254 0.0000000 -0.5000000 -0.8660254 0.0000000 -1.0000000 0.0000000 0.0000000 -0.5000000 -0.8660254 0.0000000 0.5000000 -0.8660254 0.0000000 0.5000000 -0.8660254 0.0000000 -0.5000000 -0.8660254 0.0000000 0.5000000 -0.8660254 0.0000000 1.0000000 -0.0000000 0.0000000 1.0000000 -0.0000000 0.0000000 0.5000000 -0.8660254 0.0000000 0.0000000 0.0000000 -1.0000000 0.0000000 0.0000000 -1.0000000 0.0000000 0.0000000 -1.0000000 0.0000000 0.0000000 -1.0000000 0.0000000 0.0000000 -1.0000000 0.0000000 0.0000000 -1.0000000 0.0000000 0.0000000 -1.0000000 0.0000000 0.0000000 1.0000000 0.0000000 0.0000000 1.0000000 0.0000000 0.0000000 1.0000000 0.0000000 0.0000000 1.0000000 0.0000000 0.0000000 1.0000000 0.0000000 0.0000000 1.0000000 0.0000000 0.0000000 1.0000000 1.0000000 0.0000000 0.0000000 0.5000000 0.8660254 0.0000000 0.5000000 0.8660254 0.0000000 1.0000000 0.0000000 0.0000000 0.5000000 0.8660254 0.0000000 -0.5000000 0.8660254 0.0000000 -0.5000000 0.8660254 0.0000000 0.5000000 0.8660254 0.0000000 -0.5000000 0.8660254 0.0000000 -1.0000000 0.0000000 0.0000000 -1.0000000 0.0000000 0.0000000 -0.5000000 0.8660254 0.0000000 -1.0000000 0.0000000 0.0000000 -0.5000000 -0.8660254 0.0000000 -0.5000000 -0.8660254 0.0000000 -1.0000000 0.0000000 0.0000000 -0.5000000 -0.8660254 0.0000000 0.5000000 -0.8660254 0.0000000 0.5000000 -0.8660254 0.0000000 -0.5000000 -0.8660254 0.0000000 0.5000000 -0.8660254 0.0000000 1.0000000 -0.0000000 0.0000000 1.0000000 -0.0000000 0.0000000 0.5000000 -0.8660254 0.0000000 0.0000000 0.0000000 -1.0000000 0.0000000 0.0000000 -1.0000000 0.0000000 0.0000000 -1.0000000 0.0000000 0.0000000 -1.0000000 0.0000000 0.0000000 -1.0000000 0.0000000 0.0000000 -1.0000000 0.0000000 0.0000000 -1.0000000 0.0000000 0.0000000 1.0000000 0.0000000 0.0000000 1.0000000 0.0000000 0.0000000 1.0000000 0.0000000 0.0000000 1.0000000 0.0000000 0.0000000 1.0000000 0.0000000 0.0000000 1.0000000 0.0000000 0.0000000 1.0000000 1.0000000 0.0000000 0.0000000 0.5000000 0.8660254 0.0000000 0.5000000 0.8660254 0.0000000 1.0000000 0.0000000 0.0000000 0.5000000 0.8660254 0.0000000 -0.5000000 0.8660254 0.0000000 -0.5000000 0.8660254 0.0000000 0.5000000 0.8660254 0.0000000 -0.5000000 0.8660254 0.0000000 -1.0000000 0.0000000 0.0000000 -1.0000000 0.0000000 0.0000000 -0.5000000 0.8660254 0.0000000 -1.0000000 0.0000000 0.0000000 -0.5000000 -0.8660254 0.0000000 -0.5000000 -0.8660254 0.0000000 -1.0000000 0.0000000 0.0000000 -0.5000000 -0.8660254 0.0000000 0.5000000 -0.8660254 0.0000000 0.5000000 -0.8660254 0.0000000 -0.5000000 -0.8660254 0.0000000 0.5000000 -0.8660254 0.0000000 1.0000000 -0.0000000 0.0000000 1.0000000 -0.0000000 0.0000000 0.5000000 -0.8660254 0.0000000 0.0000000 0.0000000 -1.0000000 0.0000000 0.0000000 -1.0000000 0.0000000 0.0000000 -1.0000000 0.0000000 0.0000000 -1.0000000 0.0000000 0.0000000 -1.0000000 0.0000000 0.0000000 -1.0000000 0.0000000 0.0000000 -1.0000000 0.0000000 0.0000000 1.0000000 0.0000000 0.0000000 1.0000000 0.0000000 0.0000000 1.0000000 0.0000000 0.0000000 1.0000000 0.0000000 0.0000000 1.0000000 0.0000000 0.0000000 1.0000000 0.0000000 0.0000000 1.0000000 1.0000000 0.0000000 0.0000000 0.5000000 0.8660254 0.0000000 0.5000000 0.8660254 0.0000000 1.0000000 0.0000000 0.0000000 0.5000000 0.8660254 0.0000000 -0.5000000 0.8660254 0.0000000 -0.5000000 0.8660254 0.0000000 0.5000000 0.8660254 0.0000000 -0.5000000 0.8660254 0.0000000 -1.0000000 0.0000000 0.0000000 -1.0000000 0.0000000 0.0000000 -0.5000000 0.8660254 0.0000000 -1.0000000 0.0000000 0.0000000 -0.5000000 -0.8660254 0.0000000 -0.5000000 -0.8660254 0.0000000 -1.0000000 0.0000000 0.0000000 -0.5000000 -0.8660254 0.0000000 0.5000000 -0.8660254 0.0000000 0.5000000 -0.8660254 0.0000000 -0.5000000 -0.8660254 0.0000000 0.5000000 -0.8660254 0.0000000 1.0000000 -0.0000000 0.0000000 1.0000000 -0.0000000 0.0000000 0.5000000 -0.8660254 0.0000000 0.0000000 0.0000000 -1.0000000 0.0000000 0.0000000 -1.0000000 0.0000000 0.0000000 -1.0000000 0.0000000 0.0000000 -1.0000000 0.0000000 0.0000000 -1.0000000 0.0000000 0.0000000 -1.0000000 0.0000000 0.0000000 -1.0000000 0.0000000 0.0000000 1.0000000 0.0000000 0.0000000 1.0000000 0.0000000 0.0000000 1.0000000 0.0000000 0.0000000 1.0000000 0.0000000 0.0000000 1.0000000 0.0000000 0.0000000 1.0000000 0.0000000 0.0000000 1.0000000</float_array>
        <technique_common><accessor count="756" source="#Nor-arr" stride="3">
          <param name="X" type="float"/><param name="Y" type="float"/><param name="Z" type="float"/>
        </accessor></technique_common>
      </source>
      <vertices id="Vert">
        <input semantic="POSITION" source="#Pos"/>
        <input semantic="NORMAL" source="#Nor"/>
      </vertices>
      <triangles count="536" material="Mat">
        <input offset="0" semantic="VERTEX" source="#Vert"/>
        <p>0 1 2 0 2 3 4 5 6 4 6 7 8 9 10 8 10 11 12 13 14 12 14 15 16 17 18 16 18 19 20 21 22 20 22 23 24 25 26 24 26 27 28 29 30 28 30 31 32 33 34 32 34 35 36 37 38 36 38 39 40 41 42 40 42 43 44 45 46 44 46 47 48 49 50 48 50 51 52 53 54 52 54 55 56 57 58 56 58 59 60 61 62 60 62 63 64 65 66 64 66 67 68 69 70 68 70 71 72 73 74 72 74 75 76 77 78 76 78 79 80 81 82 80 82 83 84 85 86 84 86 87 88 89 90 88 90 91 92 93 94 92 94 95 96 97 98 96 98 99 100 101 102 100 102 103 104 105 106 104 106 107 108 109 110 108 110 111 112 113 114 112 114 115 116 117 118 116 118 119 120 121 122 120 122 123 124 125 126 124 126 127 128 129 130 128 130 131 132 133 134 132 134 135 136 137 138 136 138 139 140 141 142 140 142 143 144 146 145 144 147 146 144 148 147 144 149 148 144 150 149 144 151 150 144 152 151 144 153 152 144 154 153 144 155 154 144 156 155 144 157 156 144 158 157 144 159 158 144 160 159 144 161 160 144 162 161 144 163 162 144 164 163 144 165 164 144 166 165 144 167 166 144 168 167 144 169 168 144 170 169 144 171 170 144 172 171 144 173 172 144 174 173 144 175 174 144 176 175 144 177 176 144 178 177 144 179 178 144 180 179 144 145 180 181 182 183 181 183 184 181 184 185 181 185 186 181 186 187 181 187 188 181 188 189 181 189 190 181 190 191 181 191 192 181 192 193 181 193 194 181 194 195 181 195 196 181 196 197 181 197 198 181 198 199 181 199 200 181 200 201 181 201 202 181 202 203 181 203 204 181 204 205 181 205 206 181 206 207 181 207 208 181 208 209 181 209 210 181 210 211 181 211 212 181 212 213 181 213 214 181 214 215 181 215 216 181 216 217 181 217 182 218 219 220 218 220 221 222 223 224 222 224 225 226 227 228 226 228 229 230 231 232 230 232 233 234 235 236 234 236 237 238 239 240 238 240 241 242 243 244 242 244 245 246 247 248 246 248 249 250 251 252 250 252 253 254 255 256 254 256 257 258 259 260 258 260 261 262 263 264 262 264 265 266 267 268 266 268 269 270 271 272 270 272 273 274 275 276 274 276 277 278 279 280 278 280 281 282 283 284 282 284 285 286 287 288 286 288 289 290 291 292 290 292 293 294 295 296 294 296 297 298 299 300 298 300 301 302 303 304 302 304 305 306 307 308 306 308 309 310 311 312 310 312 313 314 315 316 314 316 317 318 319 320 318 320 321 322 323 324 322 324 325 326 327 328 326 328 329 330 331 332 330 332 333 334 335 336 334 336 337 338 339 340 338 340 341 342 343 344 342 344 345 346 348 347 346 349 348 346 350 349 346 351 350 346 352 351 346 353 352 346 354 353 346 355 354 346 356 355 346 357 356 346 358 357 346 359 358 346 360 359 346 361 360 346 362 361 346 363 362 346 364 363 346 365 364 346 366 365 346 367 366 346 368 367 346 369 368 346 370 369 346 371 370 346 372 371 346 373 372 346 374 373 346 375 374 346 376 375 346 377 376 346 378 377 346 347 378 379 380 381 379 381 382 379 382 383 379 383 384 379 384 385 379 385 386 379 386 387 379 387 388 379 388 389 379 389 390 379 390 391 379 391 392 379 392 393 379 393 394 379 394 395 379 395 396 379 396 397 379 397 398 379 398 399 379 399 400 379 400 401 379 401 402 379 402 403 379 403 404 379 404 405 379 405 406 379 406 407 379 407 408 379 408 409 379 409 410 379 410 411 379 411 380 412 413 415 412 415 414 414 415 417 414 417 416 416 417 419 416 419 418 418 419 421 418 421 420 420 421 423 420 423 422 422 423 425 422 425 424 424 425 427 424 427 426 426 427 429 426 429 428 428 429 431 428 431 430 430 431 433 430 433 432 432 433 435 432 435 434 434 435 437 434 437 436 436 437 439 436 439 438 438 439 441 438 441 440 440 441 443 440 443 442 442 443 445 442 445 444 444 445 447 444 447 446 446 447 449 446 449 448 448 449 451 448 451 450 450 451 453 450 453 452 452 453 455 452 455 454 454 455 457 454 457 456 456 457 459 456 459 458 458 459 461 458 461 460 460 461 463 460 463 462 462 463 465 462 465 464 464 465 467 464 467 466 466 467 469 466 469 468 468 469 471 468 471 470 470 471 473 470 473 472 472 473 475 472 475 474 474 475 477 474 477 476 476 477 479 476 479 478 478 479 481 478 481 480 480 481 483 480 483 482 482 483 413 482 413 412 484 487 485 484 486 487 486 489 487 486 488 489 488 491 489 488 490 491 490 493 491 490 492 493 492 495 493 492 494 495 494 497 495 494 496 497 496 499 497 496 498 499 498 501 499 498 500 501 500 503 501 500 502 503 502 505 503 502 504 505 504 507 505 504 506 507 506 509 507 506 508 509 508 511 509 508 510 511 510 513 511 510 512 513 512 515 513 512 514 515 514 517 515 514 516 517 516 519 517 516 518 519 518 521 519 518 520 521 520 523 521 520 522 523 522 525 523 522 524 525 524 527 525 524 526 527 526 529 527 526 528 529 528 531 529 528 530 531 530 533 531 530 532 533 532 535 533 532 534 535 534 537 535 534 536 537 536 539 537 536 538 539 538 541 539 538 540 541 540 543 541 540 542 543 542 545 543 542 544 545 544 547 545 544 546 547 546 549 547 546 548 549 548 551 549 548 550 551 550 553 551 550 552 553 552 555 553 552 554 555 554 485 555 554 484 485 556 557 558 556 558 559 560 561 562 560 562 563 564 565 566 564 566 567 568 569 570 568 570 571 572 573 574 572 574 575 576 577 578 576 578 579 580 581 582 580 582 583 584 585 586 584 586 587 588 589 590 588 590 591 592 593 594 592 594 595 596 597 598 596 598 599 600 601 602 600 602 603 604 605 606 604 606 607 608 609 610 608 610 611 612 613 614 612 614 615 616 617 618 616 618 619 620 621 622 620 622 623 624 625 626 624 626 627 628 630 629 628 631 630 628 632 631 628 633 632 628 634 633 628 629 634 635 636 637 635 637 638 635 638 639 635 639 640 635 640 641 635 641 636 642 643 644 642 644 645 646 647 648 646 648 649 650 651 652 650 652 653 654 655 656 654 656 657 658 659 660 658 660 661 662 663 664 662 664 665 666 668 667 666 669 668 666 670 669 666 671 670 666 672 671 666 667 672 673 674 675 673 675 676 673 676 677 673 677 678 673 678 679 673 679 674 680 681 682 680 682 683 684 685 686 684 686 687 688 689 690 688 690 691 692 693 694 692 694 695 696 697 698 696 698 699 700 701 702 700 702 703 704 706 705 704 707 706 704 708 707 704 709 708 704 710 709 704 705 710 711 712 713 711 713 714 711 714 715 711 715 716 711 716 717 711 717 712 718 719 720 718 720 721 722 723 724 722 724 725 726 727 728 726 728 729 730 731 732 730 732 733 734 735 736 734 736 737 738 739 740 738 740 741 742 744 743 742 745 744 742 746 745 742 747 746 742 748 747 742 743 748 749 750 751 749 751 752 749 752 753 749 753 754 749 754 755 749 755 750</p>
      </triangles>
    </mesh></geometry>
  </library_geometries>
  <library_visual_scenes>
    <visual_scene id="Scene">
      <node id="Node" type="NODE">
        <instance_geometry url="#Geom">
          <bind_material><technique_common>
            <instance_material symbol="Mat" target="#Mat"/>
          </technique_common></bind_material>
        </instance_geometry>
      </node>
    </visual_scene>
  </library_visual_scenes>
  <scene><instance_visual_scene url="#Scene"/></scene>
</COLLADA>