<?xml version="1.0" encoding="UTF-8" standalone="no" ?>
<COLLADA version="1.4.1" xmlns="http://www.collada.org/2005/11/COLLADASchema">
  <asset>
    <created>2024-01-01T00:00:00</created><modified>2024-01-01T00:00:00</modified>
    <unit meter="1" name="meters"/><up_axis>Z_UP</up_axis>
  </asset>
  <library_materials>
    <material id="Mat" name="Mat"><instance_effect url="#Mat-fx"/></material>
  </library_materials>
  <library_effects>
    <effect id="Mat-fx"><profile_COMMON><technique sid="COMMON"><phong>
      <emission><color>0 0 0 1</color></emission>
      <ambient><color>0.0396 0.0630 0.1044 1</color></ambient>
      <diffuse><color>0.2200 0.3500 0.5800 1.0000</color></diffuse>
      <specular><color>0.35 0.35 0.35 1</color></specular>
      <shininess><float>65</float></shininess>
      <transparent opaque="A_ONE"><color>1 1 1 1</color></transparent>
      <transparency><float>1</float></transparency>
    </phong></technique></profile_COMMON></effect>
  </library_effects>
  <library_geometries>
    <geometry id="Geom"><mesh>
      <source id="Pos">
        <float_array count="1752" id="Pos-arr">0.4500000 -0.3000000 -0.2000000 0.4500000 0.3000000 -0.2000000 0.4500000 0.3000000 0.2000000 0.4500000 -0.3000000 0.2000000 -0.4500000 0.3000000 -0.2000000 -0.4500000 -0.3000000 -0.2000000 -0.4500000 -0.3000000 0.2000000 -0.4500000 0.3000000 0.2000000 0.4500000 0.3000000 -0.2000000 -0.4500000 0.3000000 -0.2000000 -0.4500000 0.3000000 0.2000000 0.4500000 0.3000000 0.2000000 -0.4500000 -0.3000000 -0.2000000 0.4500000 -0.3000000 -0.2000000 0.4500000 -0.3000000 0.2000000 -0.4500000 -0.3000000 0.2000000 -0.4500000 -0.3000000 0.2000000 0.4500000 -0.3000000 0.2000000 0.4500000 0.3000000 0.2000000 -0.4500000 0.3000000 0.2000000 0.4500000 -0.3000000 -0.2000000 -0.4500000 -0.3000000 -0.2000000 -0.4500000 0.3000000 -0.2000000 0.4500000 0.3000000 -0.2000000 0.1900000 -0.1200000 0.2000000 0.1900000 0.1200000 0.2000000 0.1900000 0.1200000 0.2180000 0.1900000 -0.1200000 0.2180000 -0.1900000 0.1200000 0.2000000 -0.1900000 -0.1200000 0.2000000 -0.1900000 -0.1200000 0.2180000 -0.1900000 0.1200000 0.2180000 0.1900000 0.1200000 0.2000000 -0.1900000 0.1200000 0.2000000 -0.1900000 0.1200000 0.2180000 0.1900000 0.1200000 0.2180000 -0.1900000 -0.1200000 0.2000000 0.1900000 -0.1200000 0.2000000 0.1900000 -0.1200000 0.2180000 -0.1900000 -0.1200000 0.2180000 -0.1900000 -0.1200000 0.2180000 0.1900000 -0.1200000 0.2180000 0.1900000 0.1200000 0.2180000 -0.1900000 0.1200000 0.2180000 0.1900000 -0.1200000 0.2000000 -0.1900000 -0.1200000 0.2000000 -0.1900000 0.1200000 0.2000000 0.1900000 0.1200000 0.2000000 0.4300000 -0.3220000 -0.0090000 0.4300000 -0.3000000 -0.0090000 0.4300000 -0.3000000 0.0090000 0.4300000 -0.3220000 0.0090000 -0.4300000 -0.3000000 -0.0090000 -0.4300000 -0.3220000 -0.0090000 -0.4300000 -0.3220000 0.0090000 -0.4300000 -0.3000000 0.0090000 0.4300000 -0.3000000 -0.0090000 -0.4300000 -0.3000000 -0.0090000 -0.4300000 -0.3000000 0.0090000 0.4300000 -0.3000000 0.0090000 -0.4300000 -0.3220000 -0.0090000 0.4300000 -0.3220000 -0.0090000 0.4300000 -0.3220000 0.0090000 -0.4300000 -0.3220000 0.0090000 -0.4300000 -0.3220000 0.0090000 0.4300000 -0.3220000 0.0090000 0.4300000 -0.3000000 0.0090000 -0.4300000 -0.3000000 0.0090000 0.4300000 -0.3220000 -0.0090000 -0.4300000 -0.3220000 -0.0090000 -0.4300000 -0.3000000 -0.0090000 0.4300000 -0.3000000 -0.0090000 0.4300000 0.3000000 -0.0090000 0.4300000 0.3220000 -0.0090000 0.4300000 0.3220000 0.0090000 0.4300000 0.3000000 0.0090000 -0.4300000 0.3220000 -0.0090000 -0.4300000 0.3000000 -0.0090000 -0.4300000 0.3000000 0.0090000 -0.4300000 0.3220000 0.0090000 0.4300000 0.3220000 -0.0090000 -0.4300000 0.3220000 -0.0090000 -0.4300000 0.3220000 0.0090000 0.4300000 0.3220000 0.0090000 -0.4300000 0.3000000 -0.0090000 0.4300000 0.3000000 -0.0090000 0.4300000 0.3000000 0.0090000 -0.4300000 0.3000000 0.0090000 -0.4300000 0.3000000 0.0090000 0.4300000 0.3000000 0.0090000 0.4300000 0.3220000 0.0090000 -0.4300000 0.3220000 0.0090000 0.4300000 0.3000000 -0.0090000 -0.4300000 0.3000000 -0.0090000 -0.4300000 0.3220000 -0.0090000 0.4300000 0.3220000 -0.0090000 0.4400000 -0.2330000 -0.2140000 0.4400000 -0.2070000 -0.2140000 0.4400000 -0.2070000 -0.2000000 0.4400000 -0.2330000 -0.2000000 -0.4400000 -0.2070000 -0.2140000 -0.4400000 -0.2330000 -0.2140000 -0.4400000 -0.2330000 -0.2000000 -0.4400000 -0.2070000 -0.2000000 0.4400000 -0.2070000 -0.2140000 -0.4400000 -0.2070000 -0.2140000 -0.4400000 -0.2070000 -0.2000000 0.4400000 -0.2070000 -0.2000000 -0.4400000 -0.2330000 -0.2140000 0.4400000 -0.2330000 -0.2140000 0.4400000 -0.2330000 -0.2000000 -0.4400000 -0.2330000 -0.2000000 -0.4400000 -0.2330000 -0.2000000 0.4400000 -0.2330000 -0.2000000 0.4400000 -0.2070000 -0.2000000 -0.4400000 -0.2070000 -0.2000000 0.4400000 -0.2330000 -0.2140000 -0.4400000 -0.2330000 -0.2140000 -0.4400000 -0.2070000 -0.2140000 0.4400000 -0.2070000 -0.2140000 0.4400000 0.2070000 -0.2140000 0.4400000 0.2330000 -0.2140000 0.4400000 0.2330000 -0.2000000 0.4400000 0.2070000 -0.2000000 -0.4400000 0.2330000 -0.2140000 -0.4400000 0.2070000 -0.2140000 -0.4400000 0.2070000 -0.2000000 -0.4400000 0.2330000 -0.2000000 0.4400000 0.2330000 -0.2140000 -0.4400000 0.2330000 -0.2140000 -0.4400000 0.2330000 -0.2000000 0.4400000 0.2330000 -0.2000000 -0.4400000 0.2070000 -0.2140000 0.4400000 0.2070000 -0.2140000 0.4400000 0.2070000 -0.2000000 -0.4400000 0.2070000 -0.2000000 -0.4400000 0.2070000 -0.2000000 0.4400000 0.2070000 -0.2000000 0.4400000 0.2330000 -0.2000000 -0.4400000 0.2330000 -0.2000000 0.4400000 0.2070000 -0.2140000 -0.4400000 0.2070000 -0.2140000 -0.4400000 0.2330000 -0.2140000 0.4400000 0.2330000 -0.2140000 0.4640000 -0.1875000 0.0100000 0.4640000 -0.1325000 0.0100000 0.4640000 -0.1325000 0.0400000 0.4640000 -0.1875000 0.0400000 0.4500000 -0.1325000 0.0100000 0.4500000 -0.1875000 0.0100000 0.4500000 -0.1875000 0.0400000 0.4500000 -0.1325000 0.0400000 0.4640000 -0.1325000 0.0100000 0.4500000 -0.1325000 0.0100000 0.4500000 -0.1325000 0.0400000 0.4640000 -0.1325000 0.0400000 0.4500000 -0.1875000 0.0100000 0.4640000 -0.1875000 0.0100000 0.4640000 -0.1875000 0.0400000 0.4500000 -0.1875000 0.0400000 0.4500000 -0.1875000 0.0400000 0.4640000 -0.1875000 0.0400000 0.4640000 -0.1325000 0.0400000 0.4500000 -0.1325000 0.0400000 0.4640000 -0.1875000 0.0100000 0.4500000 -0.1875000 0.0100000 0.4500000 -0.1325000 0.0100000 0.4640000 -0.1325000 0.0100000 0.4640000 -0.0275000 0.0100000 0.4640000 0.0275000 0.0100000 0.4640000 0.0275000 0.0400000 0.4640000 -0.0275000 0.0400000 0.4500000 0.0275000 0.0100000 0.4500000 -0.0275000 0.0100000 0.4500000 -0.0275000 0.0400000 0.4500000 0.0275000 0.0400000 0.4640000 0.0275000 0.0100000 0.4500000 0.0275000 0.0100000 0.4500000 0.0275000 0.0400000 0.4640000 0.0275000 0.0400000 0.4500000 -0.0275000 0.0100000 0.4640000 -0.0275000 0.0100000 0.4640000 -0.0275000 0.0400000 0.4500000 -0.0275000 0.0400000 0.4500000 -0.0275000 0.0400000 0.4640000 -0.0275000 0.0400000 0.4640000 0.0275000 0.0400000 0.4500000 0.0275000 0.0400000 0.4640000 -0.0275000 0.0100000 0.4500000 -0.0275000 0.0100000 0.4500000 0.0275000 0.0100000 0.4640000 0.0275000 0.0100000 0.4640000 0.1325000 0.0100000 0.4640000 0.1875000 0.0100000 0.4640000 0.1875000 0.0400000 0.4640000 0.1325000 0.0400000 0.4500000 0.1875000 0.0100000 0.4500000 0.1325000 0.0100000 0.4500000 0.1325000 0.0400000 0.4500000 0.1875000 0.0400000 0.4640000 0.1875000 0.0100000 0.4500000 0.1875000 0.0100000 0.4500000 0.1875000 0.0400000 0.4640000 0.1875000 0.0400000 0.4500000 0.1325000 0.0100000 0.4640000 0.1325000 0.0100000 0.4640000 0.1325000 0.0400000 0.4500000 0.1325000 0.0400000 0.4500000 0.1325000 0.0400000 0.4640000 0.1325000 0.0400000 0.4640000 0.1875000 0.0400000 0.4500000 0.1875000 0.0400000 0.4640000 0.1325000 0.0100000 0.4500000 0.1325000 0.0100000 0.4500000 0.1875000 0.0100000 0.4640000 0.1875000 0.0100000 -0.4500000 -0.1875000 0.0100000 -0.4500000 -0.1325000 0.0100000 -0.4500000 -0.1325000 0.0400000 -0.4500000 -0.1875000 0.0400000 -0.4640000 -0.1325000 0.0100000 -0.4640000 -0.1875000 0.0100000 -0.4640000 -0.1875000 0.0400000 -0.4640000 -0.1325000 0.0400000 -0.4500000 -0.1325000 0.0100000 -0.4640000 -0.1325000 0.0100000 -0.4640000 -0.1325000 0.0400000 -0.4500000 -0.1325000 0.0400000 -0.4640000 -0.1875000 0.0100000 -0.4500000 -0.1875000 0.0100000 -0.4500000 -0.1875000 0.0400000 -0.4640000 -0.1875000 0.0400000 -0.4640000 -0.1875000 0.0400000 -0.4500000 -0.1875000 0.0400000 -0.4500000 -0.1325000 0.0400000 -0.4640000 -0.1325000 0.0400000 -0.4500000 -0.1875000 0.0100000 -0.4640000 -0.1875000 0.0100000 -0.4640000 -0.1325000 0.0100000 -0.4500000 -0.1325000 0.0100000 -0.4500000 -0.0275000 0.0100000 -0.4500000 0.0275000 0.0100000 -0.4500000 0.0275000 0.0400000 -0.4500000 -0.0275000 0.0400000 -0.4640000 0.0275000 0.0100000 -0.4640000 -0.0275000 0.0100000 -0.4640000 -0.0275000 0.0400000 -0.4640000 0.0275000 0.0400000 -0.4500000 0.0275000 0.0100000 -0.4640000 0.0275000 0.0100000 -0.4640000 0.0275000 0.0400000 -0.4500000 0.0275000 0.0400000 -0.4640000 -0.0275000 0.0100000 -0.4500000 -0.0275000 0.0100000 -0.4500000 -0.0275000 0.0400000 -0.4640000 -0.0275000 0.0400000 -0.4640000 -0.0275000 0.0400000 -0.4500000 -0.0275000 0.0400000 -0.4500000 0.0275000 0.0400000 -0.4640000 0.0275000 0.0400000 -0.4500000 -0.0275000 0.0100000 -0.4640000 -0.0275000 0.0100000 -0.4640000 0.0275000 0.0100000 -0.4500000 0.0275000 0.0100000 -0.4500000 0.1325000 0.0100000 -0.4500000 0.1875000 0.0100000 -0.4500000 0.1875000 0.0400000 -0.4500000 0.1325000 0.0400000 -0.4640000 0.1875000 0.0100000 -0.4640000 0.1325000 0.0100000 -0.4640000 0.1325000 0.0400000 -0.4640000 0.1875000 0.0400000 -0.4500000 0.1875000 0.0100000 -0.4640000 0.1875000 0.0100000 -0.4640000 0.1875000 0.0400000 -0.4500000 0.1875000 0.0400000 -0.4640000 0.1325000 0.0100000 -0.4500000 0.1325000 0.0100000 -0.4500000 0.1325000 0.0400000 -0.4640000 0.1325000 0.0400000 -0.4640000 0.1325000 0.0400000 -0.4500000 0.1325000 0.0400000 -0.4500000 0.1875000 0.0400000 -0.4640000 0.1875000 0.0400000 -0.4500000 0.1325000 0.0100000 -0.4640000 0.1325000 0.0100000 -0.4640000 0.1875000 0.0100000 -0.4500000 0.1875000 0.0100000 -0.3900000 -0.3000000 -0.2000000 -0.3900000 -0.2400000 -0.2000000 -0.3900000 -0.2400000 0.2000000 -0.3900000 -0.3000000 0.2000000 -0.4500000 -0.2400000 -0.2000000 -0.4500000 -0.3000000 -0.2000000 -0.4500000 -0.3000000 0.2000000 -0.4500000 -0.2400000 0.2000000 -0.3900000 -0.2400000 -0.2000000 -0.4500000 -0.2400000 -0.2000000 -0.4500000 -0.2400000 0.2000000 -0.3900000 -0.2400000 0.2000000 -0.4500000 -0.3000000 -0.2000000 -0.3900000 -0.3000000 -0.2000000 -0.3900000 -0.3000000 0.2000000 -0.4500000 -0.3000000 0.2000000 -0.4500000 -0.3000000 0.2000000 -0.3900000 -0.3000000 0.2000000 -0.3900000 -0.2400000 0.2000000 -0.4500000 -0.2400000 0.2000000 -0.3900000 -0.3000000 -0.2000000 -0.4500000 -0.3000000 -0.2000000 -0.4500000 -0.2400000 -0.2000000 -0.3900000 -0.2400000 -0.2000000 -0.3900000 0.2400000 -0.2000000 -0.3900000 0.3000000 -0.2000000 -0.3900000 0.3000000 0.2000000 -0.3900000 0.2400000 0.2000000 -0.4500000 0.3000000 -0.2000000 -0.4500000 0.2400000 -0.2000000 -0.4500000 0.2400000 0.2000000 -0.4500000 0.3000000 0.2000000 -0.3900000 0.3000000 -0.2000000 -0.4500000 0.3000000 -0.2000000 -0.4500000 0.3000000 0.2000000 -0.3900000 0.3000000 0.2000000 -0.4500000 0.2400000 -0.2000000 -0.3900000 0.2400000 -0.2000000 -0.3900000 0.2400000 0.2000000 -0.4500000 0.2400000 0.2000000 -0.4500000 0.2400000 0.2000000 -0.3900000 0.2400000 0.2000000 -0.3900000 0.3000000 0.2000000 -0.4500000 0.3000000 0.2000000 -0.3900000 0.2400000 -0.2000000 -0.4500000 0.2400000 -0.2000000 -0.4500000 0.3000000 -0.2000000 -0.3900000 0.3000000 -0.2000000 0.4500000 -0.3000000 -0.2000000 0.4500000 -0.2400000 -0.2000000 0.4500000 -0.2400000 0.2000000 0.4500000 -0.3000000 0.2000000 0.3900000 -0.2400000 -0.2000000 0.3900000 -0.3000000 -0.2000000 0.3900000 -0.3000000 0.2000000 0.3900000 -0.2400000 0.2000000 0.4500000 -0.2400000 -0.2000000 0.3900000 -0.2400000 -0.2000000 0.3900000 -0.2400000 0.2000000 0.4500000 -0.2400000 0.2000000 0.3900000 -0.3000000 -0.2000000 0.4500000 -0.3000000 -0.2000000 0.4500000 -0.3000000 0.2000000 0.3900000 -0.3000000 0.2000000 0.3900000 -0.3000000 0.2000000 0.4500000 -0.3000000 0.2000000 0.4500000 -0.2400000 0.2000000 0.3900000 -0.2400000 0.2000000 0.4500000 -0.3000000 -0.2000000 0.3900000 -0.3000000 -0.2000000 0.3900000 -0.2400000 -0.2000000 0.4500000 -0.2400000 -0.2000000 0.4500000 0.2400000 -0.2000000 0.4500000 0.3000000 -0.2000000 0.4500000 0.3000000 0.2000000 0.4500000 0.2400000 0.2000000 0.3900000 0.3000000 -0.2000000 0.3900000 0.2400000 -0.2000000 0.3900000 0.2400000 0.2000000 0.3900000 0.3000000 0.2000000 0.4500000 0.3000000 -0.2000000 0.3900000 0.3000000 -0.2000000 0.3900000 0.3000000 0.2000000 0.4500000 0.3000000 0.2000000 0.3900000 0.2400000 -0.2000000 0.4500000 0.2400000 -0.2000000 0.4500000 0.2400000 0.2000000 0.3900000 0.2400000 0.2000000 0.3900000 0.2400000 0.2000000 0.4500000 0.2400000 0.2000000 0.4500000 0.3000000 0.2000000 0.3900000 0.3000000 0.2000000 0.4500000 0.2400000 -0.2000000 0.3900000 0.2400000 -0.2000000 0.3900000 0.3000000 -0.2000000 0.4500000 0.3000000 -0.2000000 -0.1540000 -0.1000000 0.2140000 -0.1557574 -0.0957574 0.2140000 -0.1557574 -0.0957574 0.2240000 -0.1540000 -0.1000000 0.2240000 -0.1557574 -0.0957574 0.2140000 -0.1600000 -0.0940000 0.2140000 -0.1600000 -0.0940000 0.2240000 -0.1557574 -0.0957574 0.2240000 -0.1600000 -0.0940000 0.2140000 -0.1642426 -0.0957574 0.2140000 -0.1642426 -0.0957574 0.2240000 -0.1600000 -0.0940000 0.2240000 -0.1642426 -0.0957574 0.2140000 -0.1660000 -0.1000000 0.2140000 -0.1660000 -0.1000000 0.2240000 -0.1642426 -0.0957574 0.2240000 -0.1660000 -0.1000000 0.2140000 -0.1642426 -0.1042426 0.2140000 -0.1642426 -0.1042426 0.2240000 -0.1660000 -0.1000000 0.2240000 -0.1642426 -0.1042426 0.2140000 -0.1600000 -0.1060000 0.2140000 -0.1600000 -0.1060000 0.2240000 -0.1642426 -0.1042426 0.2240000 -0.1600000 -0.1060000 0.2140000 -0.1557574 -0.1042426 0.2140000 -0.1557574 -0.1042426 0.2240000 -0.1600000 -0.1060000 0.2240000 -0.1557574 -0.1042426 0.2140000 -0.1540000 -0.1000000 0.2140000 -0.1540000 -0.1000000 0.2240000 -0.1557574 -0.1042426 0.2240000 -0.1600000 -0.1000000 0.2140000 -0.1540000 -0.1000000 0.2140000 -0.1557574 -0.0957574 0.2140000 -0.1600000 -0.0940000 0.2140000 -0.1642426 -0.0957574 0.2140000 -0.1660000 -0.1000000 0.2140000 -0.1642426 -0.1042426 0.2140000 -0.1600000 -0.1060000 0.2140000 -0.1557574 -0.1042426 0.2140000 -0.1600000 -0.1000000 0.2240000 -0.1540000 -0.1000000 0.2240000 -0.1557574 -0.0957574 0.2240000 -0.1600000 -0.0940000 0.2240000 -0.1642426 -0.0957574 0.2240000 -0.1660000 -0.1000000 0.2240000 -0.1642426 -0.1042426 0.2240000 -0.1600000 -0.1060000 0.2240000 -0.1557574 -0.1042426 0.2240000 -0.1540000 0.1000000 0.2140000 -0.1557574 0.1042426 0.2140000 -0.1557574 0.1042426 0.2240000 -0.1540000 0.1000000 0.2240000 -0.1557574 0.1042426 0.2140000 -0.1600000 0.1060000 0.2140000 -0.1600000 0.1060000 0.2240000 -0.1557574 0.1042426 0.2240000 -0.1600000 0.1060000 0.2140000 -0.1642426 0.1042426 0.2140000 -0.1642426 0.1042426 0.2240000 -0.1600000 0.1060000 0.2240000 -0.1642426 0.1042426 0.2140000 -0.1660000 0.1000000 0.2140000 -0.1660000 0.1000000 0.2240000 -0.1642426 0.1042426 0.2240000 -0.1660000 0.1000000 0.2140000 -0.1642426 0.0957574 0.2140000 -0.1642426 0.0957574 0.2240000 -0.1660000 0.1000000 0.2240000 -0.1642426 0.0957574 0.2140000 -0.1600000 0.0940000 0.2140000 -0.1600000 0.0940000 0.2240000 -0.1642426 0.0957574 0.2240000 -0.1600000 0.0940000 0.2140000 -0.1557574 0.0957574 0.2140000 -0.1557574 0.0957574 0.2240000 -0.1600000 0.0940000 0.2240000 -0.1557574 0.0957574 0.2140000 -0.1540000 0.1000000 0.2140000 -0.1540000 0.1000000 0.2240000 -0.1557574 0.0957574 0.2240000 -0.1600000 0.1000000 0.2140000 -0.1540000 0.1000000 0.2140000 -0.1557574 0.1042426 0.2140000 -0.1600000 0.1060000 0.2140000 -0.1642426 0.1042426 0.2140000 -0.1660000 0.1000000 0.2140000 -0.1642426 0.0957574 0.2140000 -0.1600000 0.0940000 0.2140000 -0.1557574 0.0957574 0.2140000 -0.1600000 0.1000000 0.2240000 -0.1540000 0.1000000 0.2240000 -0.1557574 0.1042426 0.2240000 -0.1600000 0.1060000 0.2240000 -0.1642426 0.1042426 0.2240000 -0.1660000 0.1000000 0.2240000 -0.1642426 0.0957574 0.2240000 -0.1600000 0.0940000 0.2240000 -0.1557574 0.0957574 0.2240000 0.1660000 -0.1000000 0.2140000 0.1642426 -0.0957574 0.2140000 0.1642426 -0.0957574 0.2240000 0.1660000 -0.1000000 0.2240000 0.1642426 -0.0957574 0.2140000 0.1600000 -0.0940000 0.2140000 0.1600000 -0.0940000 0.2240000 0.1642426 -0.0957574 0.2240000 0.1600000 -0.0940000 0.2140000 0.1557574 -0.0957574 0.2140000 0.1557574 -0.0957574 0.2240000 0.1600000 -0.0940000 0.2240000 0.1557574 -0.0957574 0.2140000 0.1540000 -0.1000000 0.2140000 0.1540000 -0.1000000 0.2240000 0.1557574 -0.0957574 0.2240000 0.1540000 -0.1000000 0.2140000 0.1557574 -0.1042426 0.2140000 0.1557574 -0.1042426 0.2240000 0.1540000 -0.1000000 0.2240000 0.1557574 -0.1042426 0.2140000 0.1600000 -0.1060000 0.2140000 0.1600000 -0.1060000 0.2240000 0.1557574 -0.1042426 0.2240000 0.1600000 -0.1060000 0.2140000 0.1642426 -0.1042426 0.2140000 0.1642426 -0.1042426 0.2240000 0.1600000 -0.1060000 0.2240000 0.1642426 -0.1042426 0.2140000 0.1660000 -0.1000000 0.2140000 0.1660000 -0.1000000 0.2240000 0.1642426 -0.1042426 0.2240000 0.1600000 -0.1000000 0.2140000 0.1660000 -0.1000000 0.2140000 0.1642426 -0.0957574 0.2140000 0.1600000 -0.0940000 0.2140000 0.1557574 -0.0957574 0.2140000 0.1540000 -0.1000000 0.2140000 0.1557574 -0.1042426 0.2140000 0.1600000 -0.1060000 0.2140000 0.1642426 -0.1042426 0.2140000 0.1600000 -0.1000000 0.2240000 0.1660000 -0.1000000 0.2240000 0.1642426 -0.0957574 0.2240000 0.1600000 -0.0940000 0.2240000 0.1557574 -0.0957574 0.2240000 0.1540000 -0.1000000 0.2240000 0.1557574 -0.1042426 0.2240000 0.1600000 -0.1060000 0.2240000 0.1642426 -0.1042426 0.2240000 0.1660000 0.1000000 0.2140000 0.1642426 0.1042426 0.2140000 0.1642426 0.1042426 0.2240000 0.1660000 0.1000000 0.2240000 0.1642426 0.1042426 0.2140000 0.1600000 0.1060000 0.2140000 0.1600000 0.1060000 0.2240000 0.1642426 0.1042426 0.2240000 0.1600000 0.1060000 0.2140000 0.1557574 0.1042426 0.2140000 0.1557574 0.1042426 0.2240000 0.1600000 0.1060000 0.2240000 0.1557574 0.1042426 0.2140000 0.1540000 0.1000000 0.2140000 0.1540000 0.1000000 0.2240000 0.1557574 0.1042426 0.2240000 0.1540000 0.1000000 0.2140000 0.1557574 0.0957574 0.2140000 0.1557574 0.0957574 0.2240000 0.1540000 0.1000000 0.2240000 0.1557574 0.0957574 0.2140000 0.1600000 0.0940000 0.2140000 0.1600000 0.0940000 0.2240000 0.1557574 0.0957574 0.2240000 0.1600000 0.0940000 0.2140000 0.1642426 0.0957574 0.2140000 0.1642426 0.0957574 0.2240000 0.1600000 0.0940000 0.2240000 0.1642426 0.0957574 0.2140000 0.1660000 0.1000000 0.2140000 0.1660000 0.1000000 0.2240000 0.1642426 0.0957574 0.2240000 0.1600000 0.1000000 0.2140000 0.1660000 0.1000000 0.2140000 0.1642426 0.1042426 0.2140000 0.1600000 0.1060000 0.2140000 0.1557574 0.1042426 0.2140000 0.1540000 0.1000000 0.2140000 0.1557574 0.0957574 0.2140000 0.1600000 0.0940000 0.2140000 0.1642426 0.0957574 0.2140000 0.1600000 0.1000000 0.2240000 0.1660000 0.1000000 0.2240000 0.1642426 0.1042426 0.2240000 0.1600000 0.1060000 0.2240000 0.1557574 0.1042426 0.2240000 0.1540000 0.1000000 0.2240000 0.1557574 0.0957574 0.2240000 0.1600000 0.0940000 0.2240000 0.1642426 0.0957574 0.2240000</float_array>
        <technique_common><accessor count="584" source="#Pos-arr" stride="3">
          <param name="X" type="float"/><param name="Y" type="float"/><param name="Z" type="float"/>
        </accessor></technique_common>
      </source>
      <source id="Nor">
        <float_array count="1752" id="Nor-arr">1.0000000 0.0000000 0.0000000 1.0000000 0.0000000 0.0000000 1.0000000 0.0000000 0.0000000 1.0000000 0.0000000 0.0000000 -1.0000000 0.0000000 0.0000000 -1.0000000 0.0000000 0.0000000 -1.0000000 0.0000000 0.0000000 -1.0000000 0.0000000 0.0000000 0.0000000 1.0000000 0.0000000 0.0000000 1.0000000 0.0000000 0.0000000 1.0000000 0.0000000 0.0000000 1.0000000 0.0000000 0.0000000 -1.0000000 0.0000000 0.0000000 -1.0000000 0.0000000 0.0000000 -1.0000000 0.0000000 0.0000000 -1.0000000 0.0000000 0.0000000 0.0000000 1.0000000 0.0000000 0.0000000 1.0000000 0.0000000 0.0000000 1.0000000 0.0000000 0.0000000 1.0000000 0.0000000 0.0000000 -1.0000000 0.0000000 0.0000000 -1.0000000 0.0000000 0.0000000 -1.0000000 0.0000000 0.0000000 -1.0000000 1.0000000 0.0000000 0.0000000 1.0000000 0.0000000 0.0000000 1.0000000 0.0000000 0.0000000 1.0000000 0.0000000 0.0000000 -1.0000000 0.0000000 0.0000000 -1.0000000 0.0000000 0.0000000 -1.0000000 0.0000000 0.0000000 -1.0000000 0.0000000 0.0000000 0.0000000 1.0000000 0.0000000 0.0000000 1.0000000 0.0000000 0.0000000 1.0000000 0.0000000 0.0000000 1.0000000 0.0000000 0.0000000 -1.0000000 0.0000000 0.0000000 -1.0000000 0.0000000 0.0000000 -1.0000000 0.0000000 0.0000000 -1.0000000 0.0000000 0.0000000 0.0000000 1.0000000 0.0000000 0.0000000 1.0000000 0.0000000 0.0000000 1.0000000 0.0000000 0.0000000 1.0000000 0.0000000 0.0000000 -1.0000000 0.0000000 0.0000000 -1.0000000 0.0000000 0.0000000 -1.0000000 0.0000000 0.0000000 -1.0000000 1.0000000 0.0000000 0.0000000 1.0000000 0.0000000 0.0000000 1.0000000 0.0000000 0.0000000 1.0000000 0.0000000 0.0000000 -1.0000000 0.0000000 0.0000000 -1.0000000 0.0000000 0.0000000 -1.0000000 0.0000000 0.0000000 -1.0000000 0.0000000 0.0000000 0.0000000 1.0000000 0.0000000 0.0000000 1.0000000 0.0000000 0.0000000 1.0000000 0.0000000 0.0000000 1.0000000 0.0000000 0.0000000 -1.0000000 0.0000000 0.0000000 -1.0000000 0.0000000 0.0000000 -1.0000000 0.0000000 0.0000000 -1.0000000 0.0000000 0.0000000 0.0000000 1.0000000 0.0000000 0.0000000 1.0000000 0.0000000 0.0000000 1.0000000 0.0000000 0.0000000 1.0000000 0.0000000 0.0000000 -1.0000000 0.0000000 0.0000000 -1.0000000 0.0000000 0.0000000 -1.0000000 0.0000000 0.0000000 -1.0000000 1.0000000 0.0000000 0.0000000 1.0000000 0.0000000 0.0000000 1.0000000 0.0000000 0.0000000 1.0000000 0.0000000 0.0000000 -1.0000000 0.0000000 0.0000000 -1.0000000 0.0000000 0.0000000 -1.0000000 0.0000000 0.0000000 -1.0000000 0.0000000 0.0000000 0.0000000 1.0000000 0.0000000 0.0000000 1.0000000 0.0000000 0.0000000 1.0000000 0.0000000 0.0000000 1.0000000 0.0000000 0.0000000 -1.0000000 0.0000000 0.0000000 -1.0000000 0.0000000 0.0000000 -1.0000000 0.0000000 0.0000000 -1.0000000 0.0000000 0.0000000 0.0000000 1.0000000 0.0000000 0.0000000 1.0000000 0.0000000 0.0000000 1.0000000 0.0000000 0.0000000 1.0000000 0.0000000 0.0000000 -1.0000000 0.0000000 0.0000000 -1.0000000 0.0000000 0.0000000 -1.0000000 0.0000000 0.0000000 -1.0000000 1.0000000 0.0000000 0.0000000 1.0000000 0.0000000 0.0000000 1.0000000 0.0000000 0.0000000 1.0000000 0.0000000 0.0000000 -1.0000000 0.0000000 0.0000000 -1.0000000 0.0000000 0.0000000 -1.0000000 0.0000000 0.0000000 -1.0000000 0.0000000 0.0000000 0.0000000 1.0000000 0.0000000 0.0000000 1.0000000 0.0000000 0.0000000 1.0000000 0.0000000 0.0000000 1.0000000 0.0000000 0.0000000 -1.0000000 0.0000000 0.0000000 -1.0000000 0.0000000 0.0000000 -1.0000000 0.0000000 0.0000000 -1.0000000 0.0000000 0.0000000 0.0000000 1.0000000 0.0000000 0.0000000 1.0000000 0.0000000 0.0000000 1.0000000 0.0000000 0.0000000 1.0000000 0.0000000 0.0000000 -1.0000000 0.0000000 0.0000000 -1.0000000 0.0000000 0.0000000 -1.0000000 0.0000000 0.0000000 -1.0000000 1.0000000 0.0000000 0.0000000 1.0000000 0.0000000 0.0000000 1.0000000 0.0000000 0.0000000 1.0000000 0.0000000 0.0000000 -1.0000000 0.0000000 0.0000000 -1.0000000 0.0000000 0.0000000 -1.0000000 0.0000000 0.0000000 -1.0000000 0.0000000 0.0000000 0.0000000 1.0000000 0.0000000 0.0000000 1.0000000 0.0000000 0.0000000 1.0000000 0.0000000 0.0000000 1.0000000 0.0000000 0.0000000 -1.0000000 0.0000000 0.0000000 -1.0000000 0.0000000 0.0000000 -1.0000000 0.0000000 0.0000000 -1.0000000 0.0000000 0.0000000 0.0000000 1.0000000 0.0000000 0.0000000 1.0000000 0.0000000 0.0000000 1.0000000 0.0000000 0.0000000 1.0000000 0.0000000 0.0000000 -1.0000000 0.0000000 0.0000000 -1.0000000 0.0000000 0.0000000 -1.0000000 0.0000000 0.0000000 -1.0000000 1.0000000 0.0000000 0.0000000 1.0000000 0.0000000 0.0000000 1.0000000 0.0000000 0.0000000 1.0000000 0.0000000 0.0000000 -1.0000000 0.0000000 0.0000000 -1.0000000 0.0000000 0.0000000 -1.0000000 0.0000000 0.0000000 -1.0000000 0.0000000 0.0000000 0.0000000 1.0000000 0.0000000 0.0000000 1.0000000 0.0000000 0.0000000 1.0000000 0.0000000 0.0000000 1.0000000 0.0000000 0.0000000 -1.0000000 0.0000000 0.0000000 -1.0000000 0.0000000 0.0000000 -1.0000000 0.0000000 0.0000000 -1.0000000 0.0000000 0.0000000 0.0000000 1.0000000 0.0000000 0.0000000 1.0000000 0.0000000 0.0000000 1.0000000 0.0000000 0.0000000 1.0000000 0.0000000 0.0000000 -1.0000000 0.0000000 0.0000000 -1.0000000 0.0000000 0.0000000 -1.0000000 0.0000000 0.0000000 -1.0000000 1.0000000 0.0000000 0.0000000 1.0000000 0.0000000 0.0000000 1.0000000 0.0000000 0.0000000 1.0000000 0.0000000 0.0000000 -1.0000000 0.0000000 0.0000000 -1.0000000 0.0000000 0.0000000 -1.0000000 0.0000000 0.0000000 -1.0000000 0.0000000 0.0000000 0.0000000 1.0000000 0.0000000 0.0000000 1.0000000 0.0000000 0.0000000 1.0000000 0.0000000 0.0000000 1.0000000 0.0000000 0.0000000 -1.0000000 0.0000000 0.0000000 -1.0000000 0.0000000 0.0000000 -1.0000000 0.0000000 0.0000000 -1.0000000 0.0000000 0.0000000 0.0000000 1.0000000 0.0000000 0.0000000 1.0000000 0.0000000 0.0000000 1.0000000 0.0000000 0.0000000 1.0000000 0.0000000 0.0000000 -1.0000000 0.0000000 0.0000000 -1.0000000 0.0000000 0.0000000 -1.0000000 0.0000000 0.0000000 -1.0000000 1.0000000 0.0000000 0.0000000 1.0000000 0.0000000 0.0000000 1.0000000 0.0000000 0.0000000 1.0000000 0.0000000 0.0000000 -1.0000000 0.0000000 0.0000000 -1.0000000 0.0000000 0.0000000 -1.0000000 0.0000000 0.0000000 -1.0000000 0.0000000 0.0000000 0.0000000 1.0000000 0.0000000 0.0000000 1.0000000 0.0000000 0.0000000 1.0000000 0.0000000 0.0000000 1.0000000 0.0000000 0.0000000 -1.0000000 0.0000000 0.0000000 -1.0000000 0.0000000 0.0000000 -1.0000000 0.0000000 0.0000000 -1.0000000 0.0000000 0.0000000 0.0000000 1.0000000 0.0000000 0.0000000 1.0000000 0.0000000 0.0000000 1.0000000 0.0000000 0.0000000 1.0000000 0.0000000 0.0000000 -1.0000000 0.0000000 0.0000000 -1.0000000 0.0000000 0.0000000 -1.0000000 0.0000000 0.0000000 -1.0000000 1.0000000 0.0000000 0.0000000 1.0000000 0.0000000 0.0000000 1.0000000 0.0000000 0.0000000 1.0000000 0.0000000 0.0000000 -1.0000000 0.0000000 0.0000000 -1.0000000 0.0000000 0.0000000 -1.0000000 0.0000000 0.0000000 -1.0000000 0.0000000 0.0000000 0.0000000 1.0000000 0.0000000 0.0000000 1.0000000 0.0000000 0.0000000 1.0000000 0.0000000 0.0000000 1.0000000 0.0000000 0.0000000 -1.0000000 0.0000000 0.0000000 -1.0000000 0.0000000 0.0000000 -1.0000000 0.0000000 0.0000000 -1.0000000 0.0000000 0.0000000 0.0000000 1.0000000 0.0000000 0.0000000 1.0000000 0.0000000 0.0000000 1.0000000 0.0000000 0.0000000 1.0000000 0.0000000 0.0000000 -1.0000000 0.0000000 0.0000000 -1.0000000 0.0000000 0.0000000 -1.0000000 0.0000000 0.0000000 -1.0000000 1.0000000 0.0000000 0.0000000 1.0000000 0.0000000 0.0000000 1.0000000 0.0000000 0.0000000 1.0000000 0.0000000 0.0000000 -1.0000000 0.0000000 0.0000000 -1.0000000 0.0000000 0.0000000 -1.0000000 0.0000000 0.0000000 -1.0000000 0.0000000 0.0000000 0.0000000 1.0000000 0.0000000 0.0000000 1.0000000 0.0000000 0.0000000 1.0000000 0.0000000 0.0000000 1.0000000 0.0000000 0.0000000 -1.0000000 0.0000000 0.0000000 -1.0000000 0.0000000 0.0000000 -1.0000000 0.0000000 0.0000000 -1.0000000 0.0000000 0.0000000 0.0000000 1.0000000 0.0000000 0.0000000 1.0000000 0.0000000 0.0000000 1.0000000 0.0000000 0.0000000 1.0000000 0.0000000 0.0000000 -1.0000000 0.0000000 0.0000000 -1.0000000 0.0000000 0.0000000 -1.0000000 0.0000000 0.0000000 -1.0000000 1.0000000 0.0000000 0.0000000 1.0000000 0.0000000 0.0000000 1.0000000 0.0000000 0.0000000 1.0000000 0.0000000 0.0000000 -1.0000000 0.0000000 0.0000000 -1.0000000 0.0000000 0.0000000 -1.0000000 0.0000000 0.0000000 -1.0000000 0.0000000 0.0000000 0.0000000 1.0000000 0.0000000 0.0000000 1.0000000 0.0000000 0.0000000 1.0000000 0.0000000 0.0000000 1.0000000 0.0000000 0.0000000 -1.0000000 0.0000000 0.0000000 -1.0000000 0.0000000 0.0000000 -1.0000000 0.0000000 0.0000000 -1.0000000 0.0000000 0.0000000 0.0000000 1.0000000 0.0000000 0.0000000 1.0000000 0.0000000 0.0000000 1.0000000 0.0000000 0.0000000 1.0000000 0.0000000 0.0000000 -1.0000000 0.0000000 0.0000000 -1.0000000 0.0000000 0.0000000 -1.0000000 0.0000000 0.0000000 -1.0000000 1.0000000 0.0000000 0.0000000 1.0000000 0.0000000 0.0000000 1.0000000 0.0000000 0.0000000 1.0000000 0.0000000 0.0000000 -1.0000000 0.0000000 0.0000000 -1.0000000 0.0000000 0.0000000 -1.0000000 0.0000000 0.0000000 -1.0000000 0.0000000 0.0000000 0.0000000 1.0000000 0.0000000 0.0000000 1.0000000 0.0000000 0.0000000 1.0000000 0.0000000 0.0000000 1.0000000 0.0000000 0.0000000 -1.0000000 0.0000000 0.0000000 -1.0000000 0.0000000 0.0000000 -1.0000000 0.0000000 0.0000000 -1.0000000 0.0000000 0.0000000 0.0000000 1.0000000 0.0000000 0.0000000 1.0000000 0.0000000 0.0000000 1.0000000 0.0000000 0.0000000 1.0000000 0.0000000 0.0000000 -1.0000000 0.0000000 0.0000000 -1.0000000 0.0000000 0.0000000 -1.0000000 0.0000000 0.0000000 -1.0000000 1.0000000 0.0000000 0.0000000 1.0000000 0.0000000 0.0000000 1.0000000 0.0000000 0.0000000 1.0000000 0.0000000 0.0000000 -1.0000000 0.0000000 0.0000000 -1.0000000 0.0000000 0.0000000 -1.0000000 0.0000000 0.0000000 -1.0000000 0.0000000 0.0000000 0.0000000 1.0000000 0.0000000 0.0000000 1.0000000 0.0000000 0.0000000 1.0000000 0.0000000 0.0000000 1.0000000 0.0000000 0.0000000 -1.0000000 0.0000000 0.0000000 -1.0000000 0.0000000 0.0000000 -1.0000000 0.0000000 0.0000000 -1.0000000 0.0000000 0.0000000 0.0000000 1.0000000 0.0000000 0.0000000 1.0000000 0.0000000 0.0000000 1.0000000 0.0000000 0.0000000 1.0000000 0.0000000 0.0000000 -1.0000000 0.0000000 0.0000000 -1.0000000 0.0000000 0.0000000 -1.0000000 0.0000000 0.0000000 -1.0000000 1.0000000 0.0000000 0.0000000 1.0000000 0.0000000 0.0000000 1.0000000 0.0000000 0.0000000 1.0000000 0.0000000 0.0000000 -1.0000000 0.0000000 0.0000000 -1.0000000 0.0000000 0.0000000 -1.0000000 0.0000000 0.0000000 -1.0000000 0.0000000 0.0000000 0.0000000 1.0000000 0.0000000 0.0000000 1.0000000 0.0000000 0.0000000 1.0000000 0.0000000 0.0000000 1.0000000 0.0000000 0.0000000 -1.0000000 0.0000000 0.0000000 -1.0000000 0.0000000 0.0000000 -1.0000000 0.0000000 0.0000000 -1.0000000 0.0000000 0.0000000 0.0000000 1.0000000 0.0000000 0.0000000 1.0000000 0.0000000 0.0000000 1.0000000 0.0000000 0.0000000 1.0000000 0.0000000 0.0000000 -1.0000000 0.0000000 0.0000000 -1.0000000 0.0000000 0.0000000 -1.0000000 0.0000000 0.0000000 -1.0000000 1.0000000 0.0000000 0.0000000 1.0000000 0.0000000 0.0000000 1.0000000 0.0000000 0.0000000 1.0000000 0.0000000 0.0000000 -1.0000000 0.0000000 0.0000000 -1.0000000 0.0000000 0.0000000 -1.0000000 0.0000000 0.0000000 -1.0000000 0.0000000 0.0000000 0.0000000 1.0000000 0.0000000 0.0000000 1.0000000 0.0000000 0.0000000 1.0000000 0.0000000 0.0000000 1.0000000 0.0000000 0.0000000 -1.0000000 0.0000000 0.0000000 -1.0000000 0.0000000 0.0000000 -1.0000000 0.0000000 0.0000000 -1.0000000 0.0000000 0.0000000 0.0000000 1.0000000 0.0000000 0.0000000 1.0000000 0.0000000 0.0000000 1.0000000 0.0000000 0.0000000 1.0000000 0.0000000 0.0000000 -1.0000000 0.0000000 0.0000000 -1.0000000 0.0000000 0.0000000 -1.0000000 0.0000000 0.0000000 -1.0000000 1.0000000 0.0000000 0.0000000 0.7071068 0.7071068 0.0000000 0.7071068 0.7071068 0.0000000 1.0000000 0.0000000 0.0000000 0.7071068 0.7071068 0.0000000 0.0000000 1.0000000 0.0000000 0.0000000 1.0000000 0.0000000 0.7071068 0.7071068 0.0000000 0.0000000 1.0000000 0.0000000 -0.7071068 0.7071068 0.0000000 -0.7071068 0.7071068 0.0000000 0.0000000 1.0000000 0.0000000 -0.7071068 0.7071068 0.0000000 -1.0000000 0.0000000 0.0000000 -1.0000000 0.0000000 0.0000000 -0.7071068 0.7071068 0.0000000 -1.0000000 0.0000000 0.0000000 -0.7071068 -0.7071068 0.0000000 -0.7071068 -0.7071068 0.0000000 -1.0000000 0.0000000 0.0000000 -0.7071068 -0.7071068 0.0000000 -0.0000000 -1.0000000 0.0000000 -0.0000000 -1.0000000 0.0000000 -0.7071068 -0.7071068 0.0000000 -0.0000000 -1.0000000 0.0000000 0.7071068 -0.7071068 0.0000000 0.7071068 -0.7071068 0.0000000 -0.0000000 -1.0000000 0.0000000 0.7071068 -0.7071068 0.0000000 1.0000000 -0.0000000 0.0000000 1.0000000 -0.0000000 0.0000000 0.7071068 -0.7071068 0.0000000 0.0000000 0.0000000 -1.0000000 0.0000000 0.0000000 -1.0000000 0.0000000 0.0000000 -1.0000000 0.0000000 0.0000000 -1.0000000 0.0000000 0.0000000 -1.0000000 0.0000000 0.0000000 -1.0000000 0.0000000 0.0000000 -1.0000000 0.0000000 0.0000000 -1.0000000 0.0000000 0.0000000 -1.0000000 0.0000000 0.0000000 1.0000000 0.0000000 0.0000000 1.0000000 0.0000000 0.0000000 1.0000000 0.0000000 0.0000000 1.0000000 0.0000000 0.0000000 1.0000000 0.0000000 0.0000000 1.0000000 0.0000000 0.0000000 1.0000000 0.0000000 0.0000000 1.0000000 0.0000000 0.0000000 1.0000000 1.0000000 0.0000000 0.0000000 0.7071068 0.7071068 0.0000000 0.7071068 0.7071068 0.0000000 1.0000000 0.0000000 0.0000000 0.7071068 0.7071068 0.0000000 0.0000000 1.0000000 0.0000000 0.0000000 1.0000000 0.0000000 0.7071068 0.7071068 0.0000000 0.0000000 1.0000000 0.0000000 -0.7071068 0.7071068 0.0000000 -0.7071068 0.7071068 0.0000000 0.0000000 1.0000000 0.0000000 -0.7071068 0.7071068 0.0000000 -1.0000000 0.0000000 0.0000000 -1.0000000 0.0000000 0.0000000 -0.7071068 0.7071068 0.0000000 -1.0000000 0.0000000 0.0000000 -0.7071068 -0.7071068 0.0000000 -0.7071068 -0.7071068 0.0000000 -1.0000000 0.0000000 0.0000000 -0.7071068 -0.7071068 0.0000000 -0.0000000 -1.0000000 0.0000000 -0.0000000 -1.0000000 0.0000000 -0.7071068 -0.7071068 0.0000000 -0.0000000 -1.0000000 0.0000000 0.7071068 -0.7071068 0.0000000 0.7071068 -0.7071068 0.0000000 -0.0000000 -1.0000000 0.0000000 0.7071068 -0.7071068 0.0000000 1.0000000 -0.0000000 0.0000000 1.0000000 -0.0000000 0.0000000 0.7071068 -0.7071068 0.0000000 0.0000000 0.0000000 -1.0000000 0.0000000 0.0000000 -1.0000000 0.0000000 0.0000000 -1.0000000 0.0000000 0.0000000 -1.0000000 0.0000000 0.0000000 -1.0000000 0.0000000 0.0000000 -1.0000000 0.0000000 0.0000000 -1.0000000 0.0000000 0.0000000 -1.0000000 0.0000000 0.0000000 -1.0000000 0.0000000 0.0000000 1.0000000 0.0000000 0.0000000 1.0000000 0.0000000 0.0000000 1.0000000 0.0000000 0.0000000 1.0000000 0.0000000 0.0000000 1.0000000 0.0000000 0.0000000 1.0000000 0.0000000 0.0000000 1.0000000 0.0000000 0.0000000 1.0000000 0.0000000 0.0000000 1.0000000 1.0000000 0.0000000 0.0000000 0.7071068 0.7071068 0.0000000 0.7071068 0.7071068 0.0000000 1.0000000 0.0000000 0.0000000 0.7071068 0.7071068 0.0000000 0.0000000 1.0000000 0.0000000 0.0000000 1.0000000 0.0000000 0.7071068 0.7071068 0.0000000 0.0000000 1.0000000 0.0000000 -0.7071068 0.7071068 0.0000000 -0.7071068 0.7071068 0.0000000 0.0000000 1.0000000 0.0000000 -0.7071068 0.7071068 0.0000000 -1.0000000 0.0000000 0.0000000 -1.0000000 0.0000000 0.0000000 -0.7071068 0.7071068 0.0000000 -1.0000000 0.0000000 0.0000000 -0.7071068 -0.7071068 0.0000000 -0.7071068 -0.7071068 0.0000000 -1.0000000 0.0000000 0.0000000 -0.7071068 -0.7071068 0.0000000 -0.0000000 -1.0000000 0.0000000 -0.0000000 -1.0000000 0.0000000 -0.7071068 -0.7071068 0.0000000 -0.0000000 -1.0000000 0.0000000 0.7071068 -0.7071068 0.0000000 0.7071068 -0.7071068 0.0000000 -0.0000000 -1.0000000 0.0000000 0.7071068 -0.7071068 0.0000000 1.0000000 -0.0000000 0.0000000 1.0000000 -0.0000000 0.0000000 0.7071068 -0.7071068 0.0000000 0.0000000 0.0000000 -1.0000000 0.0000000 0.0000000 -1.0000000 0.0000000 0.0000000 -1.0000000 0.0000000 0.0000000 -1.0000000 0.0000000 0.0000000 -1.0000000 0.0000000 0.0000000 -1.0000000 0.0000000 0.0000000 -1.0000000 0.0000000 0.0000000 -1.0000000 0.0000000 0.0000000 -1.0000000 0.0000000 0.0000000 1.0000000 0.0000000 0.0000000 1.0000000 0.0000000 0.0000000 1.0000000 0.0000000 0.0000000 1.0000000 0.0000000 0.0000000 1.0000000 0.0000000 0.0000000 1.0000000 0.0000000 0.0000000 1.0000000 0.0000000 0.0000000 1.0000000 0.0000000 0.0000000 1.0000000 1.0000000 0.0000000 0.0000000 0.7071068 0.7071068 0.0000000 0.7071068 0.7071068 0.0000000 1.0000000 0.0000000 0.0000000 0.7071068 0.7071068 0.0000000 0.0000000 1.0000000 0.0000000 0.0000000 1.0000000 0.0000000 0.7071068 0.7071068 0.0000000 0.0000000 1.0000000 0.0000000 -0.7071068 0.7071068 0.0000000 -0.7071068 0.7071068 0.0000000 0.0000000 1.0000000 0.0000000 -0.7071068 0.7071068 0.0000000 -1.0000000 0.0000000 0.0000000 -1.0000000 0.0000000 0.0000000 -0.7071068 0.7071068 0.0000000 -1.0000000 0.0000000 0.0000000 -0.7071068 -0.7071068 0.0000000 -0.7071068 -0.7071068 0.0000000 -1.0000000 0.0000000 0.0000000 -0.7071068 -0.7071068 0.0000000 -0.0000000 -1.0000000 0.0000000 -0.0000000 -1.0000000 0.0000000 -0.7071068 -0.7071068 0.0000000 -0.0000000 -1.0000000 0.0000000 0.7071068 -0.7071068 0.0000000 0.7071068 -0.7071068 0.0000000 -0.0000000 -1.0000000 0.0000000 0.7071068 -0.7071068 0.0000000 1.0000000 -0.0000000 0.0000000 1.0000000 -0.0000000 0.0000000 0.7071068 -0.7071068 0.0000000 0.0000000 0.0000000 -1.0000000 0.0000000 0.0000000 -1.0000000 0.0000000 0.0000000 -1.0000000 0.0000000 0.0000000 -1.0000000 0.0000000 0.0000000 -1.0000000 0.0000000 0.0000000 -1.0000000 0.0000000 0.0000000 -1.0000000 0.0000000 0.0000000 -1.0000000 0.0000000 0.0000000 -1.0000000 0.0000000 0.0000000 1.0000000 0.0000000 0.0000000 1.0000000 0.0000000 0.0000000 1.0000000 0.0000000 0.0000000 1.0000000 0.0000000 0.0000000 1.0000000 0.0000000 0.0000000 1.0000000 0.0000000 0.0000000 1.0000000 0.0000000 0.0000000 1.0000000 0.0000000 0.0000000 1.0000000</float_array>
        <technique_common><accessor count="584" source="#Nor-arr" stride="3">
          <param name="X" type="float"/><param name="Y" type="float"/><param name="Z" type="float"/>
        </accessor></technique_common>
      </source>
      <vertices id="Vert">
        <input semantic="POSITION" source="#Pos"/>
        <input semantic="NORMAL" source="#Nor"/>
      </vertices>
      <triangles count="320" material="Mat">
        <input offset="0" semantic="VERTEX" source="#Vert"/>
        <p>0 1 2 0 2 3 4 5 6 4 6 7 8 9 10 8 10 11 12 13 14 12 14 15 16 17 18 16 18 19 20 21 22 20 22 23 24 25 26 24 26 27 28 29 30 28 30 31 32 33 34 32 34 35 36 37 38 36 38 39 40 41 42 40 42 43 44 45 46 44 46 47 48 49 50 48 50 51 52 53 54 52 54 55 56 57 58 56 58 59 60 61 62 60 62 63 64 65 66 64 66 67 68 69 70 68 70 71 72 73 74 72 74 75 76 77 78 76 78 79 80 81 82 80 82 83 84 85 86 84 86 87 88 89 90 88 90 91 92 93 94 92 94 95 96 97 98 96 98 99 100 101 102 100 102 103 104 105 106 104 106 107 108 109 110 108 110 111 112 113 114 112 114 115 116 117 118 116 118 119 120 121 122 120 122 123 124 125 126 124 126 127 128 129 130 128 130 131 132 133 134 132 134 135 136 137 138 136 138 139 140 141 142 140 142 143 144 145 146 144 146 147 148 149 150 148 150 151 152 153 154 152 154 155 156 157 158 156 158 159 160 161 162 160 162 163 164 165 166 164 166 167 168 169 170 168 170 171 172 173 174 172 174 175 176 177 178 176 178 179 180 181 182 180 182 183 184 185 186 184 186 187 188 189 190 188 190 191 192 193 194 192 194 195 196 197 198 196 198 199 200 201 202 200 202 203 204 205 206 204 206 207 208 209 210 208 210 211 212 213 214 212 214 215 216 217 218 216 218 219 220 221 222 220 222 223 224 225 226 224 226 227 228 229 230 228 230 231 232 233 234 232 234 235 236 237 238 236 238 239 240 241 242 240 242 243 244 245 246 244 246 247 248 249 250 248 250 251 252 253 254 252 254 255 256 257 258 256 258 259 260 261 262 260 262 263 264 265 266 264 266 267 268 269 270 268 270 271 272 273 274 272 274 275 276 277 278 276 278 279 280 281 282 280 282 283 284 285 286 284 286 287 288 289 290 288 290 291 292 293 294 292 294 295 296 297 298 296 298 299 300 301 302 300 302 303 304 305 306 304 306 307 308 309 310 308 310 311 312 313 314 312 314 315 316 317 318 316 318 319 320 321 322 320 322 323 324 325 326 324 326 327 328 329 330 328 330 331 332 333 334 332 334 335 336 337 338 336 338 339 340 341 342 340 342 343 344 345 346 344 346 347 348 349 350 348 350 351 352 353 354 352 354 355 356 357 358 356 358 359 360 361 362 360 362 363 364 365 366 364 366 367 368 369 370 368 370 371 372 373 374 372 374 375 376 377 378 376 378 379 380 381 382 380 382 383 384 385 386 384 386 387 388 389 390 388 390 391 392 393 394 392 394 395 396 397 398 396 398 399 400 401 402 400 402 403 404 405 406 404 406 407 408 409 410 408 410 411 412 413 414 412 414 415 416 418 417 416 419 418 416 420 419 416 421 420 416 422 421 416 423 422 416 424 423 416 417 424 425 426 427 425 427 428 425 428 429 425 429 430 425 430 431 425 431 432 425 432 433 425 433 426 434 435 436 434 436 437 438 439 440 438 440 441 442 443 444 442 444 445 446 447 448 446 448 449 450 451 452 450 452 453 454 455 456 454 456 457 458 459 460 458 460 461 462 463 464 462 464 465 466 468 467 466 469 468 466 470 469 466 471 470 466 472 471 466 473 472 466 474 473 466 467 474 475 476 477 475 477 478 475 478 479 475 479 480 475 480 481 475 481 482 475 482 483 475 483 476 484 485 486 484 486 487 488 489 490 488 490 491 492 493 494 492 494 495 496 497 498 496 498 499 500 501 502 500 502 503 504 505 506 504 506 507 508 509 510 508 510 511 512 513 514 512 514 515 516 518 517 516 519 518 516 520 519 516 521 520 516 522 521 516 523 522 516 524 523 516 517 524 525 526 527 525 527 528 525 528 529 525 529 530 525 530 531 525 531 532 525 532 533 525 533 526 534 535 536 534 536 537 538 539 540 538 540 541 542 543 544 542 544 545 546 547 548 546 548 549 550 551 552 550 552 553 554 555 556 554 556 557 558 559 560 558 560 561 562 563 564 562 564 565 566 568 567 566 569 568 566 570 569 566 571 570 566 572 571 566 573 572 566 574 573 566 567 574 575 576 577 575 577 578 575 578 579 575 579 580 575 580 581 575 581 582 575 582 583 575 583 576</p>
      </triangles>
    </mesh></geometry>
  </library_geometries>
  <library_visual_scenes>
    <visual_scene id="Scene">
      <node id="Node" type="NODE">
        <instance_geometry url="#Geom">
          <bind_material><technique_common>
            <instance_material symbol="Mat" target="#Mat"/>
          </technique_common></bind_material>
        </instance_geometry>
      </node>
    </visual_scene>
  </library_visual_scenes>
  <scene><instance_visual_scene url="#Scene"/></scene>
</COLLADA>