<?xml version="1.0" encoding="UTF-8" standalone="no" ?>
<COLLADA version="1.4.1" xmlns="http://www.collada.org/2005/11/COLLADASchema">
  <asset>
    <created>2024-01-01T00:00:00</created><modified>2024-01-01T00:00:00</modified>
    <unit meter="1" name="meters"/><up_axis>Z_UP</up_axis>
  </asset>
  <library_materials>
    <material id="Mat" name="Mat"><instance_effect url="#Mat-fx"/></material>
  </library_materials>
  <library_effects>
    <effect id="Mat-fx"><profile_COMMON><technique sid="COMMON"><phong>
      <emission><color>0 0 0 1</color></emission>
      <ambient><color>0.0180 0.0180 0.0180 1</color></ambient>
      <diffuse><color>0.1000 0.1000 0.1000 1.0000</color></diffuse>
      <specular><color>0.35 0.35 0.35 1</color></specular>
      <shininess><float>65</float></shininess>
      <transparent opaque="A_ONE"><color>1 1 1 1</color></transparent>
      <transparency><float>1</float></transparency>
    </phong></technique></profile_COMMON></effect>
  </library_effects>
  <library_geometries>
    <geometry id="Geom"><mesh>
      <source id="Pos">
        <float_array count="2244" id="Pos-arr">0.1000000 0.0000000 -0.0300000 0.0991445 0.0130526 -0.0300000 0.0991445 0.0130526 0.0300000 0.1000000 0.0000000 0.0300000 0.0991445 0.0130526 -0.0300000 0.0965926 0.0258819 -0.0300000 0.0965926 0.0258819 0.0300000 0.0991445 0.0130526 0.0300000 0.0965926 0.0258819 -0.0300000 0.0923880 0.0382683 -0.0300000 0.0923880 0.0382683 0.0300000 0.0965926 0.0258819 0.0300000 0.0923880 0.0382683 -0.0300000 0.0866025 0.0500000 -0.0300000 0.0866025 0.0500000 0.0300000 0.0923880 0.0382683 0.0300000 0.0866025 0.0500000 -0.0300000 0.0793353 0.0608761 -0.0300000 0.0793353 0.0608761 0.0300000 0.0866025 0.0500000 0.0300000 0.0793353 0.0608761 -0.0300000 0.0707107 0.0707107 -0.0300000 0.0707107 0.0707107 0.0300000 0.0793353 0.0608761 0.0300000 0.0707107 0.0707107 -0.0300000 0.0608761 0.0793353 -0.0300000 0.0608761 0.0793353 0.0300000 0.0707107 0.0707107 0.0300000 0.0608761 0.0793353 -0.0300000 0.0500000 0.0866025 -0.0300000 0.0500000 0.0866025 0.0300000 0.0608761 0.0793353 0.0300000 0.0500000 0.0866025 -0.0300000 0.0382683 0.0923880 -0.0300000 0.0382683 0.0923880 0.0300000 0.0500000 0.0866025 0.0300000 0.0382683 0.0923880 -0.0300000 0.0258819 0.0965926 -0.0300000 0.0258819 0.0965926 0.0300000 0.0382683 0.0923880 0.0300000 0.0258819 0.0965926 -0.0300000 0.0130526 0.0991445 -0.0300000 0.0130526 0.0991445 0.0300000 0.0258819 0.0965926 0.0300000 0.0130526 0.0991445 -0.0300000 0.0000000 0.1000000 -0.0300000 0.0000000 0.1000000 0.0300000 0.0130526 0.0991445 0.0300000 0.0000000 0.1000000 -0.0300000 -0.0130526 0.0991445 -0.0300000 -0.0130526 0.0991445 0.0300000 0.0000000 0.1000000 0.0300000 -0.0130526 0.0991445 -0.0300000 -0.0258819 0.0965926 -0.0300000 -0.0258819 0.0965926 0.0300000 -0.0130526 0.0991445 0.0300000 -0.0258819 0.0965926 -0.0300000 -0.0382683 0.0923880 -0.0300000 -0.0382683 0.0923880 0.0300000 -0.0258819 0.0965926 0.0300000 -0.0382683 0.0923880 -0.0300000 -0.0500000 0.0866025 -0.0300000 -0.0500000 0.0866025 0.0300000 -0.0382683 0.0923880 0.0300000 -0.0500000 0.0866025 -0.0300000 -0.0608761 0.0793353 -0.0300000 -0.0608761 0.0793353 0.0300000 -0.0500000 0.0866025 0.0300000 -0.0608761 0.0793353 -0.0300000 -0.0707107 0.0707107 -0.0300000 -0.0707107 0.0707107 0.0300000 -0.0608761 0.0793353 0.0300000 -0.0707107 0.0707107 -0.0300000 -0.0793353 0.0608761 -0.0300000 -0.0793353 0.0608761 0.0300000 -0.0707107 0.0707107 0.0300000 -0.0793353 0.0608761 -0.0300000 -0.0866025 0.0500000 -0.0300000 -0.0866025 0.0500000 0.0300000 -0.0793353 0.0608761 0.0300000 -0.0866025 0.0500000 -0.0300000 -0.0923880 0.0382683 -0.0300000 -0.0923880 0.0382683 0.0300000 -0.0866025 0.0500000 0.0300000 -0.0923880 0.0382683 -0.0300000 -0.0965926 0.0258819 -0.0300000 -0.0965926 0.0258819 0.0300000 -0.0923880 0.0382683 0.0300000 -0.0965926 0.0258819 -0.0300000 -0.0991445 0.0130526 -0.0300000 -0.0991445 0.0130526 0.0300000 -0.0965926 0.0258819 0.0300000 -0.0991445 0.0130526 -0.0300000 -0.1000000 0.0000000 -0.0300000 -0.1000000 0.0000000 0.0300000 -0.0991445 0.0130526 0.0300000 -0.1000000 0.0000000 -0.0300000 -0.0991445 -0.0130526 -0.0300000 -0.0991445 -0.0130526 0.0300000 -0.1000000 0.0000000 0.0300000 -0.0991445 -0.0130526 -0.0300000 -0.0965926 -0.0258819 -0.0300000 -0.0965926 -0.0258819 0.0300000 -0.0991445 -0.0130526 0.0300000 -0.0965926 -0.0258819 -0.0300000 -0.0923880 -0.0382683 -0.0300000 -0.0923880 -0.0382683 0.0300000 -0.0965926 -0.0258819 0.0300000 -0.0923880 -0.0382683 -0.0300000 -0.0866025 -0.0500000 -0.0300000 -0.0866025 -0.0500000 0.0300000 -0.0923880 -0.0382683 0.0300000 -0.0866025 -0.0500000 -0.0300000 -0.0793353 -0.0608761 -0.0300000 -0.0793353 -0.0608761 0.0300000 -0.0866025 -0.0500000 0.0300000 -0.0793353 -0.0608761 -0.0300000 -0.0707107 -0.0707107 -0.0300000 -0.0707107 -0.0707107 0.0300000 -0.0793353 -0.0608761 0.0300000 -0.0707107 -0.0707107 -0.0300000 -0.0608761 -0.0793353 -0.0300000 -0.0608761 -0.0793353 0.0300000 -0.0707107 -0.0707107 0.0300000 -0.0608761 -0.0793353 -0.0300000 -0.0500000 -0.0866025 -0.0300000 -0.0500000 -0.0866025 0.0300000 -0.0608761 -0.0793353 0.0300000 -0.0500000 -0.0866025 -0.0300000 -0.0382683 -0.0923880 -0.0300000 -0.0382683 -0.0923880 0.0300000 -0.0500000 -0.0866025 0.0300000 -0.0382683 -0.0923880 -0.0300000 -0.0258819 -0.0965926 -0.0300000 -0.0258819 -0.0965926 0.0300000 -0.0382683 -0.0923880 0.0300000 -0.0258819 -0.0965926 -0.0300000 -0.0130526 -0.0991445 -0.0300000 -0.0130526 -0.0991445 0.0300000 -0.0258819 -0.0965926 0.0300000 -0.0130526 -0.0991445 -0.0300000 -0.0000000 -0.1000000 -0.0300000 -0.0000000 -0.1000000 0.0300000 -0.0130526 -0.0991445 0.0300000 -0.0000000 -0.1000000 -0.0300000 0.0130526 -0.0991445 -0.0300000 0.0130526 -0.0991445 0.0300000 -0.0000000 -0.1000000 0.0300000 0.0130526 -0.0991445 -0.0300000 0.0258819 -0.0965926 -0.0300000 0.0258819 -0.0965926 0.0300000 0.0130526 -0.0991445 0.0300000 0.0258819 -0.0965926 -0.0300000 0.0382683 -0.0923880 -0.0300000 0.0382683 -0.0923880 0.0300000 0.0258819 -0.0965926 0.0300000 0.0382683 -0.0923880 -0.0300000 0.0500000 -0.0866025 -0.0300000 0.0500000 -0.0866025 0.0300000 0.0382683 -0.0923880 0.0300000 0.0500000 -0.0866025 -0.0300000 0.0608761 -0.0793353 -0.0300000 0.0608761 -0.0793353 0.0300000 0.0500000 -0.0866025 0.0300000 0.0608761 -0.0793353 -0.0300000 0.0707107 -0.0707107 -0.0300000 0.0707107 -0.0707107 0.0300000 0.0608761 -0.0793353 0.0300000 0.0707107 -0.0707107 -0.0300000 0.0793353 -0.0608761 -0.0300000 0.0793353 -0.0608761 0.0300000 0.0707107 -0.0707107 0.0300000 0.0793353 -0.0608761 -0.0300000 0.0866025 -0.0500000 -0.0300000 0.0866025 -0.0500000 0.0300000 0.0793353 -0.0608761 0.0300000 0.0866025 -0.0500000 -0.0300000 0.0923880 -0.0382683 -0.0300000 0.0923880 -0.0382683 0.0300000 0.0866025 -0.0500000 0.0300000 0.0923880 -0.0382683 -0.0300000 0.0965926 -0.0258819 -0.0300000 0.0965926 -0.0258819 0.0300000 0.0923880 -0.0382683 0.0300000 0.0965926 -0.0258819 -0.0300000 0.0991445 -0.0130526 -0.0300000 0.0991445 -0.0130526 0.0300000 0.0965926 -0.0258819 0.0300000 0.0991445 -0.0130526 -0.0300000 0.1000000 -0.0000000 -0.0300000 0.1000000 -0.0000000 0.0300000 0.0991445 -0.0130526 0.0300000 0.0000000 0.0000000 -0.0300000 0.1000000 0.0000000 -0.0300000 0.0991445 0.0130526 -0.0300000 0.0965926 0.0258819 -0.0300000 0.0923880 0.0382683 -0.0300000 0.0866025 0.0500000 -0.0300000 0.0793353 0.0608761 -0.0300000 0.0707107 0.0707107 -0.0300000 0.0608761 0.0793353 -0.0300000 0.0500000 0.0866025 -0.0300000 0.0382683 0.0923880 -0.0300000 0.0258819 0.0965926 -0.0300000 0.0130526 0.0991445 -0.0300000 0.0000000 0.1000000 -0.0300000 -0.0130526 0.0991445 -0.0300000 -0.0258819 0.0965926 -0.0300000 -0.0382683 0.0923880 -0.0300000 -0.0500000 0.0866025 -0.0300000 -0.0608761 0.0793353 -0.0300000 -0.0707107 0.0707107 -0.0300000 -0.0793353 0.0608761 -0.0300000 -0.0866025 0.0500000 -0.0300000 -0.0923880 0.0382683 -0.0300000 -0.0965926 0.0258819 -0.0300000 -0.0991445 0.0130526 -0.0300000 -0.1000000 0.0000000 -0.0300000 -0.0991445 -0.0130526 -0.0300000 -0.0965926 -0.0258819 -0.0300000 -0.0923880 -0.0382683 -0.0300000 -0.0866025 -0.0500000 -0.0300000 -0.0793353 -0.0608761 -0.0300000 -0.0707107 -0.0707107 -0.0300000 -0.0608761 -0.0793353 -0.0300000 -0.0500000 -0.0866025 -0.0300000 -0.0382683 -0.0923880 -0.0300000 -0.0258819 -0.0965926 -0.0300000 -0.0130526 -0.0991445 -0.0300000 -0.0000000 -0.1000000 -0.0300000 0.0130526 -0.0991445 -0.0300000 0.0258819 -0.0965926 -0.0300000 0.0382683 -0.0923880 -0.0300000 0.0500000 -0.0866025 -0.0300000 0.0608761 -0.0793353 -0.0300000 0.0707107 -0.0707107 -0.0300000 0.0793353 -0.0608761 -0.0300000 0.0866025 -0.0500000 -0.0300000 0.0923880 -0.0382683 -0.0300000 0.0965926 -0.0258819 -0.0300000 0.0991445 -0.0130526 -0.0300000 0.0000000 0.0000000 0.0300000 0.1000000 0.0000000 0.0300000 0.0991445 0.0130526 0.0300000 0.0965926 0.0258819 0.0300000 0.0923880 0.0382683 0.0300000 0.0866025 0.0500000 0.0300000 0.0793353 0.0608761 0.0300000 0.0707107 0.0707107 0.0300000 0.0608761 0.0793353 0.0300000 0.0500000 0.0866025 0.0300000 0.0382683 0.0923880 0.0300000 0.0258819 0.0965926 0.0300000 0.0130526 0.0991445 0.0300000 0.0000000 0.1000000 0.0300000 -0.0130526 0.0991445 0.0300000 -0.0258819 0.0965926 0.0300000 -0.0382683 0.0923880 0.0300000 -0.0500000 0.0866025 0.0300000 -0.0608761 0.0793353 0.0300000 -0.0707107 0.0707107 0.0300000 -0.0793353 0.0608761 0.0300000 -0.0866025 0.0500000 0.0300000 -0.0923880 0.0382683 0.0300000 -0.0965926 0.0258819 0.0300000 -0.0991445 0.0130526 0.0300000 -0.1000000 0.0000000 0.0300000 -0.0991445 -0.0130526 0.0300000 -0.0965926 -0.0258819 0.0300000 -0.0923880 -0.0382683 0.0300000 -0.0866025 -0.0500000 0.0300000 -0.0793353 -0.0608761 0.0300000 -0.0707107 -0.0707107 0.0300000 -0.0608761 -0.0793353 0.0300000 -0.0500000 -0.0866025 0.0300000 -0.0382683 -0.0923880 0.0300000 -0.0258819 -0.0965926 0.0300000 -0.0130526 -0.0991445 0.0300000 -0.0000000 -0.1000000 0.0300000 0.0130526 -0.0991445 0.0300000 0.0258819 -0.0965926 0.0300000 0.0382683 -0.0923880 0.0300000 0.0500000 -0.0866025 0.0300000 0.0608761 -0.0793353 0.0300000 0.0707107 -0.0707107 0.0300000 0.0793353 -0.0608761 0.0300000 0.0866025 -0.0500000 0.0300000 0.0923880 -0.0382683 0.0300000 0.0965926 -0.0258819 0.0300000 0.0991445 -0.0130526 0.0300000 0.0330000 0.0000000 -0.0270000 0.1000000 0.0000000 -0.0270000 0.0327177 0.0043074 -0.0270000 0.0991445 0.0130526 -0.0270000 0.0318756 0.0085410 -0.0270000 0.0965926 0.0258819 -0.0270000 0.0304880 0.0126286 -0.0270000 0.0923880 0.0382683 -0.0270000 0.0285788 0.0165000 -0.0270000 0.0866025 0.0500000 -0.0270000 0.0261807 0.0200891 -0.0270000 0.0793353 0.0608761 -0.0270000 0.0233345 0.0233345 -0.0270000 0.0707107 0.0707107 -0.0270000 0.0200891 0.0261807 -0.0270000 0.0608761 0.0793353 -0.0270000 0.0165000 0.0285788 -0.0270000 0.0500000 0.0866025 -0.0270000 0.0126286 0.0304880 -0.0270000 0.0382683 0.0923880 -0.0270000 0.0085410 0.0318756 -0.0270000 0.0258819 0.0965926 -0.0270000 0.0043074 0.0327177 -0.0270000 0.0130526 0.0991445 -0.0270000 0.0000000 0.0330000 -0.0270000 0.0000000 0.1000000 -0.0270000 -0.0043074 0.0327177 -0.0270000 -0.0130526 0.0991445 -0.0270000 -0.0085410 0.0318756 -0.0270000 -0.0258819 0.0965926 -0.0270000 -0.0126286 0.0304880 -0.0270000 -0.0382683 0.0923880 -0.0270000 -0.0165000 0.0285788 -0.0270000 -0.0500000 0.0866025 -0.0270000 -0.0200891 0.0261807 -0.0270000 -0.0608761 0.0793353 -0.0270000 -0.0233345 0.0233345 -0.0270000 -0.0707107 0.0707107 -0.0270000 -0.0261807 0.0200891 -0.0270000 -0.0793353 0.0608761 -0.0270000 -0.0285788 0.0165000 -0.0270000 -0.0866025 0.0500000 -0.0270000 -0.0304880 0.0126286 -0.0270000 -0.0923880 0.0382683 -0.0270000 -0.0318756 0.0085410 -0.0270000 -0.0965926 0.0258819 -0.0270000 -0.0327177 0.0043074 -0.0270000 -0.0991445 0.0130526 -0.0270000 -0.0330000 0.0000000 -0.0270000 -0.1000000 0.0000000 -0.0270000 -0.0327177 -0.0043074 -0.0270000 -0.0991445 -0.0130526 -0.0270000 -0.0318756 -0.0085410 -0.0270000 -0.0965926 -0.0258819 -0.0270000 -0.0304880 -0.0126286 -0.0270000 -0.0923880 -0.0382683 -0.0270000 -0.0285788 -0.0165000 -0.0270000 -0.0866025 -0.0500000 -0.0270000 -0.0261807 -0.0200891 -0.0270000 -0.0793353 -0.0608761 -0.0270000 -0.0233345 -0.0233345 -0.0270000 -0.0707107 -0.0707107 -0.0270000 -0.0200891 -0.0261807 -0.0270000 -0.0608761 -0.0793353 -0.0270000 -0.0165000 -0.0285788 -0.0270000 -0.0500000 -0.0866025 -0.0270000 -0.0126286 -0.0304880 -0.0270000 -0.0382683 -0.0923880 -0.0270000 -0.0085410 -0.0318756 -0.0270000 -0.0258819 -0.0965926 -0.0270000 -0.0043074 -0.0327177 -0.0270000 -0.0130526 -0.0991445 -0.0270000 -0.0000000 -0.0330000 -0.0270000 -0.0000000 -0.1000000 -0.0270000 0.0043074 -0.0327177 -0.0270000 0.0130526 -0.0991445 -0.0270000 0.0085410 -0.0318756 -0.0270000 0.0258819 -0.0965926 -0.0270000 0.0126286 -0.0304880 -0.0270000 0.0382683 -0.0923880 -0.0270000 0.0165000 -0.0285788 -0.0270000 0.0500000 -0.0866025 -0.0270000 0.0200891 -0.0261807 -0.0270000 0.0608761 -0.0793353 -0.0270000 0.0233345 -0.0233345 -0.0270000 0.0707107 -0.0707107 -0.0270000 0.0261807 -0.0200891 -0.0270000 0.0793353 -0.0608761 -0.0270000 0.0285788 -0.0165000 -0.0270000 0.0866025 -0.0500000 -0.0270000 0.0304880 -0.0126286 -0.0270000 0.0923880 -0.0382683 -0.0270000 0.0318756 -0.0085410 -0.0270000 0.0965926 -0.0258819 -0.0270000 0.0327177 -0.0043074 -0.0270000 0.0991445 -0.0130526 -0.0270000 0.0330000 0.0000000 0.0270000 0.1000000 0.0000000 0.0270000 0.0327177 0.0043074 0.0270000 0.0991445 0.0130526 0.0270000 0.0318756 0.0085410 0.0270000 0.0965926 0.0258819 0.0270000 0.0304880 0.0126286 0.0270000 0.0923880 0.0382683 0.0270000 0.0285788 0.0165000 0.0270000 0.0866025 0.0500000 0.0270000 0.0261807 0.0200891 0.0270000 0.0793353 0.0608761 0.0270000 0.0233345 0.0233345 0.0270000 0.0707107 0.0707107 0.0270000 0.0200891 0.0261807 0.0270000 0.0608761 0.0793353 0.0270000 0.0165000 0.0285788 0.0270000 0.0500000 0.0866025 0.0270000 0.0126286 0.0304880 0.0270000 0.0382683 0.0923880 0.0270000 0.0085410 0.0318756 0.0270000 0.0258819 0.0965926 0.0270000 0.0043074 0.0327177 0.0270000 0.0130526 0.0991445 0.0270000 0.0000000 0.0330000 0.0270000 0.0000000 0.1000000 0.0270000 -0.0043074 0.0327177 0.0270000 -0.0130526 0.0991445 0.0270000 -0.0085410 0.0318756 0.0270000 -0.0258819 0.0965926 0.0270000 -0.0126286 0.0304880 0.0270000 -0.0382683 0.0923880 0.0270000 -0.0165000 0.0285788 0.0270000 -0.0500000 0.0866025 0.0270000 -0.0200891 0.0261807 0.0270000 -0.0608761 0.0793353 0.0270000 -0.0233345 0.0233345 0.0270000 -0.0707107 0.0707107 0.0270000 -0.0261807 0.0200891 0.0270000 -0.0793353 0.0608761 0.0270000 -0.0285788 0.0165000 0.0270000 -0.0866025 0.0500000 0.0270000 -0.0304880 0.0126286 0.0270000 -0.0923880 0.0382683 0.0270000 -0.0318756 0.0085410 0.0270000 -0.0965926 0.0258819 0.0270000 -0.0327177 0.0043074 0.0270000 -0.0991445 0.0130526 0.0270000 -0.0330000 0.0000000 0.0270000 -0.1000000 0.0000000 0.0270000 -0.0327177 -0.0043074 0.0270000 -0.0991445 -0.0130526 0.0270000 -0.0318756 -0.0085410 0.0270000 -0.0965926 -0.0258819 0.0270000 -0.0304880 -0.0126286 0.0270000 -0.0923880 -0.0382683 0.0270000 -0.0285788 -0.0165000 0.0270000 -0.0866025 -0.0500000 0.0270000 -0.0261807 -0.0200891 0.0270000 -0.0793353 -0.0608761 0.0270000 -0.0233345 -0.0233345 0.0270000 -0.0707107 -0.0707107 0.0270000 -0.0200891 -0.0261807 0.0270000 -0.0608761 -0.0793353 0.0270000 -0.0165000 -0.0285788 0.0270000 -0.0500000 -0.0866025 0.0270000 -0.0126286 -0.0304880 0.0270000 -0.0382683 -0.0923880 0.0270000 -0.0085410 -0.0318756 0.0270000 -0.0258819 -0.0965926 0.0270000 -0.0043074 -0.0327177 0.0270000 -0.0130526 -0.0991445 0.0270000 -0.0000000 -0.0330000 0.0270000 -0.0000000 -0.1000000 0.0270000 0.0043074 -0.0327177 0.0270000 0.0130526 -0.0991445 0.0270000 0.0085410 -0.0318756 0.0270000 0.0258819 -0.0965926 0.0270000 0.0126286 -0.0304880 0.0270000 0.0382683 -0.0923880 0.0270000 0.0165000 -0.0285788 0.0270000 0.0500000 -0.0866025 0.0270000 0.0200891 -0.0261807 0.0270000 0.0608761 -0.0793353 0.0270000 0.0233345 -0.0233345 0.0270000 0.0707107 -0.0707107 0.0270000 0.0261807 -0.0200891 0.0270000 0.0793353 -0.0608761 0.0270000 0.0285788 -0.0165000 0.0270000 0.0866025 -0.0500000 0.0270000 0.0304880 -0.0126286 0.0270000 0.0923880 -0.0382683 0.0270000 0.0318756 -0.0085410 0.0270000 0.0965926 -0.0258819 0.0270000 0.0327177 -0.0043074 0.0270000 0.0991445 -0.0130526 0.0270000 0.0330000 0.0000000 -0.0310000 0.0318756 0.0085410 -0.0310000 0.0318756 0.0085410 0.0310000 0.0330000 0.0000000 0.0310000 0.0318756 0.0085410 -0.0310000 0.0285788 0.0165000 -0.0310000 0.0285788 0.0165000 0.0310000 0.0318756 0.0085410 0.0310000 0.0285788 0.0165000 -0.0310000 0.0233345 0.0233345 -0.0310000 0.0233345 0.0233345 0.0310000 0.0285788 0.0165000 0.0310000 0.0233345 0.0233345 -0.0310000 0.0165000 0.0285788 -0.0310000 0.0165000 0.0285788 0.0310000 0.0233345 0.0233345 0.0310000 0.0165000 0.0285788 -0.0310000 0.0085410 0.0318756 -0.0310000 0.0085410 0.0318756 0.0310000 0.0165000 0.0285788 0.0310000 0.0085410 0.0318756 -0.0310000 0.0000000 0.0330000 -0.0310000 0.0000000 0.0330000 0.0310000 0.0085410 0.0318756 0.0310000 0.0000000 0.0330000 -0.0310000 -0.0085410 0.0318756 -0.0310000 -0.0085410 0.0318756 0.0310000 0.0000000 0.0330000 0.0310000 -0.0085410 0.0318756 -0.0310000 -0.0165000 0.0285788 -0.0310000 -0.0165000 0.0285788 0.0310000 -0.0085410 0.0318756 0.0310000 -0.0165000 0.0285788 -0.0310000 -0.0233345 0.0233345 -0.0310000 -0.0233345 0.0233345 0.0310000 -0.0165000 0.0285788 0.0310000 -0.0233345 0.0233345 -0.0310000 -0.0285788 0.0165000 -0.0310000 -0.0285788 0.0165000 0.0310000 -0.0233345 0.0233345 0.0310000 -0.0285788 0.0165000 -0.0310000 -0.0318756 0.0085410 -0.0310000 -0.0318756 0.0085410 0.0310000 -0.0285788 0.0165000 0.0310000 -0.0318756 0.0085410 -0.0310000 -0.0330000 0.0000000 -0.0310000 -0.0330000 0.0000000 0.0310000 -0.0318756 0.0085410 0.0310000 -0.0330000 0.0000000 -0.0310000 -0.0318756 -0.0085410 -0.0310000 -0.0318756 -0.0085410 0.0310000 -0.0330000 0.0000000 0.0310000 -0.0318756 -0.0085410 -0.0310000 -0.0285788 -0.0165000 -0.0310000 -0.0285788 -0.0165000 0.0310000 -0.0318756 -0.0085410 0.0310000 -0.0285788 -0.0165000 -0.0310000 -0.0233345 -0.0233345 -0.0310000 -0.0233345 -0.0233345 0.0310000 -0.0285788 -0.0165000 0.0310000 -0.0233345 -0.0233345 -0.0310000 -0.0165000 -0.0285788 -0.0310000 -0.0165000 -0.0285788 0.0310000 -0.0233345 -0.0233345 0.0310000 -0.0165000 -0.0285788 -0.0310000 -0.0085410 -0.0318756 -0.0310000 -0.0085410 -0.0318756 0.0310000 -0.0165000 -0.0285788 0.0310000 -0.0085410 -0.0318756 -0.0310000 -0.0000000 -0.0330000 -0.0310000 -0.0000000 -0.0330000 0.0310000 -0.0085410 -0.0318756 0.0310000 -0.0000000 -0.0330000 -0.0310000 0.0085410 -0.0318756 -0.0310000 0.0085410 -0.0318756 0.0310000 -0.0000000 -0.0330000 0.0310000 0.0085410 -0.0318756 -0.0310000 0.0165000 -0.0285788 -0.0310000 0.0165000 -0.0285788 0.0310000 0.0085410 -0.0318756 0.0310000 0.0165000 -0.0285788 -0.0310000 0.0233345 -0.0233345 -0.0310000 0.0233345 -0.0233345 0.0310000 0.0165000 -0.0285788 0.0310000 0.0233345 -0.0233345 -0.0310000 0.0285788 -0.0165000 -0.0310000 0.0285788 -0.0165000 0.0310000 0.0233345 -0.0233345 0.0310000 0.0285788 -0.0165000 -0.0310000 0.0318756 -0.0085410 -0.0310000 0.0318756 -0.0085410 0.0310000 0.0285788 -0.0165000 0.0310000 0.0318756 -0.0085410 -0.0310000 0.0330000 -0.0000000 -0.0310000 0.0330000 -0.0000000 0.0310000 0.0318756 -0.0085410 0.0310000 0.0000000 0.0000000 -0.0310000 0.0330000 0.0000000 -0.0310000 0.0318756 0.0085410 -0.0310000 0.0285788 0.0165000 -0.0310000 0.0233345 0.0233345 -0.0310000 0.0165000 0.0285788 -0.0310000 0.0085410 0.0318756 -0.0310000 0.0000000 0.0330000 -0.0310000 -0.0085410 0.0318756 -0.0310000 -0.0165000 0.0285788 -0.0310000 -0.0233345 0.0233345 -0.0310000 -0.0285788 0.0165000 -0.0310000 -0.0318756 0.0085410 -0.0310000 -0.0330000 0.0000000 -0.0310000 -0.0318756 -0.0085410 -0.0310000 -0.0285788 -0.0165000 -0.0310000 -0.0233345 -0.0233345 -0.0310000 -0.0165000 -0.0285788 -0.0310000 -0.0085410 -0.0318756 -0.0310000 -0.0000000 -0.0330000 -0.0310000 0.0085410 -0.0318756 -0.0310000 0.0165000 -0.0285788 -0.0310000 0.0233345 -0.0233345 -0.0310000 0.0285788 -0.0165000 -0.0310000 0.0318756 -0.0085410 -0.0310000 0.0000000 0.0000000 0.0310000 0.0330000 0.0000000 0.0310000 0.0318756 0.0085410 0.0310000 0.0285788 0.0165000 0.0310000 0.0233345 0.0233345 0.0310000 0.0165000 0.0285788 0.0310000 0.0085410 0.0318756 0.0310000 0.0000000 0.0330000 0.0310000 -0.0085410 0.0318756 0.0310000 -0.0165000 0.0285788 0.0310000 -0.0233345 0.0233345 0.0310000 -0.0285788 0.0165000 0.0310000 -0.0318756 0.0085410 0.0310000 -0.0330000 0.0000000 0.0310000 -0.0318756 -0.0085410 0.0310000 -0.0285788 -0.0165000 0.0310000 -0.0233345 -0.0233345 0.0310000 -0.0165000 -0.0285788 0.0310000 -0.0085410 -0.0318756 0.0310000 -0.0000000 -0.0330000 0.0310000 0.0085410 -0.0318756 0.0310000 0.0165000 -0.0285788 0.0310000 0.0233345 -0.0233345 0.0310000 0.0285788 -0.0165000 0.0310000 0.0318756 -0.0085410 0.0310000 0.0900000 -0.0065000 -0.0260000 0.0900000 0.0065000 -0.0260000 0.0900000 0.0065000 0.0260000 0.0900000 -0.0065000 0.0260000 0.0340000 0.0065000 -0.0260000 0.0340000 -0.0065000 -0.0260000 0.0340000 -0.0065000 0.0260000 0.0340000 0.0065000 0.0260000 0.0900000 0.0065000 -0.0260000 0.0340000 0.0065000 -0.0260000 0.0340000 0.0065000 0.0260000 0.0900000 0.0065000 0.0260000 0.0340000 -0.0065000 -0.0260000 0.0900000 -0.0065000 -0.0260000 0.0900000 -0.0065000 0.0260000 0.0340000 -0.0065000 0.0260000 0.0340000 -0.0065000 0.0260000 0.0900000 -0.0065000 0.0260000 0.0900000 0.0065000 0.0260000 0.0340000 0.0065000 0.0260000 0.0900000 -0.0065000 -0.0260000 0.0340000 -0.0065000 -0.0260000 0.0340000 0.0065000 -0.0260000 0.0900000 0.0065000 -0.0260000 0.0339934 0.0835865 -0.0260000 0.0216297 0.0876037 -0.0260000 0.0216297 0.0876037 0.0260000 0.0339934 0.0835865 0.0260000 0.0043247 0.0343445 -0.0260000 0.0166884 0.0303273 -0.0260000 0.0166884 0.0303273 0.0260000 0.0043247 0.0343445 0.0260000 0.0216297 0.0876037 -0.0260000 0.0043247 0.0343445 -0.0260000 0.0043247 0.0343445 0.0260000 0.0216297 0.0876037 0.0260000 0.0166884 0.0303273 -0.0260000 0.0339934 0.0835865 -0.0260000 0.0339934 0.0835865 0.0260000 0.0166884 0.0303273 0.0260000 0.0166884 0.0303273 0.0260000 0.0339934 0.0835865 0.0260000 0.0216297 0.0876037 0.0260000 0.0043247 0.0343445 0.0260000 0.0339934 0.0835865 -0.0260000 0.0166884 0.0303273 -0.0260000 0.0043247 0.0343445 -0.0260000 0.0216297 0.0876037 -0.0260000 -0.0689909 0.0581593 -0.0260000 -0.0766321 0.0476421 -0.0260000 -0.0766321 0.0476421 0.0260000 -0.0689909 0.0581593 0.0260000 -0.0313272 0.0147261 -0.0260000 -0.0236860 0.0252433 -0.0260000 -0.0236860 0.0252433 0.0260000 -0.0313272 0.0147261 0.0260000 -0.0766321 0.0476421 -0.0260000 -0.0313272 0.0147261 -0.0260000 -0.0313272 0.0147261 0.0260000 -0.0766321 0.0476421 0.0260000 -0.0236860 0.0252433 -0.0260000 -0.0689909 0.0581593 -0.0260000 -0.0689909 0.0581593 0.0260000 -0.0236860 0.0252433 0.0260000 -0.0236860 0.0252433 0.0260000 -0.0689909 0.0581593 0.0260000 -0.0766321 0.0476421 0.0260000 -0.0313272 0.0147261 0.0260000 -0.0689909 0.0581593 -0.0260000 -0.0236860 0.0252433 -0.0260000 -0.0313272 0.0147261 -0.0260000 -0.0766321 0.0476421 -0.0260000 -0.0766321 -0.0476421 -0.0260000 -0.0689909 -0.0581593 -0.0260000 -0.0689909 -0.0581593 0.0260000 -0.0766321 -0.0476421 0.0260000 -0.0236860 -0.0252433 -0.0260000 -0.0313272 -0.0147261 -0.0260000 -0.0313272 -0.0147261 0.0260000 -0.0236860 -0.0252433 0.0260000 -0.0689909 -0.0581593 -0.0260000 -0.0236860 -0.0252433 -0.0260000 -0.0236860 -0.0252433 0.0260000 -0.0689909 -0.0581593 0.0260000 -0.0313272 -0.0147261 -0.0260000 -0.0766321 -0.0476421 -0.0260000 -0.0766321 -0.0476421 0.0260000 -0.0313272 -0.0147261 0.0260000 -0.0313272 -0.0147261 0.0260000 -0.0766321 -0.0476421 0.0260000 -0.0689909 -0.0581593 0.0260000 -0.0236860 -0.0252433 0.0260000 -0.0766321 -0.0476421 -0.0260000 -0.0313272 -0.0147261 -0.0260000 -0.0236860 -0.0252433 -0.0260000 -0.0689909 -0.0581593 -0.0260000 0.0216297 -0.0876037 -0.0260000 0.0339934 -0.0835865 -0.0260000 0.0339934 -0.0835865 0.0260000 0.0216297 -0.0876037 0.0260000 0.0166884 -0.0303273 -0.0260000 0.0043247 -0.0343445 -0.0260000 0.0043247 -0.0343445 0.0260000 0.0166884 -0.0303273 0.0260000 0.0339934 -0.0835865 -0.0260000 0.0166884 -0.0303273 -0.0260000 0.0166884 -0.0303273 0.0260000 0.0339934 -0.0835865 0.0260000 0.0043247 -0.0343445 -0.0260000 0.0216297 -0.0876037 -0.0260000 0.0216297 -0.0876037 0.0260000 0.0043247 -0.0343445 0.0260000 0.0043247 -0.0343445 0.0260000 0.0216297 -0.0876037 0.0260000 0.0339934 -0.0835865 0.0260000 0.0166884 -0.0303273 0.0260000 0.0216297 -0.0876037 -0.0260000 0.0043247 -0.0343445 -0.0260000 0.0166884 -0.0303273 -0.0260000 0.0339934 -0.0835865 -0.0260000</float_array>
        <technique_common><accessor count="748" source="#Pos-arr" stride="3">
          <param name="X" type="float"/><param name="Y" type="float"/><param name="Z" type="float"/>
        </accessor></technique_common>
      </source>
      <source id="Nor">
        <float_array count="2244" id="Nor-arr">1.0000000 0.0000000 0.0000000 0.9914449 0.1305262 0.0000000 0.9914449 0.1305262 0.0000000 1.0000000 0.0000000 0.0000000 0.9914449 0.1305262 0.0000000 0.9659258 0.2588190 0.0000000 0.9659258 0.2588190 0.0000000 0.9914449 0.1305262 0.0000000 0.9659258 0.2588190 0.0000000 0.9238795 0.3826834 0.0000000 0.9238795 0.3826834 0.0000000 0.9659258 0.2588190 0.0000000 0.9238795 0.3826834 0.0000000 0.8660254 0.5000000 0.0000000 0.8660254 0.5000000 0.0000000 0.9238795 0.3826834 0.0000000 0.8660254 0.5000000 0.0000000 0.7933533 0.6087614 0.0000000 0.7933533 0.6087614 0.0000000 0.8660254 0.5000000 0.0000000 0.7933533 0.6087614 0.0000000 0.7071068 0.7071068 0.0000000 0.7071068 0.7071068 0.0000000 0.7933533 0.6087614 0.0000000 0.7071068 0.7071068 0.0000000 0.6087614 0.7933533 0.0000000 0.6087614 0.7933533 0.0000000 0.7071068 0.7071068 0.0000000 0.6087614 0.7933533 0.0000000 0.5000000 0.8660254 0.0000000 0.5000000 0.8660254 0.0000000 0.6087614 0.7933533 0.0000000 0.5000000 0.8660254 0.0000000 0.3826834 0.9238795 0.0000000 0.3826834 0.9238795 0.0000000 0.5000000 0.8660254 0.0000000 0.3826834 0.9238795 0.0000000 0.2588190 0.9659258 0.0000000 0.2588190 0.9659258 0.0000000 0.3826834 0.9238795 0.0000000 0.2588190 0.9659258 0.0000000 0.1305262 0.9914449 0.0000000 0.1305262 0.9914449 0.0000000 0.2588190 0.9659258 0.0000000 0.1305262 0.9914449 0.0000000 0.0000000 1.0000000 0.0000000 0.0000000 1.0000000 0.0000000 0.1305262 0.9914449 0.0000000 0.0000000 1.0000000 0.0000000 -0.1305262 0.9914449 0.0000000 -0.1305262 0.9914449 0.0000000 0.0000000 1.0000000 0.0000000 -0.1305262 0.9914449 0.0000000 -0.2588190 0.9659258 0.0000000 -0.2588190 0.9659258 0.0000000 -0.1305262 0.9914449 0.0000000 -0.2588190 0.9659258 0.0000000 -0.3826834 0.9238795 0.0000000 -0.3826834 0.9238795 0.0000000 -0.2588190 0.9659258 0.0000000 -0.3826834 0.9238795 0.0000000 -0.5000000 0.8660254 0.0000000 -0.5000000 0.8660254 0.0000000 -0.3826834 0.9238795 0.0000000 -0.5000000 0.8660254 0.0000000 -0.6087614 0.7933533 0.0000000 -0.6087614 0.7933533 0.0000000 -0.5000000 0.8660254 0.0000000 -0.6087614 0.7933533 0.0000000 -0.7071068 0.7071068 0.0000000 -0.7071068 0.7071068 0.0000000 -0.6087614 0.7933533 0.0000000 -0.7071068 0.7071068 0.0000000 -0.7933533 0.6087614 0.0000000 -0.7933533 0.6087614 0.0000000 -0.7071068 0.7071068 0.0000000 -0.7933533 0.6087614 0.0000000 -0.8660254 0.5000000 0.0000000 -0.8660254 0.5000000 0.0000000 -0.7933533 0.6087614 0.0000000 -0.8660254 0.5000000 0.0000000 -0.9238795 0.3826834 0.0000000 -0.9238795 0.3826834 0.0000000 -0.8660254 0.5000000 0.0000000 -0.9238795 0.3826834 0.0000000 -0.9659258 0.2588190 0.0000000 -0.9659258 0.2588190 0.0000000 -0.9238795 0.3826834 0.0000000 -0.9659258 0.2588190 0.0000000 -0.9914449 0.1305262 0.0000000 -0.9914449 0.1305262 0.0000000 -0.9659258 0.2588190 0.0000000 -0.9914449 0.1305262 0.0000000 -1.0000000 0.0000000 0.0000000 -1.0000000 0.0000000 0.0000000 -0.9914449 0.1305262 0.0000000 -1.0000000 0.0000000 0.0000000 -0.9914449 -0.1305262 0.0000000 -0.9914449 -0.1305262 0.0000000 -1.0000000 0.0000000 0.0000000 -0.9914449 -0.1305262 0.0000000 -0.9659258 -0.2588190 0.0000000 -0.9659258 -0.2588190 0.0000000 -0.9914449 -0.1305262 0.0000000 -0.9659258 -0.2588190 0.0000000 -0.9238795 -0.3826834 0.0000000 -0.9238795 -0.3826834 0.0000000 -0.9659258 -0.2588190 0.0000000 -0.9238795 -0.3826834 0.0000000 -0.8660254 -0.5000000 0.0000000 -0.8660254 -0.5000000 0.0000000 -0.9238795 -0.3826834 0.0000000 -0.8660254 -0.5000000 0.0000000 -0.7933533 -0.6087614 0.0000000 -0.7933533 -0.6087614 0.0000000 -0.8660254 -0.5000000 0.0000000 -0.7933533 -0.6087614 0.0000000 -0.7071068 -0.7071068 0.0000000 -0.7071068 -0.7071068 0.0000000 -0.7933533 -0.6087614 0.0000000 -0.7071068 -0.7071068 0.0000000 -0.6087614 -0.7933533 0.0000000 -0.6087614 -0.7933533 0.0000000 -0.7071068 -0.7071068 0.0000000 -0.6087614 -0.7933533 0.0000000 -0.5000000 -0.8660254 0.0000000 -0.5000000 -0.8660254 0.0000000 -0.6087614 -0.7933533 0.0000000 -0.5000000 -0.8660254 0.0000000 -0.3826834 -0.9238795 0.0000000 -0.3826834 -0.9238795 0.0000000 -0.5000000 -0.8660254 0.0000000 -0.3826834 -0.9238795 0.0000000 -0.2588190 -0.9659258 0.0000000 -0.2588190 -0.9659258 0.0000000 -0.3826834 -0.9238795 0.0000000 -0.2588190 -0.9659258 0.0000000 -0.1305262 -0.9914449 0.0000000 -0.1305262 -0.9914449 0.0000000 -0.2588190 -0.9659258 0.0000000 -0.1305262 -0.9914449 0.0000000 -0.0000000 -1.0000000 0.0000000 -0.0000000 -1.0000000 0.0000000 -0.1305262 -0.9914449 0.0000000 -0.0000000 -1.0000000 0.0000000 0.1305262 -0.9914449 0.0000000 0.1305262 -0.9914449 0.0000000 -0.0000000 -1.0000000 0.0000000 0.1305262 -0.9914449 0.0000000 0.2588190 -0.9659258 0.0000000 0.2588190 -0.9659258 0.0000000 0.1305262 -0.9914449 0.0000000 0.2588190 -0.9659258 0.0000000 0.3826834 -0.9238795 0.0000000 0.3826834 -0.9238795 0.0000000 0.2588190 -0.9659258 0.0000000 0.3826834 -0.9238795 0.0000000 0.5000000 -0.8660254 0.0000000 0.5000000 -0.8660254 0.0000000 0.3826834 -0.9238795 0.0000000 0.5000000 -0.8660254 0.0000000 0.6087614 -0.7933533 0.0000000 0.6087614 -0.7933533 0.0000000 0.5000000 -0.8660254 0.0000000 0.6087614 -0.7933533 0.0000000 0.7071068 -0.7071068 0.0000000 0.7071068 -0.7071068 0.0000000 0.6087614 -0.7933533 0.0000000 0.7071068 -0.7071068 0.0000000 0.7933533 -0.6087614 0.0000000 0.7933533 -0.6087614 0.0000000 0.7071068 -0.7071068 0.0000000 0.7933533 -0.6087614 0.0000000 0.8660254 -0.5000000 0.0000000 0.8660254 -0.5000000 0.0000000 0.7933533 -0.6087614 0.0000000 0.8660254 -0.5000000 0.0000000 0.9238795 -0.3826834 0.0000000 0.9238795 -0.3826834 0.0000000 0.8660254 -0.5000000 0.0000000 0.9238795 -0.3826834 0.0000000 0.9659258 -0.2588190 0.0000000 0.9659258 -0.2588190 0.0000000 0.9238795 -0.3826834 0.0000000 0.9659258 -0.2588190 0.0000000 0.9914449 -0.1305262 0.0000000 0.9914449 -0.1305262 0.0000000 0.9659258 -0.2588190 0.0000000 0.9914449 -0.1305262 0.0000000 1.0000000 -0.0000000 0.0000000 1.0000000 -0.0000000 0.0000000 0.9914449 -0.1305262 0.0000000 0.0000000 0.0000000 -1.0000000 0.0000000 0.0000000 -1.0000000 0.0000000 0.0000000 -1.0000000 0.0000000 0.0000000 -1.0000000 0.0000000 0.0000000 -1.0000000 0.0000000 0.0000000 -1.0000000 0.0000000 0.0000000 -1.0000000 0.0000000 0.0000000 -1.0000000 0.0000000 0.0000000 -1.0000000 0.0000000 0.0000000 -1.0000000 0.0000000 0.0000000 -1.0000000 0.0000000 0.0000000 -1.0000000 0.0000000 0.0000000 -1.0000000 0.0000000 0.0000000 -1.0000000 0.0000000 0.0000000 -1.0000000 0.0000000 0.0000000 -1.0000000 0.0000000 0.0000000 -1.0000000 0.0000000 0.0000000 -1.0000000 0.0000000 0.0000000 -1.0000000 0.0000000 0.0000000 -1.0000000 0.0000000 0.0000000 -1.0000000 0.0000000 0.0000000 -1.0000000 0.0000000 0.0000000 -1.0000000 0.0000000 0.0000000 -1.0000000 0.0000000 0.0000000 -1.0000000 0.0000000 0.0000000 -1.0000000 0.0000000 0.0000000 -1.0000000 0.0000000 0.0000000 -1.0000000 0.0000000 0.0000000 -1.0000000 0.0000000 0.0000000 -1.0000000 0.0000000 0.0000000 -1.0000000 0.0000000 0.0000000 -1.0000000 0.0000000 0.0000000 -1.0000000 0.0000000 0.0000000 -1.0000000 0.0000000 0.0000000 -1.0000000 0.0000000 0.0000000 -1.0000000 0.0000000 0.0000000 -1.0000000 0.0000000 0.0000000 -1.0000000 0.0000000 0.0000000 -1.0000000 0.0000000 0.0000000 -1.0000000 0.0000000 0.0000000 -1.0000000 0.0000000 0.0000000 -1.0000000 0.0000000 0.0000000 -1.0000000 0.0000000 0.0000000 -1.0000000 0.0000000 0.0000000 -1.0000000 0.0000000 0.0000000 -1.0000000 0.0000000 0.0000000 -1.0000000 0.0000000 0.0000000 -1.0000000 0.0000000 0.0000000 -1.0000000 0.0000000 0.0000000 1.0000000 0.0000000 0.0000000 1.0000000 0.0000000 0.0000000 1.0000000 0.0000000 0.0000000 1.0000000 0.0000000 0.0000000 1.0000000 0.0000000 0.0000000 1.0000000 0.0000000 0.0000000 1.0000000 0.0000000 0.0000000 1.0000000 0.0000000 0.0000000 1.0000000 0.0000000 0.0000000 1.0000000 0.0000000 0.0000000 1.0000000 0.0000000 0.0000000 1.0000000 0.0000000 0.0000000 1.0000000 0.0000000 0.0000000 1.0000000 0.0000000 0.0000000 1.0000000 0.0000000 0.0000000 1.0000000 0.0000000 0.0000000 1.0000000 0.0000000 0.0000000 1.0000000 0.0000000 0.0000000 1.0000000 0.0000000 0.0000000 1.0000000 0.0000000 0.0000000 1.0000000 0.0000000 0.0000000 1.0000000 0.0000000 0.0000000 1.0000000 0.0000000 0.0000000 1.0000000 0.0000000 0.0000000 1.0000000 0.0000000 0.0000000 1.0000000 0.0000000 0.0000000 1.0000000 0.0000000 0.0000000 1.0000000 0.0000000 0.0000000 1.0000000 0.0000000 0.0000000 1.0000000 0.0000000 0.0000000 1.0000000 0.0000000 0.0000000 1.0000000 0.0000000 0.0000000 1.0000000 0.0000000 0.0000000 1.0000000 0.0000000 0.0000000 1.0000000 0.0000000 0.0000000 1.0000000 0.0000000 0.0000000 1.0000000 0.0000000 0.0000000 1.0000000 0.0000000 0.0000000 1.0000000 0.0000000 0.0000000 1.0000000 0.0000000 0.0000000 1.0000000 0.0000000 0.0000000 1.0000000 0.0000000 0.0000000 1.0000000 0.0000000 0.0000000 1.0000000 0.0000000 0.0000000 1.0000000 0.0000000 0.0000000 1.0000000 0.0000000 0.0000000 1.0000000 0.0000000 0.0000000 1.0000000 0.0000000 0.0000000 1.0000000 0.0000000 0.0000000 -1.0000000 0.0000000 0.0000000 -1.0000000 0.0000000 0.0000000 -1.0000000 0.0000000 0.0000000 -1.0000000 0.0000000 0.0000000 -1.0000000 0.0000000 0.0000000 -1.0000000 0.0000000 0.0000000 -1.0000000 0.0000000 0.0000000 -1.0000000 0.0000000 0.0000000 -1.0000000 0.0000000 0.0000000 -1.0000000 0.0000000 0.0000000 -1.0000000 0.0000000 0.0000000 -1.0000000 0.0000000 0.0000000 -1.0000000 0.0000000 0.0000000 -1.0000000 0.0000000 0.0000000 -1.0000000 0.0000000 0.0000000 -1.0000000 0.0000000 0.0000000 -1.0000000 0.0000000 0.0000000 -1.0000000 0.0000000 0.0000000 -1.0000000 0.0000000 0.0000000 -1.0000000 0.0000000 0.0000000 -1.0000000 0.0000000 0.0000000 -1.0000000 0.0000000 0.0000000 -1.0000000 0.0000000 0.0000000 -1.0000000 0.0000000 0.0000000 -1.0000000 0.0000000 0.0000000 -1.0000000 0.0000000 0.0000000 -1.0000000 0.0000000 0.0000000 -1.0000000 0.0000000 0.0000000 -1.0000000 0.0000000 0.0000000 -1.0000000 0.0000000 0.0000000 -1.0000000 0.0000000 0.0000000 -1.0000000 0.0000000 0.0000000 -1.0000000 0.0000000 0.0000000 -1.0000000 0.0000000 0.0000000 -1.0000000 0.0000000 0.0000000 -1.0000000 0.0000000 0.0000000 -1.0000000 0.0000000 0.0000000 -1.0000000 0.0000000 0.0000000 -1.0000000 0.0000000 0.0000000 -1.0000000 0.0000000 0.0000000 -1.0000000 0.0000000 0.0000000 -1.0000000 0.0000000 0.0000000 -1.0000000 0.0000000 0.0000000 -1.0000000 0.0000000 0.0000000 -1.0000000 0.0000000 0.0000000 -1.0000000 0.0000000 0.0000000 -1.0000000 0.0000000 0.0000000 -1.0000000 0.0000000 0.0000000 -1.0000000 0.0000000 0.0000000 -1.0000000 0.0000000 0.0000000 -1.0000000 0.0000000 0.0000000 -1.0000000 0.0000000 0.0000000 -1.0000000 0.0000000 0.0000000 -1.0000000 0.0000000 0.0000000 -1.0000000 0.0000000 0.0000000 -1.0000000 0.0000000 0.0000000 -1.0000000 0.0000000 0.0000000 -1.0000000 0.0000000 0.0000000 -1.0000000 0.0000000 0.0000000 -1.0000000 0.0000000 0.0000000 -1.0000000 0.0000000 0.0000000 -1.0000000 0.0000000 0.0000000 -1.0000000 0.0000000 0.0000000 -1.0000000 0.0000000 0.0000000 -1.0000000 0.0000000 0.0000000 -1.0000000 0.0000000 0.0000000 -1.0000000 0.0000000 0.0000000 -1.0000000 0.0000000 0.0000000 -1.0000000 0.0000000 0.0000000 -1.0000000 0.0000000 0.0000000 -1.0000000 0.0000000 0.0000000 -1.0000000 0.0000000 0.0000000 -1.0000000 0.0000000 0.0000000 -1.0000000 0.0000000 0.0000000 -1.0000000 0.0000000 0.0000000 -1.0000000 0.0000000 0.0000000 -1.0000000 0.0000000 0.0000000 -1.0000000 0.0000000 0.0000000 -1.0000000 0.0000000 0.0000000 -1.0000000 0.0000000 0.0000000 -1.0000000 0.0000000 0.0000000 -1.0000000 0.0000000 0.0000000 -1.0000000 0.0000000 0.0000000 -1.0000000 0.0000000 0.0000000 -1.0000000 0.0000000 0.0000000 -1.0000000 0.0000000 0.0000000 -1.0000000 0.0000000 0.0000000 -1.0000000 0.0000000 0.0000000 -1.0000000 0.0000000 0.0000000 -1.0000000 0.0000000 0.0000000 -1.0000000 0.0000000 0.0000000 -1.0000000 0.0000000 0.0000000 -1.0000000 0.0000000 0.0000000 -1.0000000 0.0000000 0.0000000 -1.0000000 0.0000000 0.0000000 -1.0000000 0.0000000 0.0000000 1.0000000 0.0000000 0.0000000 1.0000000 0.0000000 0.0000000 1.0000000 0.0000000 0.0000000 1.0000000 0.0000000 0.0000000 1.0000000 0.0000000 0.0000000 1.0000000 0.0000000 0.0000000 1.0000000 0.0000000 0.0000000 1.0000000 0.0000000 0.0000000 1.0000000 0.0000000 0.0000000 1.0000000 0.0000000 0.0000000 1.0000000 0.0000000 0.0000000 1.0000000 0.0000000 0.0000000 1.0000000 0.0000000 0.0000000 1.0000000 0.0000000 0.0000000 1.0000000 0.0000000 0.0000000 1.0000000 0.0000000 0.0000000 1.0000000 0.0000000 0.0000000 1.0000000 0.0000000 0.0000000 1.0000000 0.0000000 0.0000000 1.0000000 0.0000000 0.0000000 1.0000000 0.0000000 0.0000000 1.0000000 0.0000000 0.0000000 1.0000000 0.0000000 0.0000000 1.0000000 0.0000000 0.0000000 1.0000000 0.0000000 0.0000000 1.0000000 0.0000000 0.0000000 1.0000000 0.0000000 0.0000000 1.0000000 0.0000000 0.0000000 1.0000000 0.0000000 0.0000000 1.0000000 0.0000000 0.0000000 1.0000000 0.0000000 0.0000000 1.0000000 0.0000000 0.0000000 1.0000000 0.0000000 0.0000000 1.0000000 0.0000000 0.0000000 1.0000000 0.0000000 0.0000000 1.0000000 0.0000000 0.0000000 1.0000000 0.0000000 0.0000000 1.0000000 0.0000000 0.0000000 1.0000000 0.0000000 0.0000000 1.0000000 0.0000000 0.0000000 1.0000000 0.0000000 0.0000000 1.0000000 0.0000000 0.0000000 1.0000000 0.0000000 0.0000000 1.0000000 0.0000000 0.0000000 1.0000000 0.0000000 0.0000000 1.0000000 0.0000000 0.0000000 1.0000000 0.0000000 0.0000000 1.0000000 0.0000000 0.0000000 1.0000000 0.0000000 0.0000000 1.0000000 0.0000000 0.0000000 1.0000000 0.0000000 0.0000000 1.0000000 0.0000000 0.0000000 1.0000000 0.0000000 0.0000000 1.0000000 0.0000000 0.0000000 1.0000000 0.0000000 0.0000000 1.0000000 0.0000000 0.0000000 1.0000000 0.0000000 0.0000000 1.0000000 0.0000000 0.0000000 1.0000000 0.0000000 0.0000000 1.0000000 0.0000000 0.0000000 1.0000000 0.0000000 0.0000000 1.0000000 0.0000000 0.0000000 1.0000000 0.0000000 0.0000000 1.0000000 0.0000000 0.0000000 1.0000000 0.0000000 0.0000000 1.0000000 0.0000000 0.0000000 1.0000000 0.0000000 0.0000000 1.0000000 0.0000000 0.0000000 1.0000000 0.0000000 0.0000000 1.0000000 0.0000000 0.0000000 1.0000000 0.0000000 0.0000000 1.0000000 0.0000000 0.0000000 1.0000000 0.0000000 0.0000000 1.0000000 0.0000000 0.0000000 1.0000000 0.0000000 0.0000000 1.0000000 0.0000000 0.0000000 1.0000000 0.0000000 0.0000000 1.0000000 0.0000000 0.0000000 1.0000000 0.0000000 0.0000000 1.0000000 0.0000000 0.0000000 1.0000000 0.0000000 0.0000000 1.0000000 0.0000000 0.0000000 1.0000000 0.0000000 0.0000000 1.0000000 0.0000000 0.0000000 1.0000000 0.0000000 0.0000000 1.0000000 0.0000000 0.0000000 1.0000000 0.0000000 0.0000000 1.0000000 0.0000000 0.0000000 1.0000000 0.0000000 0.0000000 1.0000000 0.0000000 0.0000000 1.0000000 0.0000000 0.0000000 1.0000000 0.0000000 0.0000000 1.0000000 0.0000000 0.0000000 1.0000000 0.0000000 0.0000000 1.0000000 0.0000000 0.0000000 1.0000000 1.0000000 0.0000000 0.0000000 0.9659258 0.2588190 0.0000000 0.9659258 0.2588190 0.0000000 1.0000000 0.0000000 0.0000000 0.9659258 0.2588190 0.0000000 0.8660254 0.5000000 0.0000000 0.8660254 0.5000000 0.0000000 0.9659258 0.2588190 0.0000000 0.8660254 0.5000000 0.0000000 0.7071068 0.7071068 0.0000000 0.7071068 0.7071068 0.0000000 0.8660254 0.5000000 0.0000000 0.7071068 0.7071068 0.0000000 0.5000000 0.8660254 0.0000000 0.5000000 0.8660254 0.0000000 0.7071068 0.7071068 0.0000000 0.5000000 0.8660254 0.0000000 0.2588190 0.9659258 0.0000000 0.2588190 0.9659258 0.0000000 0.5000000 0.8660254 0.0000000 0.2588190 0.9659258 0.0000000 0.0000000 1.0000000 0.0000000 0.0000000 1.0000000 0.0000000 0.2588190 0.9659258 0.0000000 0.0000000 1.0000000 0.0000000 -0.2588190 0.9659258 0.0000000 -0.2588190 0.9659258 0.0000000 0.0000000 1.0000000 0.0000000 -0.2588190 0.9659258 0.0000000 -0.5000000 0.8660254 0.0000000 -0.5000000 0.8660254 0.0000000 -0.2588190 0.9659258 0.0000000 -0.5000000 0.8660254 0.0000000 -0.7071068 0.7071068 0.0000000 -0.7071068 0.7071068 0.0000000 -0.5000000 0.8660254 0.0000000 -0.7071068 0.7071068 0.0000000 -0.8660254 0.5000000 0.0000000 -0.8660254 0.5000000 0.0000000 -0.7071068 0.7071068 0.0000000 -0.8660254 0.5000000 0.0000000 -0.9659258 0.2588190 0.0000000 -0.9659258 0.2588190 0.0000000 -0.8660254 0.5000000 0.0000000 -0.9659258 0.2588190 0.0000000 -1.0000000 0.0000000 0.0000000 -1.0000000 0.0000000 0.0000000 -0.9659258 0.2588190 0.0000000 -1.0000000 0.0000000 0.0000000 -0.9659258 -0.2588190 0.0000000 -0.9659258 -0.2588190 0.0000000 -1.0000000 0.0000000 0.0000000 -0.9659258 -0.2588190 0.0000000 -0.8660254 -0.5000000 0.0000000 -0.8660254 -0.5000000 0.0000000 -0.9659258 -0.2588190 0.0000000 -0.8660254 -0.5000000 0.0000000 -0.7071068 -0.7071068 0.0000000 -0.7071068 -0.7071068 0.0000000 -0.8660254 -0.5000000 0.0000000 -0.7071068 -0.7071068 0.0000000 -0.5000000 -0.8660254 0.0000000 -0.5000000 -0.8660254 0.0000000 -0.7071068 -0.7071068 0.0000000 -0.5000000 -0.8660254 0.0000000 -0.2588190 -0.9659258 0.0000000 -0.2588190 -0.9659258 0.0000000 -0.5000000 -0.8660254 0.0000000 -0.2588190 -0.9659258 0.0000000 -0.0000000 -1.0000000 0.0000000 -0.0000000 -1.0000000 0.0000000 -0.2588190 -0.9659258 0.0000000 -0.0000000 -1.0000000 0.0000000 0.2588190 -0.9659258 0.0000000 0.2588190 -0.9659258 0.0000000 -0.0000000 -1.0000000 0.0000000 0.2588190 -0.9659258 0.0000000 0.5000000 -0.8660254 0.0000000 0.5000000 -0.8660254 0.0000000 0.2588190 -0.9659258 0.0000000 0.5000000 -0.8660254 0.0000000 0.7071068 -0.7071068 0.0000000 0.7071068 -0.7071068 0.0000000 0.5000000 -0.8660254 0.0000000 0.7071068 -0.7071068 0.0000000 0.8660254 -0.5000000 0.0000000 0.8660254 -0.5000000 0.0000000 0.7071068 -0.7071068 0.0000000 0.8660254 -0.5000000 0.0000000 0.9659258 -0.2588190 0.0000000 0.9659258 -0.2588190 0.0000000 0.8660254 -0.5000000 0.0000000 0.9659258 -0.2588190 0.0000000 1.0000000 -0.0000000 0.0000000 1.0000000 -0.0000000 0.0000000 0.9659258 -0.2588190 0.0000000 0.0000000 0.0000000 -1.0000000 0.0000000 0.0000000 -1.0000000 0.0000000 0.0000000 -1.0000000 0.0000000 0.0000000 -1.0000000 0.0000000 0.0000000 -1.0000000 0.0000000 0.0000000 -1.0000000 0.0000000 0.0000000 -1.0000000 0.0000000 0.0000000 -1.0000000 0.0000000 0.0000000 -1.0000000 0.0000000 0.0000000 -1.0000000 0.0000000 0.0000000 -1.0000000 0.0000000 0.0000000 -1.0000000 0.0000000 0.0000000 -1.0000000 0.0000000 0.0000000 -1.0000000 0.0000000 0.0000000 -1.0000000 0.0000000 0.0000000 -1.0000000 0.0000000 0.0000000 -1.0000000 0.0000000 0.0000000 -1.0000000 0.0000000 0.0000000 -1.0000000 0.0000000 0.0000000 -1.0000000 0.0000000 0.0000000 -1.0000000 0.0000000 0.0000000 -1.0000000 0.0000000 0.0000000 -1.0000000 0.0000000 0.0000000 -1.0000000 0.0000000 0.0000000 -1.0000000 0.0000000 0.0000000 1.0000000 0.0000000 0.0000000 1.0000000 0.0000000 0.0000000 1.0000000 0.0000000 0.0000000 1.0000000 0.0000000 0.0000000 1.0000000 0.0000000 0.0000000 1.0000000 0.0000000 0.0000000 1.0000000 0.0000000 0.0000000 1.0000000 0.0000000 0.0000000 1.0000000 0.0000000 0.0000000 1.0000000 0.0000000 0.0000000 1.0000000 0.0000000 0.0000000 1.0000000 0.0000000 0.0000000 1.0000000 0.0000000 0.0000000 1.0000000 0.0000000 0.0000000 1.0000000 0.0000000 0.0000000 1.0000000 0.0000000 0.0000000 1.0000000 0.0000000 0.0000000 1.0000000 0.0000000 0.0000000 1.0000000 0.0000000 0.0000000 1.0000000 0.0000000 0.0000000 1.0000000 0.0000000 0.0000000 1.0000000 0.0000000 0.0000000 1.0000000 0.0000000 0.0000000 1.0000000 0.0000000 0.0000000 1.0000000 1.0000000 0.0000000 0.0000000 1.0000000 0.0000000 0.0000000 1.0000000 0.0000000 0.0000000 1.0000000 0.0000000 0.0000000 -1.0000000 0.0000000 0.0000000 -1.0000000 0.0000000 0.0000000 -1.0000000 0.0000000 0.0000000 -1.0000000 0.0000000 0.0000000 0.0000000 1.0000000 0.0000000 0.0000000 1.0000000 0.0000000 0.0000000 1.0000000 0.0000000 0.0000000 1.0000000 0.0000000 0.0000000 -1.0000000 0.0000000 0.0000000 -1.0000000 0.0000000 0.0000000 -1.0000000 0.0000000 0.0000000 -1.0000000 0.0000000 0.0000000 0.0000000 1.0000000 0.0000000 0.0000000 1.0000000 0.0000000 0.0000000 1.0000000 0.0000000 0.0000000 1.0000000 0.0000000 0.0000000 -1.0000000 0.0000000 0.0000000 -1.0000000 0.0000000 0.0000000 -1.0000000 0.0000000 0.0000000 -1.0000000 0.3090170 0.9510565 0.0000000 0.3090170 0.9510565 0.0000000 0.3090170 0.9510565 0.0000000 0.3090170 0.9510565 0.0000000 -0.3090170 -0.9510565 0.0000000 -0.3090170 -0.9510565 0.0000000 -0.3090170 -0.9510565 0.0000000 -0.3090170 -0.9510565 0.0000000 -0.9510565 0.3090170 0.0000000 -0.9510565 0.3090170 0.0000000 -0.9510565 0.3090170 0.0000000 -0.9510565 0.3090170 0.0000000 0.9510565 -0.3090170 0.0000000 0.9510565 -0.3090170 0.0000000 0.9510565 -0.3090170 0.0000000 0.9510565 -0.3090170 0.0000000 0.0000000 0.0000000 1.0000000 0.0000000 0.0000000 1.0000000 0.0000000 0.0000000 1.0000000 0.0000000 0.0000000 1.0000000 0.0000000 0.0000000 -1.0000000 0.0000000 0.0000000 -1.0000000 0.0000000 0.0000000 -1.0000000 0.0000000 0.0000000 -1.0000000 -0.8090170 0.5877853 0.0000000 -0.8090170 0.5877853 0.0000000 -0.8090170 0.5877853 0.0000000 -0.8090170 0.5877853 0.0000000 0.8090170 -0.5877853 0.0000000 0.8090170 -0.5877853 0.0000000 0.8090170 -0.5877853 0.0000000 0.8090170 -0.5877853 0.0000000 -0.5877853 -0.8090170 0.0000000 -0.5877853 -0.8090170 0.0000000 -0.5877853 -0.8090170 0.0000000 -0.5877853 -0.8090170 0.0000000 0.5877853 0.8090170 0.0000000 0.5877853 0.8090170 0.0000000 0.5877853 0.8090170 0.0000000 0.5877853 0.8090170 0.0000000 -0.0000000 0.0000000 1.0000000 -0.0000000 0.0000000 1.0000000 -0.0000000 0.0000000 1.0000000 -0.0000000 0.0000000 1.0000000 -0.0000000 0.0000000 -1.0000000 -0.0000000 0.0000000 -1.0000000 -0.0000000 0.0000000 -1.0000000 -0.0000000 0.0000000 -1.0000000 -0.8090170 -0.5877853 0.0000000 -0.8090170 -0.5877853 0.0000000 -0.8090170 -0.5877853 0.0000000 -0.8090170 -0.5877853 0.0000000 0.8090170 0.5877853 0.0000000 0.8090170 0.5877853 0.0000000 0.8090170 0.5877853 0.0000000 0.8090170 0.5877853 0.0000000 0.5877853 -0.8090170 0.0000000 0.5877853 -0.8090170 0.0000000 0.5877853 -0.8090170 0.0000000 0.5877853 -0.8090170 0.0000000 -0.5877853 0.8090170 0.0000000 -0.5877853 0.8090170 0.0000000 -0.5877853 0.8090170 0.0000000 -0.5877853 0.8090170 0.0000000 0.0000000 -0.0000000 1.0000000 0.0000000 -0.0000000 1.0000000 0.0000000 -0.0000000 1.0000000 0.0000000 -0.0000000 1.0000000 0.0000000 -0.0000000 -1.0000000 0.0000000 -0.0000000 -1.0000000 0.0000000 -0.0000000 -1.0000000 0.0000000 -0.0000000 -1.0000000 0.3090170 -0.9510565 0.0000000 0.3090170 -0.9510565 0.0000000 0.3090170 -0.9510565 0.0000000 0.3090170 -0.9510565 0.0000000 -0.3090170 0.9510565 0.0000000 -0.3090170 0.9510565 0.0000000 -0.3090170 0.9510565 0.0000000 -0.3090170 0.9510565 0.0000000 0.9510565 0.3090170 0.0000000 0.9510565 0.3090170 0.0000000 0.9510565 0.3090170 0.0000000 0.9510565 0.3090170 0.0000000 -0.9510565 -0.3090170 0.0000000 -0.9510565 -0.3090170 0.0000000 -0.9510565 -0.3090170 0.0000000 -0.9510565 -0.3090170 0.0000000 0.0000000 0.0000000 1.0000000 0.0000000 0.0000000 1.0000000 0.0000000 0.0000000 1.0000000 0.0000000 0.0000000 1.0000000 0.0000000 0.0000000 -1.0000000 0.0000000 0.0000000 -1.0000000 0.0000000 0.0000000 -1.0000000 0.0000000 0.0000000 -1.0000000</float_array>
        <technique_common><accessor count="748" source="#Nor-arr" stride="3">
          <param name="X" type="float"/><param name="Y" type="float"/><param name="Z" type="float"/>
        </accessor></technique_common>
      </source>
      <vertices id="Vert">
        <input semantic="POSITION" source="#Pos"/>
        <input semantic="NORMAL" source="#Nor"/>
      </vertices>
      <triangles count="540" material="Mat">
        <input offset="0" semantic="VERTEX" source="#Vert"/>
        <p>0 1 2 0 2 3 4 5 6 4 6 7 8 9 10 8 10 11 12 13 14 12 14 15 16 17 18 16 18 19 20 21 22 20 22 23 24 25 26 24 26 27 28 29 30 28 30 31 32 33 34 32 34 35 36 37 38 36 38 39 40 41 42 40 42 43 44 45 46 44 46 47 48 49 50 48 50 51 52 53 54 52 54 55 56 57 58 56 58 59 60 61 62 60 62 63 64 65 66 64 66 67 68 69 70 68 70 71 72 73 74 72 74 75 76 77 78 76 78 79 80 81 82 80 82 83 84 85 86 84 86 87 88 89 90 88 90 91 92 93 94 92 94 95 96 97 98 96 98 99 100 101 102 100 102 103 104 105 106 104 106 107 108 109 110 108 110 111 112 113 114 112 114 115 116 117 118 116 118 119 120 121 122 120 122 123 124 125 126 124 126 127 128 129 130 128 130 131 132 133 134 132 134 135 136 137 138 136 138 139 140 141 142 140 142 143 144 145 146 144 146 147 148 149 150 148 150 151 152 153 154 152 154 155 156 157 158 156 158 159 160 161 162 160 162 163 164 165 166 164 166 167 168 169 170 168 170 171 172 173 174 172 174 175 176 177 178 176 178 179 180 181 182 180 182 183 184 185 186 184 186 187 188 189 190 188 190 191 192 194 193 192 195 194 192 196 195 192 197 196 192 198 197 192 199 198 192 200 199 192 201 200 192 202 201 192 203 202 192 204 203 192 205 204 192 206 205 192 207 206 192 208 207 192 209 208 192 210 209 192 211 210 192 212 211 192 213 212 192 214 213 192 215 214 192 216 215 192 217 216 192 218 217 192 219 218 192 220 219 192 221 220 192 222 221 192 223 222 192 224 223 192 225 224 192 226 225 192 227 226 192 228 227 192 229 228 192 230 229 192 231 230 192 232 231 192 233 232 192 234 233 192 235 234 192 236 235 192 237 236 192 238 237 192 239 238 192 240 239 192 193 240 241 242 243 241 243 244 241 244 245 241 245 246 241 246 247 241 247 248 241 248 249 241 249 250 241 250 251 241 251 252 241 252 253 241 253 254 241 254 255 241 255 256 241 256 257 241 257 258 241 258 259 241 259 260 241 260 261 241 261 262 241 262 263 241 263 264 241 264 265 241 265 266 241 266 267 241 267 268 241 268 269 241 269 270 241 270 271 241 271 272 241 272 273 241 273 274 241 274 275 241 275 276 241 276 277 241 277 278 241 278 279 241 279 280 241 280 281 241 281 282 241 282 283 241 283 284 241 284 285 241 285 286 241 286 287 241 287 288 241 288 289 241 289 242 290 293 291 290 292 293 292 295 293 292 294 295 294 297 295 294 296 297 296 299 297 296 298 299 298 301 299 298 300 301 300 303 301 300 302 303 302 305 303 302 304 305 304 307 305 304 306 307 306 309 307 306 308 309 308 311 309 308 310 311 310 313 311 310 312 313 312 315 313 312 314 315 314 317 315 314 316 317 316 319 317 316 318 319 318 321 319 318 320 321 320 323 321 320 322 323 322 325 323 322 324 325 324 327 325 324 326 327 326 329 327 326 328 329 328 331 329 328 330 331 330 333 331 330 332 333 332 335 333 332 334 335 334 337 335 334 336 337 336 339 337 336 338 339 338 341 339 338 340 341 340 343 341 340 342 343 342 345 343 342 344 345 344 347 345 344 346 347 346 349 347 346 348 349 348 351 349 348 350 351 350 353 351 350 352 353 352 355 353 352 354 355 354 357 355 354 356 357 356 359 357 356 358 359 358 361 359 358 360 361 360 363 361 360 362 363 362 365 363 362 364 365 364 367 365 364 366 367 366 369 367 366 368 369 368 371 369 368 370 371 370 373 371 370 372 373 372 375 373 372 374 375 374 377 375 374 376 377 376 379 377 376 378 379 378 381 379 378 380 381 380 383 381 380 382 383 382 385 383 382 384 385 384 291 385 384 290 291 386 387 389 386 389 388 388 389 391 388 391 390 390 391 393 390 393 392 392 393 395 392 395 394 394 395 397 394 397 396 396 397 399 396 399 398 398 399 401 398 401 400 400 401 403 400 403 402 402 403 405 402 405 404 404 405 407 404 407 406 406 407 409 406 409 408 408 409 411 408 411 410 410 411 413 410 413 412 412 413 415 412 415 414 414 415 417 414 417 416 416 417 419 416 419 418 418 419 421 418 421 420 420 421 423 420 423 422 422 423 425 422 425 424 424 425 427 424 427 426 426 427 429 426 429 428 428 429 431 428 431 430 430 431 433 430 433 432 432 433 435 432 435 434 434 435 437 434 437 436 436 437 439 436 439 438 438 439 441 438 441 440 440 441 443 440 443 442 442 443 445 442 445 444 444 445 447 444 447 446 446 447 449 446 449 448 448 449 451 448 451 450 450 451 453 450 453 452 452 453 455 452 455 454 454 455 457 454 457 456 456 457 459 456 459 458 458 459 461 458 461 460 460 461 463 460 463 462 462 463 465 462 465 464 464 465 467 464 467 466 466 467 469 466 469 468 468 469 471 468 471 470 470 471 473 470 473 472 472 473 475 472 475 474 474 475 477 474 477 476 476 477 479 476 479 478 478 479 481 478 481 480 480 481 387 480 387 386 482 483 484 482 484 485 486 487 488 486 488 489 490 491 492 490 492 493 494 495 496 494 496 497 498 499 500 498 500 501 502 503 504 502 504 505 506 507 508 506 508 509 510 511 512 510 512 513 514 515 516 514 516 517 518 519 520 518 520 521 522 523 524 522 524 525 526 527 528 526 528 529 530 531 532 530 532 533 534 535 536 534 536 537 538 539 540 538 540 541 542 543 544 542 544 545 546 547 548 546 548 549 550 551 552 550 552 553 554 555 556 554 556 557 558 559 560 558 560 561 562 563 564 562 564 565 566 567 568 566 568 569 570 571 572 570 572 573 574 575 576 574 576 577 578 580 579 578 581 580 578 582 581 578 583 582 578 584 583 578 585 584 578 586 585 578 587 586 578 588 587 578 589 588 578 590 589 578 591 590 578 592 591 578 593 592 578 594 593 578 595 594 578 596 595 578 597 596 578 598 597 578 599 598 578 600 599 578 601 600 578 602 601 578 579 602 603 604 605 603 605 606 603 606 607 603 607 608 603 608 609 603 609 610 603 610 611 603 611 612 603 612 613 603 613 614 603 614 615 603 615 616 603 616 617 603 617 618 603 618 619 603 619 620 603 620 621 603 621 622 603 622 623 603 623 624 603 624 625 603 625 626 603 626 627 603 627 604 628 629 630 628 630 631 632 633 634 632 634 635 636 637 638 636 638 639 640 641 642 640 642 643 644 645 646 644 646 647 648 649 650 648 650 651 652 653 654 652 654 655 656 657 658 656 658 659 660 661 662 660 662 663 664 665 666 664 666 667 668 669 670 668 670 671 672 673 674 672 674 675 676 677 678 676 678 679 680 681 682 680 682 683 684 685 686 684 686 687 688 689 690 688 690 691 692 693 694 692 694 695 696 697 698 696 698 699 700 701 702 700 702 703 704 705 706 704 706 707 708 709 710 708 710 711 712 713 714 712 714 715 716 717 718 716 718 719 720 721 722 720 722 723 724 725 726 724 726 727 728 729 730 728 730 731 732 733 734 732 734 735 736 737 738 736 738 739 740 741 742 740 742 743 744 745 746 744 746 747</p>
      </triangles>
    </mesh></geometry>
  </library_geometries>
  <library_visual_scenes>
    <visual_scene id="Scene">
      <node id="Node" type="NODE">
        <instance_geometry url="#Geom">
          <bind_material><technique_common>
            <instance_material symbol="Mat" target="#Mat"/>
          </technique_common></bind_material>
        </instance_geometry>
      </node>
    </visual_scene>
  </library_visual_scenes>
  <scene><instance_visual_scene url="#Scene"/></scene>
</COLLADA>